<?xml version="1.0" standalone="no"?>
<!DOCTYPE svg PUBLIC "-//W3C//DTD SVG 20010904//EN"
 "http://www.w3.org/TR/2001/REC-SVG-20010904/DTD/svg10.dtd">
<svg version="1.0" xmlns="http://www.w3.org/2000/svg"
 width="600.000000pt" height="601.000000pt" viewBox="0 0 600.000000 601.000000"
 preserveAspectRatio="xMidYMid meet">

<g transform="translate(0.000000,601.000000) scale(0.100000,-0.100000)"
fill="#000000" stroke="none">
<path d="M3779 5560 c-65 -11 -118 -41 -168 -95 -53 -57 -77 -110 -91 -200 -6
-38 -13 -71 -14 -73 -2 -2 -42 8 -90 22 -288 83 -604 71 -773 -30 l-57 -35
-933 3 -933 3 0 -902 0 -902 -40 -57 c-124 -178 -146 -494 -55 -807 14 -48 25
-92 25 -97 0 -6 -22 -10 -48 -10 -55 0 -130 -23 -182 -55 -44 -28 -108 -97
-121 -133 -55 -145 -20 -283 142 -559 118 -200 164 -299 184 -398 18 -88 14
-142 -16 -193 -22 -39 -25 -72 -5 -72 7 0 33 18 58 40 61 53 90 122 96 225 7
137 -38 274 -157 475 -167 282 -211 428 -162 537 24 53 81 84 167 91 l61 4 55
-113 c123 -255 313 -439 453 -439 39 0 52 5 77 31 28 28 30 34 25 80 -9 76
-52 144 -157 250 -124 124 -239 192 -380 221 l-58 12 -21 70 c-43 147 -53 205
-58 346 -6 159 6 228 53 321 45 89 135 156 235 174 36 7 36 6 47 -38 16 -63
49 -137 62 -137 6 0 10 29 10 73 0 82 25 168 86 294 38 81 65 110 254 284 117
107 172 187 191 277 15 73 -4 94 -21 23 -23 -97 -115 -210 -234 -288 -95 -62
-243 -213 -282 -287 l-31 -58 -14 68 c-17 91 -18 304 0 374 31 125 103 222
174 235 20 4 53 20 72 35 25 20 50 29 95 33 33 4 72 10 85 13 19 5 25 2 25
-10 0 -9 7 -28 16 -42 l17 -24 56 31 c31 17 57 33 59 34 1 1 -2 13 -7 27 -9
24 -10 24 -102 17 -52 -4 -122 -10 -156 -13 l-63 -7 -14 35 c-26 61 -109 83
-156 41 -18 -16 -29 -11 -53 25 -21 30 -22 108 -3 155 18 42 86 93 135 100 77
13 79 14 74 35 -12 45 14 15 46 -53 26 -56 53 -91 120 -157 76 -75 154 -131
165 -119 2 2 6 13 10 24 5 16 -2 25 -30 40 -54 29 -138 126 -176 202 -30 61
-33 76 -33 153 0 75 3 91 27 132 28 47 71 80 120 92 36 8 104 -8 129 -30 17
-16 18 -19 4 -40 -38 -58 -5 -134 66 -155 45 -14 43 -8 24 -114 -8 -44 -14
-108 -15 -142 0 -59 2 -63 25 -69 31 -8 26 -12 60 55 l27 54 -23 18 c-13 10
-32 19 -42 19 -13 0 -17 5 -13 18 3 9 14 56 25 104 29 136 82 208 189 262 66
33 137 46 251 46 93 0 240 -19 292 -38 22 -9 20 -11 -37 -40 -34 -17 -95 -58
-135 -91 -70 -56 -102 -90 -192 -204 -68 -85 -190 -164 -282 -181 -21 -4 -53
-15 -70 -24 -16 -9 -50 -17 -74 -17 -36 -1 -48 -6 -72 -33 -39 -43 -39 -90 -1
-133 30 -34 79 -42 121 -20 32 17 54 68 47 107 -6 28 -3 35 16 45 36 20 117
15 167 -11 60 -30 131 -99 186 -179 l46 -67 -28 -59 c-25 -54 -28 -70 -28
-171 l0 -110 -25 13 c-33 17 -101 17 -126 -1 -17 -13 -20 -11 -39 27 -11 22
-32 49 -46 60 -87 63 -214 -2 -214 -109 0 -37 -3 -43 -17 -39 -10 3 -27 8 -38
11 -28 7 -105 -29 -125 -60 -41 -62 -27 -137 34 -189 27 -22 28 -27 15 -38
-65 -54 -53 -187 21 -221 l25 -11 -21 -23 c-56 -60 -54 -147 6 -202 l36 -33
-26 -30 c-32 -39 -34 -109 -5 -157 22 -36 72 -62 117 -62 66 0 133 67 133 132
0 26 1 27 48 22 77 -8 138 42 149 123 l5 38 48 -3 c66 -5 107 18 132 75 11 25
18 55 16 68 -5 21 -3 22 24 13 91 -32 192 59 174 157 -8 39 -47 91 -77 100
-18 6 -17 8 11 36 35 36 44 65 37 121 -7 50 -47 94 -99 110 -33 10 -37 14 -31
32 5 12 8 59 7 106 0 67 -7 101 -28 160 -37 101 -37 109 3 137 44 30 72 29
110 -2 45 -39 69 -84 117 -223 71 -205 145 -287 251 -280 51 3 60 18 17 30
-65 17 -110 86 -169 260 -52 152 -81 207 -130 244 -64 49 -169 39 -225 -21
l-23 -24 -42 60 c-76 109 -174 198 -255 231 l-34 14 50 18 c80 31 147 81 277
209 131 131 180 163 322 213 64 22 101 28 184 30 57 2 106 5 108 8 9 8 -59 45
-134 72 -69 25 -72 28 -67 53 29 126 134 220 286 256 136 32 393 9 567 -51 19
-6 -30 -58 -71 -75 l-30 -12 28 -15 c16 -8 39 -23 50 -34 l21 -19 17 43 c11
27 15 54 11 76 -5 30 -4 33 11 24 10 -6 24 -39 35 -82 38 -148 102 -252 233
-378 140 -135 254 -175 317 -113 40 41 40 96 -3 181 -63 127 -270 295 -450
367 l-69 28 3 65 c7 134 74 196 200 186 98 -7 193 -45 368 -146 258 -148 371
-190 512 -190 106 0 178 27 241 91 26 27 47 54 47 59 0 21 -33 22 -68 2 -117
-65 -279 -22 -582 157 -247 146 -378 191 -501 171z m-45 -508 c110 -65 237
-187 276 -264 35 -71 38 -100 10 -128 -86 -86 -364 133 -434 344 -9 27 -19 69
-23 93 l-6 43 49 -20 c26 -12 84 -42 128 -68z m-2718 5 c-21 -27 -56 -105 -56
-123 0 -2 18 -4 40 -4 22 0 65 -9 95 -19 30 -11 55 -18 55 -16 0 2 -5 16 -11
32 -15 40 -29 131 -22 148 4 13 101 15 709 15 l703 0 -15 -35 c-7 -19 -14 -46
-14 -60 0 -30 6 -30 -110 -4 -205 45 -412 7 -556 -101 l-64 -49 -16 35 c-39
82 -151 144 -259 144 -128 0 -238 -86 -267 -208 l-12 -49 -50 52 c-52 53 -119
85 -178 85 -24 0 -28 -4 -28 -28 0 -54 32 -125 77 -170 25 -24 43 -45 41 -45
-110 -53 -158 -103 -184 -194 -20 -70 -14 -133 21 -207 24 -50 84 -117 116
-128 11 -4 8 -12 -12 -34 -61 -67 -108 -170 -134 -296 -19 -89 -19 -144 1
-279 9 -61 15 -112 13 -113 -2 -2 -28 -6 -56 -8 l-53 -5 0 679 0 679 53 -7
c28 -4 67 -13 86 -20 19 -8 36 -12 38 -10 3 2 -3 18 -11 35 -9 17 -19 58 -23
91 -7 69 -7 69 -95 25 l-48 -24 0 124 0 125 126 0 125 0 -25 -33z m1230 -1189
c17 -81 11 -148 -17 -181 -22 -27 -46 -16 -71 34 -33 64 -19 235 24 287 11 12
16 8 31 -27 10 -23 25 -74 33 -113z m-386 -73 c32 -17 60 -61 60 -95 0 -54
-57 -110 -112 -110 -38 0 -85 35 -98 74 -16 49 2 101 44 127 38 23 67 24 106
4z m243 -105 c38 -30 52 -80 34 -123 -18 -43 -52 -67 -94 -67 -68 0 -113 43
-113 111 0 22 10 41 34 65 41 41 97 47 139 14z m-421 -78 c72 -67 20 -182 -83
-182 -44 0 -99 56 -99 102 0 100 109 148 182 80z m628 -7 c40 -21 60 -53 60
-98 0 -54 -52 -107 -105 -107 -52 0 -105 53 -105 105 0 47 14 71 53 95 38 24
59 25 97 5z m-407 -29 c4 -10 0 -12 -15 -8 -15 4 -17 7 -6 13 17 11 15 11 21
-5z m-139 -17 c-6 -11 -24 -2 -24 11 0 5 7 7 15 4 8 -4 12 -10 9 -15z m125
-23 c49 -26 68 -108 35 -155 -60 -85 -194 -43 -194 61 0 32 7 47 34 74 38 38
77 44 125 20z m237 -63 c-10 -10 -19 5 -10 18 6 11 8 11 12 0 2 -7 1 -15 -2
-18z m-136 -2 c0 -6 -4 -13 -10 -16 -5 -3 -10 1 -10 9 0 9 5 16 10 16 6 0 10
-4 10 -9z m136 -39 c62 -50 55 -150 -13 -181 -77 -35 -153 11 -153 94 0 65 39
105 102 105 26 0 52 -7 64 -18z m-426 -12 c0 -5 -5 -10 -11 -10 -5 0 -7 5 -4
10 3 6 8 10 11 10 2 0 4 -4 4 -10z m11 -59 c24 -24 29 -38 29 -76 0 -38 -5
-52 -29 -76 -24 -24 -38 -29 -76 -29 -38 0 -52 5 -76 29 -23 24 -29 38 -29 74
0 37 6 51 31 76 25 25 39 31 76 31 36 0 50 -6 74 -29z m507 20 c11 -7 11 -9
-1 -14 -9 -3 -18 1 -21 9 -6 16 2 18 22 5z m122 -36 c32 -17 60 -61 60 -95 0
-53 -57 -110 -110 -110 -53 0 -110 57 -110 110 0 33 28 78 58 94 35 20 66 20
102 1z m-410 -25 c0 -5 -2 -10 -4 -10 -3 0 -8 5 -11 10 -3 6 -1 10 4 10 6 0
11 -4 11 -10z m-145 -10 c3 -5 1 -10 -4 -10 -6 0 -11 5 -11 10 0 6 2 10 4 10
3 0 8 -4 11 -10z m133 -30 c111 -68 23 -240 -98 -190 -63 26 -85 117 -39 166
44 47 86 55 137 24z m237 -50 c3 -5 -1 -10 -10 -10 -9 0 -13 5 -10 10 3 6 8
10 10 10 2 0 7 -4 10 -10z m-135 -14 c0 -3 -4 -8 -10 -11 -5 -3 -10 -1 -10 4
0 6 5 11 10 11 6 0 10 -2 10 -4z m128 -32 c57 -40 65 -119 15 -168 -34 -34
-108 -37 -142 -5 -51 48 -51 120 0 163 36 30 92 35 127 10z m-435 -55 c51 -23
71 -94 42 -149 -19 -37 -43 -50 -95 -50 -61 0 -100 41 -100 105 0 83 76 129
153 94z m242 -59 c3 -5 1 -10 -4 -10 -6 0 -11 5 -11 10 0 6 2 10 4 10 3 0 8
-4 11 -10z m-20 -34 c35 -15 65 -59 65 -96 0 -29 -26 -76 -52 -94 -61 -43
-168 14 -168 89 0 33 32 84 63 99 40 19 49 20 92 2z m-201 -150 c44 -18 66
-52 66 -99 0 -51 -52 -107 -100 -107 -65 0 -109 43 -110 105 0 48 21 82 64
101 39 17 40 17 80 0z m-888 -577 c79 -30 162 -88 235 -166 106 -113 145 -217
99 -263 -89 -89 -351 150 -465 424 l-16 38 47 -7 c27 -4 72 -16 100 -26z"/>
<path d="M2916 5155 c-3 -8 -26 -28 -52 -45 -40 -25 -44 -30 -28 -36 10 -4 32
-16 47 -27 16 -10 30 -18 31 -16 15 18 26 55 26 88 0 41 -14 62 -24 36z"/>
<path d="M3176 5142 c-15 -17 -41 -36 -57 -42 l-29 -12 46 -29 c25 -16 49 -27
54 -24 12 8 22 64 18 104 l-3 33 -29 -30z"/>
<path d="M2708 5040 c-21 -11 -38 -24 -38 -29 0 -15 84 -51 119 -51 34 0 64
12 93 38 16 14 16 16 -9 35 -37 30 -117 33 -165 7z"/>
<path d="M2990 5042 c-19 -9 -35 -24 -35 -32 0 -20 62 -50 105 -50 41 0 105
31 105 51 0 20 -63 49 -105 49 -19 0 -51 -8 -70 -18z"/>
<path d="M3261 5042 c-19 -9 -36 -22 -39 -29 -5 -17 70 -53 110 -53 41 0 103
30 103 50 0 20 -62 50 -105 50 -19 0 -50 -8 -69 -18z"/>
<path d="M3441 4986 c-8 -10 -31 -26 -50 -36 -23 -12 -29 -19 -18 -20 9 0 37
-18 62 -41 l44 -40 6 34 c5 24 1 48 -12 77 -17 39 -20 41 -32 26z"/>
<path d="M2861 4963 l-43 -26 35 -18 c19 -10 44 -30 55 -43 11 -14 22 -22 26
-19 17 17 -1 134 -21 133 -5 -1 -28 -13 -52 -27z"/>
<path d="M3166 4981 c-3 -5 -22 -16 -43 -26 l-37 -18 30 -14 c16 -9 44 -29 62
-46 l32 -31 0 53 c0 68 -25 114 -44 82z"/>
<path d="M1340 4634 c0 -4 5 -24 12 -45 9 -31 21 -44 64 -68 56 -32 149 -121
159 -152 7 -22 24 -24 48 -6 15 11 12 19 -35 80 -28 38 -74 87 -101 109 -52
40 -147 94 -147 82z"/>
<path d="M843 3203 c-27 -41 -25 -140 4 -176 l21 -27 21 25 c33 42 37 106 11
160 -12 25 -26 45 -31 45 -5 0 -17 -12 -26 -27z"/>
<path d="M785 3071 c-4 -13 -23 -41 -42 -62 l-35 -38 26 -7 c28 -7 83 1 105
15 11 7 10 14 -8 39 -11 16 -25 40 -30 53 l-8 24 -8 -24z"/>
<path d="M930 3068 c0 -6 -12 -26 -26 -45 l-25 -33 35 -15 c37 -16 74 -19 100
-9 12 5 10 11 -13 30 -16 13 -34 37 -41 54 -12 30 -30 41 -30 18z"/>
<path d="M844 2933 c-28 -43 -30 -130 -4 -172 20 -32 22 -33 41 -15 32 29 44
86 29 138 -7 25 -20 52 -30 61 -16 14 -19 13 -36 -12z"/>
<path d="M786 2793 c-4 -11 -22 -36 -41 -56 -18 -19 -31 -38 -28 -41 11 -10
81 -7 108 6 26 12 32 23 15 33 -6 3 -19 23 -29 43 -17 32 -19 34 -25 15z"/>
<path d="M930 2789 c-7 -13 -21 -33 -32 -45 -17 -19 -17 -22 -3 -34 18 -15
125 -27 125 -14 0 4 -11 19 -24 33 -14 15 -31 39 -39 55 l-15 28 -12 -23z"/>
<path d="M841 2651 c-27 -52 -27 -116 0 -161 l21 -34 24 27 c33 38 40 89 20
142 -26 68 -41 74 -65 26z"/>
<path d="M775 2504 c-10 -20 -30 -44 -44 -55 -30 -24 -24 -30 25 -31 65 0 115
28 84 47 -6 3 -18 22 -28 41 l-17 34 -20 -36z"/>
<path d="M908 2486 l-26 -44 28 -12 c30 -12 97 -16 107 -6 3 3 -11 24 -31 46
-20 22 -36 45 -36 50 0 21 -16 8 -42 -34z"/>
</g>
</svg>
