<?xml version="1.0" standalone="no"?>
<!DOCTYPE svg PUBLIC "-//W3C//DTD SVG 20010904//EN"
 "http://www.w3.org/TR/2001/REC-SVG-20010904/DTD/svg10.dtd">
<svg version="1.0" xmlns="http://www.w3.org/2000/svg"
 width="601.000000pt" height="601.000000pt" viewBox="0 0 601.000000 601.000000"
 preserveAspectRatio="xMidYMid meet">
<metadata>
Created by potrace 1.16, written by Peter Selinger 2001-2019
</metadata>
<g transform="translate(0.000000,601.000000) scale(0.100000,-0.100000)"
fill="#000000" stroke="none">
<path d="M3345 5610 c-11 -4 -31 -19 -44 -34 l-24 -25 -34 29 c-64 57 -119 37
-179 -66 l-38 -65 -13 26 c-19 36 -43 31 -90 -17 -86 -91 -141 -193 -180 -339
-25 -96 -28 -119 -28 -289 0 -249 1 -253 158 -556 23 -45 54 -97 69 -117 37
-47 117 -105 186 -133 43 -17 59 -30 66 -51 13 -37 11 -526 -3 -713 -6 -80
-15 -215 -21 -300 -37 -553 -59 -762 -124 -1185 l-12 -80 -7 100 c-4 55 -14
208 -22 340 -19 303 -59 575 -109 738 -14 47 -14 48 20 113 19 36 34 71 34 78
0 7 13 42 29 77 58 129 78 309 46 429 -7 30 -19 75 -25 100 -56 212 -121 335
-252 475 -96 102 -152 131 -238 122 -60 -7 -82 2 -135 56 -15 15 -50 34 -77
42 -47 14 -52 13 -112 -11 -51 -20 -68 -23 -90 -14 -40 15 -108 12 -134 -6
-12 -8 -33 -37 -47 -64 -14 -27 -40 -61 -59 -75 -35 -27 -66 -87 -66 -130 0
-15 -7 -26 -21 -30 -44 -14 -88 -66 -119 -142 -18 -42 -46 -104 -64 -137 -25
-49 -31 -73 -33 -132 -1 -39 -9 -95 -19 -123 -23 -71 -14 -138 31 -224 20 -37
49 -105 66 -150 30 -82 42 -102 134 -218 62 -79 99 -114 150 -144 92 -55 279
-72 397 -35 58 18 67 18 112 5 102 -31 222 -10 317 55 l58 40 10 -38 c67 -252
103 -575 122 -1105 6 -175 8 -344 4 -375 l-7 -56 -75 145 c-343 662 -364 713
-412 1002 -16 92 -32 171 -36 175 -13 14 -33 -30 -64 -141 -42 -156 -61 -293
-68 -497 -4 -136 -2 -201 11 -290 53 -359 147 -634 307 -897 106 -173 357
-493 387 -493 6 0 22 26 37 57 61 134 162 263 410 523 155 162 225 246 394
470 144 192 226 358 269 545 26 114 52 338 52 452 0 148 -40 415 -70 462 -12
20 -30 4 -30 -27 0 -15 -24 -97 -54 -182 -150 -436 -290 -700 -523 -988 -178
-220 -276 -352 -321 -431 -20 -36 -37 -60 -39 -54 -8 22 90 465 147 668 48
172 190 604 240 730 26 66 75 176 108 245 l60 125 94 0 c89 0 98 2 172 39 157
77 330 289 447 546 65 141 107 275 116 367 7 71 -3 82 -52 63 l-28 -11 6 48
c4 33 0 65 -11 98 -24 70 -29 75 -68 75 -20 0 -42 7 -50 15 -21 20 -52 19 -97
-5 -20 -11 -55 -20 -77 -20 -141 0 -370 -234 -496 -505 -82 -178 -100 -361
-51 -545 l25 -95 -28 -55 c-83 -165 -174 -399 -315 -810 -30 -85 -54 -149 -54
-142 -1 7 6 70 14 140 15 124 30 343 60 822 7 129 19 413 25 630 11 424 15
484 33 499 7 5 32 14 56 21 67 18 104 47 252 204 94 99 145 162 162 199 44 91
75 196 97 326 12 69 23 128 26 132 2 4 8 49 14 100 15 150 -12 287 -86 429
-39 74 -89 140 -108 140 -7 0 -23 -19 -36 -41 l-23 -42 -33 53 c-18 28 -40 61
-50 71 -25 27 -72 24 -105 -7 l-27 -26 -29 20 c-36 26 -63 33 -88 22z m231
-32 c11 -13 37 -49 57 -80 l37 -58 0 -138 c0 -77 -5 -164 -10 -193 -11 -56
-30 -112 -37 -106 -10 10 -44 124 -62 206 -26 116 -52 175 -97 217 -27 26 -34
39 -28 56 8 27 92 118 109 118 6 0 20 -10 31 -22z m-315 -57 c38 -37 69 -73
69 -80 0 -19 -24 -11 -60 19 -26 23 -44 30 -76 30 -54 0 -76 -19 -119 -105
l-35 -70 0 41 c0 26 13 68 39 121 37 77 69 113 99 113 7 0 45 -31 83 -69z
m150 50 l24 -19 -23 -46 c-22 -47 -52 -70 -60 -47 -2 6 -14 24 -27 39 l-24 28
25 32 c29 37 52 40 85 13z m420 -186 c83 -170 96 -305 54 -534 -39 -207 -63
-298 -99 -375 -34 -73 -104 -169 -136 -186 -15 -8 -15 0 7 83 16 60 26 132 29
207 5 100 9 123 34 175 20 41 32 88 40 150 5 50 19 119 30 153 31 99 27 183
-15 308 -19 57 -35 117 -35 132 l1 27 25 -30 c14 -16 43 -66 65 -110z m-85
-38 c38 -124 40 -168 10 -277 -14 -52 -28 -120 -31 -150 -10 -81 -35 -168 -45
-150 -4 8 -15 54 -25 101 -18 86 -18 86 5 145 20 51 24 85 29 249 4 105 11
197 16 205 8 12 11 8 13 -15 2 -16 14 -65 28 -108z m-736 22 l17 -92 -51 -105
-52 -105 -18 61 c-26 85 -18 149 33 258 23 48 44 85 47 81 3 -3 14 -47 24 -98z
m250 66 c23 -19 44 -35 46 -35 3 0 21 7 41 15 47 20 65 19 96 -5 38 -30 74
-112 98 -225 11 -55 34 -134 49 -176 94 -259 97 -534 9 -740 -39 -90 -168
-189 -266 -205 -40 -6 -43 -5 -53 22 -23 59 -41 158 -49 267 -8 107 -1 301 14
366 7 33 -8 44 -19 14 -4 -10 -11 -78 -17 -153 -11 -154 0 -321 30 -442 22
-93 10 -93 -19 -1 -49 158 -62 344 -40 564 10 97 54 395 66 447 3 17 1 23 -8
20 -15 -5 -16 -14 -54 -258 -24 -152 -28 -206 -28 -405 0 -218 1 -235 26 -325
14 -52 29 -103 33 -112 22 -54 -157 24 -225 98 -78 85 -128 231 -137 402 -10
183 22 311 144 581 41 91 85 190 98 218 29 64 66 103 99 103 13 0 43 -16 66
-35z m-362 -72 c-30 -69 -35 -190 -10 -266 l19 -59 -29 -86 c-50 -148 -60
-208 -62 -354 0 -75 -2 -135 -4 -134 -1 2 -14 36 -28 77 -16 49 -29 115 -35
193 -11 125 -7 166 15 166 8 0 16 7 20 15 3 9 21 25 41 36 37 22 45 39 19 39
-9 0 -34 -18 -56 -40 l-40 -40 7 68 c14 143 58 281 119 376 20 31 38 56 41 56
2 0 -5 -21 -17 -47z m-592 -1028 c20 -8 48 -27 62 -42 15 -16 38 -36 52 -45
l25 -16 -19 -32 c-52 -91 -70 -233 -41 -340 19 -71 19 -104 -1 -142 l-16 -32
-12 35 c-16 47 -71 129 -144 219 -34 41 -74 99 -90 127 -27 53 -42 66 -42 38
0 -29 40 -94 106 -176 66 -81 154 -214 154 -233 0 -5 -16 17 -36 50 -43 71
-64 95 -75 88 -5 -3 5 -25 22 -50 16 -24 44 -74 61 -110 27 -57 29 -68 18 -94
-10 -25 -15 -28 -32 -19 -24 13 -48 67 -59 129 -9 56 -77 170 -101 170 -23 0
-24 -53 -4 -107 8 -21 17 -51 21 -68 9 -40 23 -55 51 -55 13 0 24 -2 24 -4 0
-2 3 -11 6 -19 3 -9 -3 -16 -15 -20 -30 -8 -27 -52 5 -82 15 -14 30 -25 34
-25 4 0 10 -12 13 -26 4 -23 2 -25 -22 -19 -35 9 -68 41 -76 73 -3 15 -22 52
-41 84 -27 44 -34 66 -34 107 0 44 -4 53 -26 68 -25 16 -27 16 -40 -2 -8 -10
-14 -39 -14 -63 l0 -44 -40 48 c-22 27 -61 79 -86 116 l-45 68 27 45 c22 39
25 51 17 78 -7 28 -14 32 -46 35 -20 2 -37 9 -37 15 1 26 40 97 60 109 12 7
37 39 57 71 19 32 46 65 59 74 23 15 31 15 130 -3 21 -4 43 1 70 15 46 25 72
26 120 6z m224 -140 c0 -41 5 -51 62 -112 60 -67 90 -118 102 -178 l7 -31 -78
1 c-68 0 -84 -4 -125 -28 -26 -15 -53 -38 -59 -50 -11 -20 -14 -16 -27 43 -23
99 -20 213 7 283 27 68 65 117 92 117 16 0 19 -7 19 -45z m101 16 c119 -76
252 -260 310 -428 l19 -57 -20 22 c-12 12 -61 43 -110 67 -74 37 -91 50 -96
73 -21 95 -39 129 -106 198 -62 64 -68 74 -68 112 0 51 10 52 71 13z m1633
-137 c10 -9 16 -33 16 -59 0 -36 -5 -48 -30 -69 -17 -14 -47 -28 -68 -32 -20
-4 -45 -11 -54 -16 -24 -12 -23 -5 8 49 15 24 30 58 33 75 4 22 17 36 41 49
42 23 35 22 54 3z m94 -26 c18 -18 15 -26 -17 -42 -32 -17 -41 -13 -41 20 0
31 35 45 58 22z m-215 -26 c-2 -12 -14 -41 -29 -63 -36 -58 -53 -110 -69 -215
-28 -180 -71 -254 -202 -343 -133 -90 -211 -179 -246 -282 l-15 -44 -7 39
c-12 63 2 234 26 311 71 230 225 463 374 565 88 60 172 77 168 32z m-2289 2
c40 -15 -8 -110 -77 -153 -43 -26 -47 -36 -47 -114 0 -74 -25 -123 -67 -132
-15 -4 -38 -10 -50 -15 -22 -9 -23 -7 -23 34 0 50 96 284 133 324 12 14 40 33
62 43 45 21 47 21 69 13z m1433 -36 c-3 -13 -11 -194 -16 -403 -13 -474 -15
-522 -52 -1055 -36 -541 -68 -770 -133 -975 -25 -77 -45 -130 -46 -118 0 13
18 148 40 300 70 497 93 721 130 1268 24 362 37 868 23 942 -6 29 -8 55 -5 58
3 3 19 5 35 5 25 0 28 -3 24 -22z m1101 -59 c6 -98 -7 -176 -35 -209 -14 -17
-33 -35 -44 -40 -17 -10 -17 -8 -4 25 17 39 20 99 5 90 -5 -3 -10 -16 -10 -28
0 -40 -56 -143 -94 -172 -40 -31 -228 -136 -233 -131 -2 2 10 25 27 52 27 45
59 153 75 257 8 52 62 105 117 113 26 5 55 19 78 40 41 38 90 66 105 61 6 -2
11 -28 13 -58z m-2518 -121 c24 -35 65 -89 92 -121 39 -48 46 -62 38 -77 -26
-49 -1 -97 45 -86 18 5 25 2 25 -8 0 -7 -11 -17 -25 -20 -14 -4 -39 -25 -55
-48 l-30 -41 -10 30 c-13 36 -157 170 -200 184 -28 10 -29 12 -15 32 9 13 15
46 16 82 1 75 7 91 44 115 17 11 30 20 31 20 1 0 21 -28 44 -62z m840 30 c65
-19 206 -98 227 -127 73 -98 100 -262 68 -407 -19 -85 -43 -154 -54 -154 -4 0
-13 22 -20 49 -16 62 -72 180 -78 164 -3 -7 9 -49 26 -93 17 -43 31 -83 31
-87 0 -4 -25 40 -54 98 -57 113 -120 212 -155 243 -37 33 -24 -3 28 -78 62
-90 146 -258 167 -333 19 -69 15 -83 -49 -170 -62 -84 -133 -138 -214 -163
-111 -34 -213 -20 -285 40 -50 41 -63 90 -46 168 6 31 11 89 10 127 -2 50 4
88 18 129 22 65 25 139 9 214 -10 47 -8 56 32 157 46 118 86 179 138 208 61
37 115 40 201 15z m1741 -5 c-5 -10 -16 -27 -25 -38 -15 -20 -15 -20 -16 2 0
22 24 53 41 53 6 0 6 -6 0 -17z m-2241 -117 c4 -13 5 -28 1 -35 -11 -17 -25 4
-41 62 -7 26 -17 50 -21 53 -5 3 -9 13 -9 22 0 17 54 -62 70 -102z m2226 -34
c-68 -235 -213 -494 -354 -630 -95 -92 -227 -162 -303 -162 -61 0 -105 18
-143 59 -26 27 -29 38 -28 87 2 75 49 169 123 244 66 68 107 93 248 154 174
76 274 142 381 253 52 54 96 95 98 91 2 -4 -8 -48 -22 -96z m-2356 -6 c0 -45
-27 -107 -49 -114 -10 -4 -12 1 -7 19 3 13 12 57 18 97 10 65 14 72 25 56 7
-10 13 -36 13 -58z m-289 -112 c18 -20 53 -49 75 -65 52 -36 74 -88 74 -175 0
-49 10 -96 41 -192 51 -155 77 -210 123 -249 30 -27 104 -53 150 -53 16 0 66
-38 66 -50 0 -17 -115 -32 -201 -28 -119 7 -187 39 -274 128 -37 39 -76 91
-90 122 -29 63 -55 190 -55 266 0 33 -4 51 -10 47 -15 -9 -12 -130 4 -200 8
-33 13 -61 12 -63 -5 -5 -56 115 -56 132 0 8 -21 55 -46 103 -41 76 -47 96
-47 148 0 62 16 107 49 136 23 21 45 26 105 28 39 1 49 -3 80 -35z m334 -7
c30 -53 31 -57 5 -57 -23 0 -48 45 -42 78 2 12 5 22 7 22 2 0 16 -20 30 -43z
m185 -40 c0 -5 -10 -5 -22 -2 -35 11 -69 35 -63 45 6 9 85 -30 85 -43z m-137
-70 c36 -27 89 -47 123 -47 22 0 24 -4 24 -42 -1 -24 -8 -61 -16 -83 -8 -22
-19 -93 -24 -159 -4 -65 -12 -122 -18 -128 -13 -13 -59 44 -91 112 -20 45 -26
51 -29 32 -5 -30 29 -98 75 -151 24 -29 39 -58 43 -85 l6 -43 -50 10 c-28 5
-63 15 -78 23 -30 16 -70 77 -99 153 l-18 49 50 -34 c49 -32 79 -43 79 -26 -1
7 -93 65 -121 74 -18 7 -69 168 -69 219 0 40 59 135 93 149 33 14 85 4 120
-23z m135 -8 c-3 -8 -7 -3 -11 10 -4 17 -3 21 5 13 5 -5 8 -16 6 -23z m1327
-549 c3 -5 -20 -62 -51 -127 -95 -200 -147 -337 -253 -668 -117 -366 -164
-544 -231 -880 -38 -189 -58 -262 -91 -342 -24 -56 -44 -101 -45 -100 -4 4 23
213 41 317 57 339 311 1132 512 1605 86 201 100 225 118 195z m-745 -95 c66
-265 96 -573 120 -1225 9 -250 8 -262 -29 -405 -9 -32 -10 -16 -6 80 5 135 -9
624 -25 869 -6 89 -20 224 -31 301 -20 143 -74 418 -85 436 -8 13 17 42 28 31
4 -4 17 -44 28 -87z m1190 -147 c27 -126 42 -294 36 -408 -12 -210 -44 -392
-92 -517 -27 -73 -111 -233 -158 -303 -97 -144 -300 -394 -426 -525 -138 -143
-257 -274 -309 -340 l-23 -30 17 30 c52 89 254 339 491 606 55 63 132 158 171
211 71 98 163 263 163 292 0 32 -17 15 -39 -39 -46 -110 -181 -297 -366 -505
-181 -204 -335 -394 -415 -513 -44 -65 -80 -115 -80 -112 0 15 89 179 133 245
76 114 130 182 262 335 163 188 262 314 331 421 85 131 244 486 244 545 0 35
-17 20 -29 -25 -12 -48 -99 -253 -157 -368 -75 -150 -176 -287 -444 -598 -144
-168 -272 -350 -332 -475 -49 -100 -39 -63 19 73 84 198 150 297 383 577 102
123 171 213 194 253 4 7 2 12 -6 12 -8 0 -36 -30 -63 -67 -28 -38 -85 -109
-127 -160 -141 -168 -234 -289 -281 -364 -60 -96 -133 -252 -169 -359 -26 -77
-28 -81 -23 -35 10 81 34 153 91 273 50 106 151 272 215 353 32 40 35 49 18
49 -15 0 -22 -9 -120 -154 -134 -199 -204 -357 -233 -531 -2 -16 -3 4 0 45 3
41 9 93 15 115 38 147 162 418 249 546 24 35 91 124 149 198 256 323 313 408
426 631 78 153 255 606 255 651 0 38 19 18 30 -33z m-1656 -285 c44 -259 103
-404 355 -873 115 -215 151 -300 151 -359 l-1 -36 -16 35 c-25 55 -28 11 -4
-63 19 -60 39 -167 28 -157 -3 3 -26 64 -51 135 -49 140 -89 242 -100 252 -14
15 -4 -40 20 -103 67 -177 124 -356 124 -391 -1 -33 -7 -23 -49 82 -103 259
-193 492 -213 552 -19 59 -38 82 -38 48 0 -20 59 -180 185 -504 142 -367 136
-402 -13 -80 -199 428 -281 650 -342 929 -26 116 -46 157 -37 74 6 -58 57
-264 92 -375 57 -183 162 -428 362 -850 25 -53 43 -103 41 -110 -4 -13 -125
182 -212 342 -99 185 -244 563 -271 712 -5 26 -11 35 -18 28 -22 -22 78 -342
176 -565 63 -141 164 -329 269 -498 51 -83 61 -113 27 -82 -36 32 -194 277
-253 393 -66 128 -143 307 -175 404 -23 69 -48 93 -36 35 10 -51 112 -303 166
-409 78 -156 200 -350 294 -467 32 -39 49 -92 26 -77 -5 3 -61 74 -124 158
-119 158 -211 306 -277 442 -83 173 -162 460 -190 688 -18 141 -8 450 19 597
21 115 53 252 57 247 1 -1 14 -71 28 -154z"/>
<path d="M3572 5402 c-7 -24 -11 -51 -9 -60 6 -28 28 37 25 72 -4 30 -4 30
-16 -12z"/>
<path d="M3630 5428 c0 -2 -12 -34 -26 -73 -33 -93 -38 -115 -26 -115 6 0 20
26 32 58 23 59 37 132 26 132 -3 0 -6 -1 -6 -2z"/>
<path d="M3610 5254 c-23 -53 -24 -64 -9 -64 9 0 28 37 43 88 13 41 -13 23
-34 -24z"/>
<path d="M3840 5150 c0 -6 4 -18 10 -28 5 -9 15 -30 22 -47 l12 -30 4 27 c3
28 -22 88 -38 88 -6 0 -10 -5 -10 -10z"/>
<path d="M3823 5083 c31 -93 43 -123 50 -123 14 0 7 55 -13 98 -18 40 -49 61
-37 25z"/>
<path d="M3800 5005 c0 -3 8 -22 19 -43 10 -20 21 -49 25 -64 3 -16 11 -28 17
-28 15 0 3 66 -19 104 -16 27 -42 47 -42 31z"/>
<path d="M3805 4899 c20 -63 26 -74 35 -59 10 17 -10 72 -29 78 -10 3 -11 -2
-6 -19z"/>
<path d="M3357 5094 c-20 -26 -34 -51 -30 -56 6 -12 82 70 83 90 0 23 -17 12
-53 -34z"/>
<path d="M3414 5081 c-50 -54 -116 -152 -108 -160 6 -6 19 8 102 113 61 78 65
110 6 47z"/>
<path d="M3395 4973 c-42 -54 -55 -84 -37 -83 11 1 92 112 92 127 0 22 -8 15
-55 -44z"/>
<path d="M3010 4991 c0 -21 39 -73 40 -53 0 15 -28 72 -35 72 -3 0 -5 -9 -5
-19z"/>
<path d="M2980 4960 c0 -29 42 -110 57 -110 14 0 8 22 -27 90 -23 45 -30 50
-30 20z"/>
<path d="M2950 4902 c0 -39 91 -195 105 -181 6 6 -92 199 -101 199 -2 0 -4 -8
-4 -18z"/>
<path d="M2930 4824 c0 -23 60 -140 91 -177 39 -46 48 -25 12 26 -17 23 -45
70 -62 105 -32 64 -41 74 -41 46z"/>
<path d="M2910 4741 c0 -47 131 -246 138 -209 2 9 -15 40 -37 68 -21 29 -51
77 -65 106 -28 58 -36 65 -36 35z"/>
<path d="M2890 4659 c0 -34 91 -179 144 -228 49 -46 37 -14 -26 70 -35 46 -72
103 -82 127 -18 40 -36 55 -36 31z"/>
<path d="M3487 4523 c-20 -27 -58 -70 -86 -98 -51 -49 -61 -65 -41 -65 26 0
180 170 180 198 0 24 -19 11 -53 -35z"/>
<path d="M3537 4497 c-45 -63 -169 -187 -187 -187 -6 0 -10 -6 -10 -14 0 -27
37 -4 117 72 71 69 143 161 143 184 0 22 -22 2 -63 -55z"/>
<path d="M2895 4540 c-4 -6 5 -30 18 -53 37 -61 146 -187 162 -187 23 0 19 8
-42 74 -31 33 -73 87 -94 119 -21 32 -40 53 -44 47z"/>
<path d="M3407 4502 c-40 -41 -45 -52 -23 -52 15 0 76 64 76 80 0 19 -16 10
-53 -28z"/>
<path d="M3495 4369 c-33 -33 -88 -79 -123 -102 -73 -48 -60 -65 16 -21 52 31
182 153 182 172 0 22 -15 12 -75 -49z"/>
<path d="M2920 4401 c0 -27 104 -151 127 -151 21 0 15 14 -22 50 -19 19 -47
51 -61 72 -25 36 -44 49 -44 29z"/>
<path d="M3461 4265 c-29 -25 -66 -53 -82 -62 -31 -18 -38 -33 -15 -33 28 0
166 110 166 132 0 16 -16 7 -69 -37z"/>
<path d="M2790 5055 c-33 -36 -17 -43 25 -11 40 31 42 36 17 36 -10 0 -29 -11
-42 -25z"/>
<path d="M2792 5011 c-29 -27 -41 -51 -26 -51 4 0 22 14 41 30 18 17 38 30 43
30 6 0 10 5 10 10 0 20 -36 9 -68 -19z"/>
<path d="M2780 4888 c-21 -23 -26 -38 -12 -38 10 0 52 43 52 53 0 14 -20 6
-40 -15z"/>
<path d="M2300 4198 c0 -34 -23 -149 -36 -182 -5 -13 -3 -17 6 -14 20 6 40 73
47 155 4 52 3 73 -6 73 -6 0 -11 -15 -11 -32z"/>
<path d="M2240 4152 c0 -15 -4 -42 -9 -59 -12 -40 5 -55 19 -18 13 34 13 105
0 105 -5 0 -10 -12 -10 -28z"/>
<path d="M2326 4098 c-3 -35 -9 -78 -12 -95 -4 -20 -2 -33 4 -33 16 0 23 29
29 113 7 94 -11 107 -21 15z"/>
<path d="M1945 4047 c7 -17 76 -57 99 -57 30 0 16 15 -36 40 -69 34 -69 34
-63 17z"/>
<path d="M1950 4000 c0 -15 85 -60 124 -67 49 -8 47 13 -1 26 -21 6 -53 20
-71 31 -36 22 -52 25 -52 10z"/>
<path d="M1950 3950 c0 -24 138 -89 160 -75 14 9 3 25 -17 25 -8 0 -42 14 -75
30 -65 33 -68 34 -68 20z"/>
<path d="M1950 3901 c0 -11 53 -45 93 -60 21 -8 27 -8 27 4 0 7 -10 17 -22 21
-13 4 -34 15 -47 25 -25 20 -51 25 -51 10z"/>
<path d="M2470 4102 c0 -4 13 -15 29 -25 16 -9 41 -31 56 -48 30 -36 46 -30
24 9 -23 42 -109 92 -109 64z"/>
<path d="M2450 4050 c0 -5 13 -16 29 -25 17 -8 49 -37 73 -65 24 -27 46 -50
51 -50 28 0 -29 80 -87 122 -40 28 -66 36 -66 18z"/>
<path d="M2450 3990 c0 -5 13 -16 30 -25 16 -8 38 -25 49 -36 29 -31 47 -19
21 14 -32 40 -100 73 -100 47z"/>
<path d="M3803 3695 c-52 -35 -69 -52 -60 -61 6 -6 137 77 137 88 0 16 -27 7
-77 -27z"/>
<path d="M3843 3670 c-64 -29 -163 -99 -163 -115 0 -21 4 -19 57 21 25 19 73
49 105 65 32 16 58 34 58 39 0 14 -9 12 -57 -10z"/>
<path d="M3810 3600 c-65 -36 -149 -98 -164 -122 -21 -34 5 -31 42 4 42 41
130 99 185 122 20 8 37 17 37 20 0 15 -51 2 -100 -24z"/>
<path d="M3735 3501 c-55 -32 -112 -87 -102 -98 4 -3 17 2 29 13 l23 19 -19
-22 c-34 -41 -11 -44 38 -6 36 28 44 39 32 41 -9 2 -25 -2 -34 -10 -15 -12
-16 -11 -3 5 8 9 36 30 62 45 48 26 61 42 37 42 -7 0 -35 -13 -63 -29z"/>
<path d="M4190 3818 c0 -21 32 -98 41 -98 13 0 11 26 -5 64 -15 36 -36 56 -36
34z"/>
<path d="M4143 3789 c3 -8 16 -40 29 -71 13 -32 26 -58 31 -58 26 0 -23 129
-52 138 -9 3 -12 0 -8 -9z"/>
<path d="M4120 3733 c1 -23 37 -108 45 -108 15 0 7 53 -12 86 -16 27 -33 38
-33 22z"/>
<path d="M4100 3674 c0 -15 22 -44 31 -39 11 7 -7 45 -21 45 -6 0 -10 -3 -10
-6z"/>
<path d="M1817 3708 c-7 -54 0 -79 14 -57 11 18 12 96 0 103 -4 3 -11 -18 -14
-46z"/>
<path d="M1860 3655 c0 -50 4 -85 10 -85 6 0 10 35 10 85 0 50 -4 85 -10 85
-6 0 -10 -35 -10 -85z"/>
<path d="M1900 3600 c0 -47 4 -80 10 -80 6 0 10 33 10 80 0 47 -4 80 -10 80
-6 0 -10 -33 -10 -80z"/>
<path d="M2816 3688 c13 -40 27 -99 31 -130 7 -70 23 -77 23 -10 -1 53 -49
204 -67 210 -8 2 -3 -23 13 -70z"/>
<path d="M2750 3747 c0 -1 9 -28 20 -60 11 -31 20 -66 20 -77 0 -11 5 -20 11
-20 8 0 10 15 5 46 -6 50 -33 114 -47 114 -5 0 -9 -1 -9 -3z"/>
<path d="M2850 3725 c0 -6 9 -39 20 -73 11 -35 23 -102 26 -148 8 -98 24 -113
24 -21 0 75 -32 213 -54 235 -9 9 -16 12 -16 7z"/>
<path d="M2900 3688 c0 -1 7 -28 15 -58 8 -30 15 -74 15 -97 0 -24 5 -43 10
-43 26 0 0 188 -28 198 -6 2 -12 2 -12 0z"/>
<path d="M2470 3331 c0 -11 78 -31 119 -31 52 0 34 15 -34 28 -77 14 -85 15
-85 3z"/>
<path d="M2432 3289 c10 -29 238 -87 238 -60 0 6 -8 11 -19 11 -18 0 -163 40
-205 56 -14 5 -17 3 -14 -7z"/>
<path d="M2405 3241 c-10 -17 155 -73 234 -78 90 -7 92 11 2 20 -32 4 -96 20
-142 37 -95 35 -86 33 -94 21z"/>
<path d="M2396 3172 c-7 -11 75 -48 149 -68 65 -18 215 -30 215 -18 0 5 -42
15 -93 21 -77 9 -169 34 -248 67 -10 4 -20 3 -23 -2z"/>
<path d="M2420 3092 c0 -14 77 -50 143 -68 57 -15 187 -19 187 -5 0 4 -37 11
-83 13 -58 4 -102 14 -147 33 -86 35 -100 39 -100 27z"/>
<path d="M2470 3002 c0 -15 73 -41 135 -48 81 -10 69 10 -17 28 -40 9 -83 19
-95 23 -14 4 -23 3 -23 -3z"/>
<path d="M4320 3571 c0 -40 14 -62 23 -38 6 17 -3 66 -14 73 -5 3 -9 -13 -9
-35z"/>
<path d="M4288 3574 c-5 -4 -8 -37 -8 -73 0 -45 3 -62 11 -54 5 5 9 38 7 72
-2 35 -6 59 -10 55z"/>
<path d="M4240 3535 c-9 -112 -9 -188 1 -178 16 16 24 146 11 169 -6 11 -12
15 -12 9z"/>
<path d="M4189 3505 c-1 -5 -3 -32 -4 -60 0 -27 -5 -79 -9 -115 -6 -47 -5 -62
3 -55 25 24 41 194 21 225 -5 8 -10 11 -11 5z"/>
<path d="M4126 3382 c-3 -48 -12 -114 -20 -147 -15 -60 -14 -77 4 -59 27 27
54 274 31 288 -4 3 -11 -34 -15 -82z"/>
<path d="M4062 3328 c-7 -46 -16 -98 -19 -117 -4 -22 -2 -32 5 -27 14 8 42
134 42 185 0 68 -15 46 -28 -41z"/>
<path d="M4019 3345 c-4 -5 -9 -38 -13 -72 -8 -72 9 -89 19 -20 7 48 3 107 -6
92z"/>
<path d="M1800 3178 c-24 -38 -34 -72 -27 -90 2 -8 10 -1 18 17 7 17 24 47 36
68 19 30 20 37 8 37 -8 0 -24 -15 -35 -32z"/>
<path d="M1836 3148 c-36 -61 -58 -117 -53 -136 2 -11 9 -3 20 22 10 22 31 61
47 88 17 27 30 53 30 58 0 23 -21 7 -44 -32z"/>
<path d="M1872 3118 c-16 -21 -59 -111 -66 -140 -11 -47 11 -40 29 10 10 26
28 65 41 88 13 22 24 44 24 47 0 11 -17 8 -28 -5z"/>
<path d="M1881 3013 c-23 -47 -36 -103 -23 -103 5 0 20 28 33 63 13 34 25 65
27 70 2 4 -1 7 -7 7 -6 0 -19 -17 -30 -37z"/>
<path d="M2195 3267 c-16 -39 -20 -97 -7 -97 10 0 36 120 28 128 -3 3 -13 -11
-21 -31z"/>
<path d="M2233 3253 c-20 -49 -30 -163 -14 -163 6 0 11 15 11 34 0 19 9 63 20
98 23 75 22 68 9 68 -5 0 -17 -17 -26 -37z"/>
<path d="M2244 3125 c-6 -34 -1 -55 11 -43 3 3 9 22 12 42 8 48 -14 48 -23 1z"/>
<path d="M2026 3136 c7 -18 52 -41 61 -32 9 8 -36 45 -54 46 -7 0 -10 -6 -7
-14z"/>
<path d="M2052 3028 c5 -15 76 -58 96 -58 26 0 10 18 -39 44 -58 30 -62 31
-57 14z"/>
</g>
</svg>
