<?xml version="1.0" standalone="no"?>
<!DOCTYPE svg PUBLIC "-//W3C//DTD SVG 20010904//EN"
 "http://www.w3.org/TR/2001/REC-SVG-20010904/DTD/svg10.dtd">
<svg version="1.0" xmlns="http://www.w3.org/2000/svg"
 width="97px" height="97px" viewBox="0 0 601.000000 600.000000"
 preserveAspectRatio="xMidYMid meet">
<metadata>
Created by potrace 1.16, written by Peter Selinger 2001-2019
</metadata>
<g transform="translate(0.000000,600.000000) scale(0.100000,-0.100000)"
fill="#000000" stroke="none">
<path d="M2670 5422 c0 -4 13 -23 30 -42 47 -56 36 -101 -14 -55 -26 24 -56
33 -56 17 0 -20 34 -52 55 -52 24 0 55 -23 55 -41 0 -5 -11 -7 -24 -3 -39 10
-38 -10 4 -51 41 -40 52 -81 30 -115 -8 -12 -10 -10 -10 8 0 28 -17 62 -30 62
-13 0 -13 -56 1 -81 6 -11 8 -25 6 -32 -2 -7 -13 6 -23 28 -11 22 -22 42 -26
43 -5 2 -8 12 -8 23 0 10 -3 18 -7 18 -35 -6 -40 1 -35 57 4 43 2 55 -7 49 -7
-4 -16 -17 -21 -29 -8 -19 -9 -18 -10 9 -1 27 -29 75 -44 75 -16 0 -3 -61 19
-95 14 -20 22 -35 18 -33 -47 22 -63 33 -63 40 0 4 -13 8 -30 8 -16 0 -30 5
-30 10 0 6 -8 10 -17 11 -11 0 -13 3 -5 6 21 8 13 23 -12 23 -13 0 -27 8 -31
18 -6 15 -8 14 -20 -8 l-13 -25 -4 35 c-4 41 -22 43 -26 3 -1 -15 -5 -38 -7
-51 l-6 -23 -25 28 -25 28 6 -40 c14 -90 -2 -182 -27 -157 -7 7 -16 12 -20 12
-12 0 -10 -38 2 -45 15 -9 2 -25 -19 -25 -20 0 -31 26 -31 71 0 23 5 27 39 33
44 7 61 23 40 37 -21 13 -67 11 -72 -3 -2 -7 -5 6 -5 29 -1 65 -42 110 -42 47
0 -20 -3 -21 -35 -14 -31 7 -35 6 -35 -13 0 -11 9 -31 21 -43 13 -14 16 -22 7
-21 -52 3 -101 -32 -64 -46 9 -4 12 -14 8 -29 -5 -22 -6 -22 -14 4 -7 21 -16
27 -51 30 -23 3 -43 4 -45 2 -2 -1 4 -16 12 -33 9 -16 16 -33 16 -37 0 -3 -22
-4 -50 -2 -27 3 -50 1 -50 -3 0 -5 -7 -6 -17 -2 -14 5 -15 1 -10 -32 3 -20 13
-45 22 -55 18 -20 9 -54 -12 -46 -8 3 -25 6 -38 6 -22 0 -22 2 -13 45 8 39 7
49 -15 85 -19 32 -26 38 -31 25 -9 -25 -7 -74 5 -96 5 -11 9 -39 7 -62 l-3
-42 -21 36 c-13 21 -20 46 -17 60 3 17 -3 31 -21 48 -14 14 -26 30 -26 38 0
20 -20 16 -22 -4 -3 -42 5 -68 34 -102 34 -40 80 -122 73 -129 -10 -10 -58 32
-68 59 -8 21 -24 34 -54 45 -24 9 -46 14 -50 10 -4 -3 14 -26 39 -50 46 -44
46 -44 15 -35 -18 5 -37 16 -43 24 -9 11 -27 15 -73 13 -33 -2 -61 -7 -61 -11
0 -4 16 -17 35 -28 19 -12 33 -24 31 -28 -13 -21 48 -61 94 -61 18 0 33 -6 37
-15 8 -23 3 -25 -63 -30 -59 -4 -161 -44 -147 -58 13 -14 77 -6 119 15 35 17
46 19 58 9 21 -17 9 -41 -20 -41 -13 0 -24 -3 -24 -6 0 -13 35 -33 58 -34 13
0 22 -6 22 -16 0 -13 -8 -11 -46 10 -55 30 -58 31 -50 10 4 -12 2 -15 -9 -10
-20 7 -20 -18 0 -34 8 -7 15 -19 15 -26 0 -8 12 -33 26 -56 21 -32 24 -45 16
-62 -6 -11 -13 -34 -17 -50 -9 -43 -24 -14 -18 35 3 21 3 49 -1 63 -7 27 -31
35 -39 14 -3 -7 -6 -3 -6 10 -1 28 -42 92 -58 92 -27 0 -9 -80 26 -124 13 -15
9 -14 -16 4 -31 22 -33 27 -33 86 0 66 -13 109 -36 118 -11 4 -14 -5 -14 -37
0 -24 5 -48 11 -54 5 -5 12 -37 15 -69 4 -68 -10 -55 -20 18 -7 43 -37 98 -55
98 -14 0 1 -93 21 -125 23 -39 23 -48 -3 -35 -25 14 -36 6 -19 -14 27 -34 2
-35 -32 -2 l-37 36 4 -69 c2 -46 10 -79 24 -102 12 -19 21 -43 20 -54 0 -14
-2 -16 -6 -5 -15 39 -60 68 -48 31 8 -28 -9 -34 -30 -11 -10 11 -26 20 -36 20
-16 0 -17 -4 -7 -31 6 -17 23 -38 38 -47 34 -22 75 -70 85 -102 6 -20 5 -23
-6 -14 -19 15 -58 24 -76 17 -25 -10 25 -53 63 -53 17 0 42 -9 55 -20 l24 -19
-33 -1 c-19 0 -47 8 -63 17 -15 9 -31 14 -35 11 -7 -8 34 -79 53 -91 12 -7 43
-59 43 -71 0 -3 -13 0 -29 5 -36 13 -66 46 -75 83 -7 28 -72 103 -81 94 -9 -8
17 -72 42 -105 l24 -33 -38 0 c-32 0 -35 -2 -23 -14 19 -17 75 -36 107 -36 13
0 37 -7 53 -15 32 -17 100 -119 99 -150 0 -14 -2 -16 -6 -5 -16 43 -77 81 -66
41 3 -10 0 -22 -6 -25 -6 -4 -11 -2 -11 4 0 7 -8 9 -20 5 -16 -5 -20 -2 -20
14 0 29 -20 27 -20 -1 -1 -20 -4 -17 -23 14 -12 21 -25 38 -29 38 -13 0 -9
-49 7 -87 20 -47 19 -60 -5 -66 -16 -4 -20 0 -20 18 0 13 -11 37 -25 52 l-24
28 -1 -25 c0 -14 9 -42 20 -63 11 -20 20 -47 20 -59 -1 -17 -9 -8 -29 32 -16
30 -41 66 -55 79 l-26 24 0 -22 c0 -32 27 -79 49 -86 10 -3 21 -15 24 -26 4
-15 2 -17 -6 -10 -13 10 -67 3 -67 -9 0 -18 35 -34 71 -33 29 2 42 -3 54 -20
21 -30 19 -34 -16 -42 -29 -7 -30 -8 -13 -26 9 -10 23 -19 31 -19 11 0 11 -4
1 -21 -11 -18 -10 -23 11 -40 13 -10 32 -19 42 -19 16 0 19 -8 19 -44 0 -25
-4 -47 -9 -50 -5 -3 -21 19 -36 49 -14 30 -33 55 -41 55 -18 0 -18 -12 0 -55
8 -19 11 -35 7 -35 -19 0 -31 30 -30 77 1 28 -2 56 -5 62 -11 18 -26 13 -26
-9 0 -18 -4 -16 -30 12 l-29 33 -1 -36 c0 -24 7 -42 21 -55 12 -10 28 -32 36
-49 l14 -30 -20 23 c-15 17 -26 21 -45 16 -14 -3 -26 -12 -26 -20 0 -20 47
-47 71 -41 16 4 18 3 8 -9 -6 -8 -18 -14 -25 -14 -19 0 -18 -16 2 -24 27 -11
61 -6 74 9 13 16 48 20 65 7 6 -4 19 -17 30 -30 l19 -23 -25 6 c-18 4 -30 0
-43 -14 -17 -19 -17 -21 -2 -27 9 -4 34 -4 56 0 39 6 40 5 78 -51 54 -79 90
-153 122 -248 l27 -79 102 -53 c57 -28 105 -54 108 -56 11 -11 -99 8 -157 27
-63 20 -65 22 -68 58 -2 20 -10 42 -18 48 -12 10 -15 7 -20 -19 -8 -37 -14
-38 -43 -7 -19 20 -22 32 -17 58 3 18 1 40 -4 48 -8 13 -11 12 -24 -5 -9 -11
-16 -24 -16 -28 -1 -23 -20 8 -20 33 0 15 -3 35 -6 44 -10 27 -24 18 -24 -17
0 -32 -1 -33 -35 -29 -36 4 -44 -5 -23 -26 9 -9 8 -12 -5 -12 -24 0 -21 -17 5
-26 l21 -6 -24 -19 c-33 -24 -18 -34 54 -35 97 -1 119 -3 113 -13 -3 -5 -22
-12 -41 -15 -37 -7 -45 -20 -19 -30 23 -9 77 -7 93 3 7 5 22 6 33 3 18 -4 18
-6 4 -14 -28 -16 -17 -28 27 -29 30 -2 34 -3 14 -6 -35 -6 -185 32 -207 52
-21 19 -98 21 -82 2 8 -10 2 -12 -29 -9 -21 2 -47 1 -57 -3 -16 -6 -16 -7 2
-21 11 -8 36 -15 55 -15 21 -1 27 -3 15 -6 -12 -2 -26 -15 -32 -29 -11 -23
-10 -24 22 -24 25 0 38 7 50 25 9 14 21 25 27 25 5 0 3 -10 -5 -22 -22 -32
-20 -38 13 -38 21 0 39 10 60 32 29 31 31 31 70 19 41 -12 41 -12 25 -37 -20
-29 -51 -39 -85 -26 -18 7 -35 6 -59 -5 l-35 -15 30 -14 c29 -14 28 -14 -20
-7 -64 8 -83 7 -101 -8 -28 -23 -15 -32 41 -27 l56 5 -41 -40 c-44 -44 -49
-57 -22 -57 40 0 60 14 79 53 17 34 29 45 67 58 54 19 58 16 14 -11 -31 -18
-67 -80 -47 -80 6 0 6 -7 -1 -19 -15 -29 -13 -81 4 -81 21 0 51 56 71 133 18
68 35 96 35 58 0 -22 31 -81 42 -81 16 0 20 52 8 94 -17 62 -3 86 52 86 39 0
40 -1 25 -18 -10 -10 -17 -28 -17 -39 0 -11 -7 -26 -15 -33 -22 -18 -7 -32 27
-25 29 7 29 6 23 -28 -6 -32 -4 -35 23 -45 16 -5 42 -8 58 -6 26 4 27 3 10 -8
-27 -18 -76 -66 -76 -74 0 -3 13 -4 28 -2 28 4 29 3 27 -39 -1 -29 3 -43 12
-43 20 0 31 31 31 86 0 29 4 60 10 70 10 19 11 19 18 0 4 -10 3 -31 -3 -47
-12 -32 -5 -81 10 -76 6 2 21 -10 32 -26 11 -17 26 -32 33 -35 19 -6 14 37 -8
65 -21 27 -27 63 -11 63 6 0 13 -4 16 -10 11 -18 25 -10 25 14 0 15 -7 27 -19
31 -24 7 -71 51 -71 65 0 6 8 9 18 6 9 -2 27 -7 40 -11 37 -11 27 20 -20 59
-36 30 -41 38 -32 53 6 10 26 23 45 29 29 10 59 7 189 -20 162 -34 211 -53
297 -117 51 -38 136 -142 201 -246 18 -28 39 -54 47 -57 33 -12 11 -173 -54
-415 -22 -80 -43 -161 -46 -180 -4 -18 -18 -49 -30 -68 -13 -18 -29 -51 -36
-71 -6 -20 -17 -44 -24 -52 -57 -69 -63 -162 -20 -348 l29 -123 -21 -20 c-11
-11 -40 -25 -64 -30 -31 -7 -53 -20 -74 -44 l-30 -35 -48 18 c-43 15 -50 15
-74 2 -32 -18 -103 -108 -102 -130 0 -10 6 -6 17 10 32 49 100 110 121 110 12
0 39 -9 60 -20 68 -34 114 -36 165 -6 33 19 48 37 61 69 18 49 12 105 -26 243
-26 96 -28 187 -4 239 l19 40 7 -75 c4 -41 13 -97 20 -125 13 -51 45 -135 52
-135 2 0 -9 44 -24 98 -38 128 -40 263 -7 332 l22 45 7 -130 c4 -84 14 -155
28 -202 23 -81 80 -213 91 -213 3 0 -6 26 -22 58 -15 31 -40 102 -55 157 -23
87 -27 118 -26 240 1 116 5 156 26 230 77 280 89 335 94 425 3 53 0 121 -6
155 -13 70 -83 223 -106 231 -28 11 -27 -3 4 -39 21 -24 29 -41 24 -53 -5 -13
-3 -15 8 -9 8 5 7 1 -3 -12 -22 -24 -24 -40 -4 -24 12 10 17 8 25 -6 5 -11 6
-25 1 -33 -10 -15 -2 -42 10 -35 5 3 11 2 14 -3 3 -5 -2 -9 -10 -9 -19 0 -48
53 -34 62 6 3 10 11 10 17 0 7 -4 7 -13 0 -10 -8 -19 -3 -40 23 -29 36 -36 55
-14 36 8 -6 18 -7 22 -3 5 4 5 1 1 -6 -9 -15 2 -34 15 -27 5 4 5 14 -2 27 -8
15 -8 19 0 14 27 -17 8 5 -21 24 -27 18 -29 18 -11 2 23 -20 20 -40 -4 -21 -7
6 -13 8 -13 4 0 -4 -7 -2 -15 5 -18 15 -20 34 -2 24 6 -5 -1 7 -17 26 -30 37
-66 64 -50 39 4 -8 -7 -1 -26 15 -19 16 -70 46 -113 67 -43 21 -72 40 -65 43
7 3 0 4 -16 1 -29 -6 -166 15 -166 25 0 3 -15 6 -32 7 -30 1 -333 154 -361
182 -16 16 -67 171 -67 205 0 17 -9 71 -20 120 -24 108 -24 106 -5 78 9 -12
15 -27 14 -34 -4 -36 2 -69 12 -62 8 4 9 -1 4 -16 -4 -13 -3 -20 2 -17 12 8
37 -88 27 -104 -5 -8 -3 -9 6 -4 10 6 11 1 6 -21 -4 -18 -3 -24 2 -16 7 11 10
10 16 -3 8 -23 8 -27 -3 -21 -5 4 -4 -5 2 -19 7 -13 23 -27 37 -31 22 -6 23
-7 6 -13 -17 -6 -15 -9 12 -20 18 -7 30 -17 27 -21 -2 -3 12 -14 31 -24 20 -9
33 -12 29 -6 -8 12 66 -30 80 -46 20 -23 85 -55 96 -48 7 4 9 3 5 -4 -4 -7 5
-9 31 -6 29 4 34 3 23 -5 -13 -9 -11 -11 7 -11 28 0 35 20 14 44 -13 17 -11
17 13 -2 16 -12 36 -22 45 -22 13 -1 13 -3 -4 -17 l-20 -16 20 8 c11 4 29 9
40 12 16 3 15 1 -5 -12 -20 -13 -21 -15 -5 -12 11 3 29 8 40 12 l20 7 -20 -17
c-20 -17 -20 -17 5 -10 39 12 92 6 111 -11 10 -9 23 -13 30 -8 7 4 10 3 6 -3
-3 -5 13 -21 35 -36 44 -28 60 -29 37 0 -11 13 -11 15 -1 9 8 -5 22 -22 33
-40 l19 -31 -6 33 c-6 29 -4 32 19 32 27 0 60 -28 136 -115 25 -27 41 -44 37
-37 -4 6 -5 12 -2 12 9 0 69 -92 71 -109 3 -34 17 -71 25 -66 5 3 6 -5 2 -17
-3 -13 -1 -19 5 -15 7 5 9 -1 5 -15 -4 -16 -2 -19 8 -13 10 6 11 -1 7 -31 -5
-27 -4 -33 2 -19 6 13 8 -7 6 -60 -2 -66 -1 -70 4 -25 l7 55 5 -45 6 -45 2 50
c1 28 6 59 11 70 6 14 8 3 5 -35 l-4 -55 13 65 c7 36 9 69 4 75 -4 5 -8 17 -8
28 0 10 -4 16 -9 13 -5 -4 -12 7 -16 24 -4 17 -11 28 -16 25 -5 -4 -6 2 -2 12
6 16 5 16 -10 4 -15 -12 -17 -12 -11 2 3 8 0 26 -7 39 -12 23 -12 23 9 5 31
-28 89 -153 108 -233 17 -71 17 -72 -5 -102 -37 -53 -82 -162 -108 -262 -65
-256 -3 -584 134 -716 26 -24 43 -44 39 -44 -5 0 -3 -7 4 -15 15 -18 34 -20
24 -2 -5 8 -3 8 9 -2 9 -7 14 -17 12 -22 -6 -9 50 -41 58 -33 7 7 67 -27 67
-37 0 -8 92 -41 106 -38 5 1 25 0 44 -1 32 -2 33 -3 10 -9 -14 -4 38 -6 115
-5 92 1 123 0 90 -5 l-50 -8 51 -1 c35 -2 60 -9 78 -23 15 -12 30 -19 33 -16
3 3 -10 15 -28 26 -19 12 -28 21 -21 21 21 0 102 -81 102 -102 0 -10 4 -17 9
-13 12 7 25 -13 26 -39 2 -17 -1 -15 -20 7 -24 31 -40 26 -23 -7 6 -13 -6 -6
-30 18 -23 22 -39 43 -37 46 3 4 -3 14 -12 21 -9 8 -14 10 -11 4 10 -17 -211
-6 -246 12 -16 8 -61 24 -100 35 -99 27 -178 72 -251 142 -34 34 -60 54 -58
46 3 -8 -4 -4 -16 10 -18 22 -23 33 -23 50 0 3 -9 14 -20 25 -20 20 -20 19 0
-20 11 -22 32 -55 46 -74 17 -23 23 -38 16 -46 -7 -8 -5 -12 5 -12 7 0 14 3
13 6 -2 23 7 21 40 -11 20 -20 62 -53 92 -72 56 -37 61 -48 11 -21 -16 8 -31
12 -34 8 -7 -7 57 -60 90 -76 12 -5 20 -13 18 -18 -3 -4 3 -10 13 -13 23 -8
48 -55 27 -52 -7 1 -21 8 -31 16 -9 8 -20 14 -23 13 -3 -2 -6 0 -6 5 0 14 -32
52 -38 45 -9 -8 -48 27 -42 38 3 4 0 11 -6 15 -8 5 -9 3 -4 -6 6 -9 4 -11 -4
-6 -7 5 -10 11 -7 14 3 3 0 12 -7 20 -10 13 -9 14 3 7 8 -5 4 5 -10 22 -14 17
-28 28 -33 26 -4 -2 3 -13 15 -23 15 -12 18 -19 9 -20 -11 0 -11 -3 0 -18 7
-9 1 -6 -13 7 -15 13 -25 27 -23 31 5 9 -40 52 -47 45 -2 -3 -13 5 -24 17 -10
12 -14 19 -8 15 6 -3 -12 29 -40 72 -28 43 -54 77 -57 75 -10 -6 -48 114 -42
138 4 18 3 20 -6 8 -9 -12 -11 -9 -9 15 1 17 0 44 -1 60 -3 30 -3 30 -10 5
-12 -40 -34 141 -28 224 3 43 2 61 -3 46 -13 -41 -11 -200 4 -270 33 -153 83
-270 155 -360 50 -64 142 -155 152 -153 5 2 8 -2 6 -7 -1 -6 9 -16 22 -23 13
-6 23 -16 23 -22 -1 -16 30 -45 41 -38 5 3 7 1 3 -5 -3 -6 5 -23 20 -39 14
-15 23 -22 19 -15 -3 6 -2 12 3 12 6 0 13 -7 16 -15 5 -14 -3 -16 -50 -13 -48
3 -59 7 -71 28 -13 21 -13 22 -1 8 8 -10 19 -14 23 -10 5 4 6 2 2 -3 -3 -6 3
-12 14 -12 10 -1 19 3 19 9 0 6 -3 8 -6 5 -4 -3 -18 2 -32 13 -13 11 -28 18
-32 15 -4 -2 -15 4 -25 15 -10 11 -14 20 -9 20 5 0 -2 7 -14 16 -12 8 -27 12
-32 9 -6 -4 -9 -3 -8 2 2 4 0 8 -4 8 -4 0 -25 18 -48 40 -49 48 -51 40 -5 -21
28 -36 33 -49 24 -60 -7 -8 -7 -14 -2 -14 6 0 9 -17 7 -37 -2 -27 0 -33 7 -23
8 12 12 12 16 2 2 -6 9 -9 15 -6 6 4 9 1 6 -7 -3 -9 -19 -14 -43 -14 -38 0
-38 0 -54 60 -10 33 -34 85 -55 115 -51 75 -53 75 -17 2 18 -34 29 -68 25 -74
-4 -6 -3 -8 3 -5 6 4 15 -10 21 -33 8 -32 7 -40 -4 -40 -8 0 -11 6 -7 18 5 14
3 15 -8 5 -18 -18 -34 -16 -19 2 6 8 10 20 7 27 -3 8 -6 6 -6 -5 -1 -10 -5
-15 -11 -12 -5 3 -10 -2 -10 -12 -1 -12 -5 -8 -15 12 -9 18 -13 21 -9 8 3 -15
-1 -25 -15 -32 -27 -15 -29 -14 -34 12 l-4 22 -2 -22 c0 -13 -7 -23 -15 -23
-11 0 -13 10 -9 39 6 42 -17 135 -41 166 -14 18 -14 16 -1 -22 13 -39 11 -152
-3 -138 -8 8 -32 -16 -26 -26 3 -5 -2 -9 -10 -9 -19 0 -19 -1 -1 43 21 50 18
102 -10 172 -28 71 -31 66 -9 -17 14 -57 16 -102 3 -96 -3 2 -13 -3 -22 -11
-18 -15 -13 -35 6 -25 7 4 8 3 4 -1 -10 -12 -38 -15 -31 -4 3 5 1 9 -4 9 -16
0 -22 -13 -11 -26 16 -20 -50 -34 -103 -22 -24 5 -69 7 -100 5 -32 -2 -58 -2
-58 0 0 2 15 10 33 18 31 14 30 14 -35 11 -36 -1 -72 -7 -80 -13 -7 -6 -17
-11 -23 -11 -5 0 -11 -5 -13 -10 -5 -15 50 -11 74 5 21 13 22 13 16 -9 -4 -19
-3 -21 9 -12 8 6 23 9 34 7 109 -25 217 -25 266 1 23 12 25 11 25 -8 -1 -18 4
-21 40 -18 31 2 43 -1 48 -13 5 -15 18 -16 99 -10 79 6 95 5 106 -9 15 -18 86
-22 110 -7 12 8 13 18 4 55 -6 25 -8 46 -5 46 4 0 25 -20 48 -45 40 -45 41
-45 106 -45 57 0 66 3 71 20 7 27 56 27 123 -1 40 -17 62 -20 98 -15 55 9 59
24 21 80 l-24 36 70 0 69 0 57 -55 c52 -52 59 -56 97 -53 68 5 60 26 -74 193
-66 82 -128 153 -136 158 -18 10 -63 -1 -149 -36 -33 -14 -85 -28 -115 -32
-48 -6 -60 -3 -90 17 -74 50 -137 185 -147 320 -7 90 0 123 48 202 23 38 48
88 56 112 10 29 25 49 48 62 21 13 37 33 45 56 6 20 20 38 32 41 11 4 26 21
33 38 8 18 42 62 77 98 35 36 85 90 112 120 60 67 79 78 137 79 58 0 71 14 59
63 -11 51 -27 67 -66 67 -23 0 -37 6 -44 19 -15 28 79 131 120 131 32 0 44
-13 54 -55 9 -36 24 -55 42 -55 24 0 16 52 -12 81 l-26 27 48 8 c41 6 50 4 59
-11 17 -30 63 -80 68 -75 3 3 2 23 -2 45 -5 34 -11 41 -39 50 -41 12 -41 25
-1 25 31 0 118 47 119 64 1 21 -95 -6 -143 -41 l-51 -36 27 32 c21 25 25 39
21 59 -9 37 -10 37 -38 9 -18 -18 -26 -37 -26 -61 0 -41 -27 -61 -67 -51 l-26
6 20 22 c19 20 39 87 27 87 -20 0 -45 -26 -59 -65 -10 -24 -28 -51 -40 -59
l-23 -15 16 42 c21 56 53 89 122 126 75 40 96 40 105 1 6 -25 30 -50 48 -50 3
0 4 21 3 46 -1 43 0 45 21 40 13 -3 34 -9 48 -12 24 -6 65 17 65 36 0 16 -61
19 -94 5 -42 -18 -106 -20 -106 -4 0 7 14 9 38 7 41 -5 95 9 86 23 -3 5 -14 9
-25 9 -10 0 -19 5 -19 10 0 6 11 10 25 10 14 0 25 5 25 10 0 6 7 10 15 10 13
0 15 7 9 38 -3 20 -7 39 -7 42 -1 3 16 22 36 43 41 43 46 57 19 57 -22 0 -58
-32 -66 -58 -4 -10 -22 -26 -40 -35 l-35 -16 30 44 c17 25 36 48 44 52 7 5 17
20 20 36 6 24 5 26 -11 21 -11 -4 -25 -12 -32 -18 -10 -7 -16 -5 -24 7 -5 10
-13 15 -19 12 -5 -4 -9 5 -9 19 0 62 -54 3 -56 -61 -1 -28 -10 -56 -22 -73
-11 -15 -24 -44 -28 -65 -12 -64 -108 -205 -139 -205 -13 0 -35 42 -35 68 0
23 19 42 43 42 23 0 81 46 67 55 -5 3 -22 3 -37 -1 l-28 -7 24 27 c14 14 32
26 41 26 9 0 25 6 36 14 18 14 18 15 1 22 -10 3 -36 0 -58 -9 -30 -12 -39 -12
-39 -3 0 7 19 18 42 25 50 15 90 40 83 52 -6 9 -60 1 -87 -13 -23 -11 -22 1 1
30 11 12 28 22 39 22 22 0 84 39 90 58 6 18 -49 15 -76 -4 -13 -9 -22 -11 -22
-4 0 6 13 15 28 21 18 6 35 24 46 46 17 35 17 35 -4 30 -15 -4 -19 -2 -12 6
13 17 23 77 13 77 -5 0 -22 -15 -37 -32 -15 -18 -36 -39 -48 -47 -20 -14 -20
-14 -5 5 15 17 23 84 11 84 -3 0 -13 -7 -22 -15 -15 -14 -18 -13 -30 10 -16
29 -28 32 -37 8 -4 -10 -13 -24 -20 -31 -7 -7 -13 -22 -13 -32 0 -24 -18 -36
-33 -21 -16 16 -27 14 -28 -6 0 -15 -2 -15 -9 2 -4 11 -20 31 -34 44 l-26 24
0 -27 c0 -15 10 -42 22 -59 l22 -30 -42 5 c-23 4 -42 2 -42 -3 0 -17 40 -49
63 -49 32 0 44 -11 62 -55 15 -39 15 -39 -2 -19 -18 22 -93 43 -93 26 0 -14
43 -50 73 -61 20 -8 27 -17 27 -38 l0 -27 -16 22 c-8 12 -25 22 -36 22 -12 0
-30 8 -41 18 -20 17 -20 16 -14 -30 l7 -48 -35 0 c-19 0 -35 -4 -35 -9 0 -14
55 -51 77 -51 10 0 24 -10 32 -22 14 -22 14 -22 -12 -5 -24 16 -57 14 -57 -3
0 -4 -10 -10 -22 -14 -19 -5 -21 -8 -8 -16 21 -13 66 -12 90 2 30 19 71 -17
94 -82 l20 -53 -29 -51 c-15 -28 -43 -72 -62 -97 -18 -26 -33 -51 -33 -57 0
-20 -50 -110 -64 -115 -20 -8 -27 42 -20 132 l6 76 -52 100 c-29 55 -66 126
-83 158 -27 52 -29 61 -19 95 6 20 14 81 18 136 7 98 7 98 48 142 47 50 192
126 286 150 58 15 62 14 205 -20 81 -19 151 -38 157 -44 5 -5 11 -26 13 -47 2
-21 12 -47 23 -58 38 -37 58 9 24 54 -22 28 -34 59 -24 59 4 0 24 -5 45 -11
30 -8 45 -22 74 -66 33 -53 35 -59 23 -87 -18 -45 -22 -79 -11 -96 13 -20 22
-9 35 45 12 44 12 44 34 29 30 -21 27 -52 -8 -94 -20 -23 -30 -45 -30 -67 0
-18 3 -33 8 -33 11 1 43 48 52 78 6 20 8 11 9 -38 0 -88 -15 -115 -67 -116
-44 0 -72 -17 -72 -43 0 -14 7 -17 32 -13 30 5 32 3 19 -12 -7 -9 -27 -16 -44
-16 -30 0 -97 -42 -97 -61 0 -14 38 -11 73 7 l32 17 -32 -31 c-24 -21 -33 -39
-33 -61 0 -17 3 -31 8 -31 10 0 62 80 62 96 0 19 50 75 61 68 12 -7 0 -54 -23
-83 -18 -24 -25 -81 -10 -81 14 0 42 35 42 53 0 21 7 21 26 2 23 -23 31 -18
32 17 1 34 -22 88 -38 88 -16 0 -11 26 8 51 l19 22 6 -31 c9 -45 37 -43 37 2
0 19 -4 38 -10 41 -5 3 -10 13 -10 21 0 12 6 11 31 -6 21 -16 28 -27 23 -39
-23 -56 -27 -70 -20 -86 6 -17 7 -17 26 0 13 12 20 31 20 54 l0 36 20 -25 c30
-40 30 -56 -1 -86 -23 -22 -29 -36 -29 -71 0 -24 3 -43 8 -43 4 0 19 26 33 58
26 57 26 57 37 30 8 -20 8 -42 0 -82 -9 -43 -9 -59 0 -68 21 -21 43 20 37 70
-4 40 -4 42 15 32 15 -8 19 -17 14 -35 -7 -29 2 -75 15 -75 10 0 26 57 23 76
-3 17 46 24 52 8 8 -21 26 -17 26 5 0 11 4 22 8 25 5 3 7 19 4 37 -4 29 -3 30
16 20 18 -9 21 -7 26 23 4 18 3 41 0 50 -6 14 -2 16 22 10 16 -4 31 -7 34 -6
3 0 22 0 43 1 l38 1 -17 32 c-10 18 -20 47 -24 63 -4 17 -11 38 -15 47 -6 15
-2 16 32 11 49 -7 73 -20 73 -38 0 -19 33 -84 43 -85 11 0 8 22 -8 50 -21 37
-18 44 10 26 28 -19 35 -20 35 -6 0 18 -74 57 -120 64 l-45 6 -3 45 c-2 35 1
45 13 45 8 0 15 -9 15 -19 0 -11 12 -29 27 -40 28 -23 43 -21 23 4 -7 8 -9 22
-6 31 5 13 15 15 46 11 39 -5 55 8 25 19 -16 6 -21 44 -7 44 5 0 17 -9 28 -21
18 -20 18 -22 1 -51 -20 -35 -23 -88 -4 -88 6 0 20 -14 29 -30 9 -17 21 -30
26 -30 19 0 19 64 1 95 -11 16 -19 43 -19 59 0 28 1 29 19 12 11 -10 21 -32
23 -49 2 -20 9 -33 19 -35 27 -5 14 68 -16 93 l-25 21 36 13 c40 14 35 28 -11
33 -24 2 -30 9 -36 36 -6 28 -4 32 10 26 35 -15 58 -15 94 1 56 23 37 38 -42
33 l-66 -5 47 16 c51 18 70 31 45 31 -9 0 -17 5 -17 10 0 6 13 10 28 10 17 0
38 10 52 25 l23 25 -26 0 c-19 0 -25 4 -21 15 4 10 0 15 -11 15 -25 0 -55 -19
-55 -35 0 -18 -54 -71 -92 -91 -32 -16 -32 -8 0 29 27 31 -33 21 -70 -12 -28
-24 -37 -27 -56 -18 -28 13 -24 31 9 35 42 5 109 24 109 32 0 10 -59 21 -74
14 -6 -3 3 6 19 20 45 40 66 46 97 28 22 -13 33 -13 72 -2 50 14 58 25 25 35
-18 6 -16 9 20 33 45 29 51 42 21 42 -11 0 -20 5 -20 10 0 6 -12 10 -26 10
-22 0 -25 2 -14 15 7 8 16 12 21 9 5 -3 9 1 9 9 0 8 7 20 15 27 22 18 18 28
-12 33 l-28 4 28 2 c33 1 32 23 -1 31 -12 3 -30 21 -40 42 -16 31 -17 35 -3
30 9 -3 36 -25 61 -50 l45 -45 3 34 c3 25 -2 38 -19 52 -21 17 -21 18 -3 32
18 13 18 14 1 21 -10 4 -36 2 -56 -5 -62 -18 -70 -12 -17 13 l48 23 -23 22
c-12 11 -30 21 -38 21 -11 0 -12 3 -4 11 8 8 17 8 33 -1 24 -13 110 -5 110 10
0 21 -65 29 -129 16 -36 -8 -73 -11 -85 -6 -18 6 -17 8 14 14 82 17 162 50
177 73 9 13 13 26 10 29 -8 8 -69 -21 -94 -45 -27 -26 -46 -27 -41 -4 2 10 19
25 37 34 19 9 40 24 48 34 15 22 18 69 3 60 -6 -3 -10 1 -10 9 0 9 -3 16 -7
16 -5 0 -16 12 -27 26 l-18 26 32 -17 c33 -17 75 -17 75 0 0 5 -13 16 -30 25
-16 8 -32 17 -35 18 -3 2 5 12 18 22 27 22 28 30 2 30 -10 0 -35 -14 -55 -31
-19 -17 -35 -26 -35 -20 0 7 7 14 15 17 28 11 16 27 -16 20 l-31 -6 16 25 c14
21 14 25 2 25 -8 0 -17 -4 -20 -9 -3 -5 -17 -11 -31 -13 -25 -5 -25 -5 -9 13
9 11 23 19 31 19 8 0 13 6 12 13 -1 6 3 25 10 41 6 16 9 36 6 44 -4 12 -11 10
-34 -12 -25 -24 -31 -25 -57 -16 l-29 12 23 18 c12 10 22 21 22 25 0 9 -72 -6
-87 -17 -7 -6 -21 -7 -30 -3 -15 5 -11 10 21 27 56 29 135 26 183 -7 37 -24
73 -33 73 -17 0 10 -31 55 -44 64 -13 9 -161 -1 -200 -13 l-29 -9 24 23 c43
42 96 67 155 75 51 6 60 11 77 40 19 32 19 32 -1 32 -10 0 -37 -12 -58 -26
-43 -30 -94 -48 -94 -34 0 5 18 19 40 30 23 12 43 29 46 38 3 9 10 26 16 36 9
16 7 18 -12 13 -26 -7 -82 24 -72 39 4 6 16 14 27 18 14 6 16 10 7 13 -10 4
-8 9 5 19 17 13 17 13 0 14 -10 0 -26 -4 -36 -9 -10 -6 -23 -6 -31 -1 -12 7
-12 10 3 16 13 4 17 18 17 51 0 54 -20 55 -35 2 -5 -19 -20 -48 -32 -64 -19
-26 -22 -27 -23 -10 -1 24 -19 49 -42 58 -11 4 -18 17 -18 31 0 23 -3 25 -32
20 -25 -4 -29 -3 -18 5 8 6 27 11 43 11 24 0 27 3 23 25 -3 13 -7 29 -11 34
-3 6 9 8 32 4 l38 -5 -30 26 c-24 22 -37 25 -67 21 -45 -6 -48 5 -13 41 31 31
31 34 1 34 -13 0 -29 7 -36 15 -7 8 -21 15 -32 15 -19 0 -19 1 2 31 12 16 19
33 16 36 -10 10 -59 -30 -73 -59 -14 -28 -41 -54 -49 -46 -9 9 15 58 29 58 7
0 29 16 48 36 l34 37 -27 -5 c-30 -6 -29 -10 -13 67 3 14 1 25 -4 25 -16 0
-51 -51 -51 -75 0 -13 -6 -37 -13 -54 -13 -30 -13 -30 -30 -10 -16 19 -16 20
4 28 16 5 26 22 35 57 7 27 11 50 9 52 -7 7 -46 -24 -51 -40 -4 -13 -16 -18
-40 -18 -35 0 -35 0 -29 38 4 20 9 46 12 56 4 14 1 18 -10 13 -12 -4 -17 2
-19 25 -2 17 -8 33 -14 35 -17 6 -34 -51 -28 -94 l6 -38 -21 25 c-11 14 -21
36 -21 49 0 20 -2 21 -15 11 -22 -18 -19 -73 5 -95 20 -18 27 -45 11 -45 -5 0
-15 7 -22 16 -9 11 -24 15 -50 11 l-36 -5 14 42 c8 22 19 47 25 53 8 10 6 13
-5 13 -25 0 -57 -41 -57 -71 0 -14 -8 -33 -17 -40 -15 -13 -16 -11 -9 11 4 14
9 40 11 58 3 28 1 32 -16 27 -10 -4 -25 -2 -33 2 -13 7 -12 13 7 37 22 28 23
28 53 10 17 -10 38 -15 47 -11 16 6 15 9 -5 32 -12 14 -28 25 -35 25 -16 0
-16 5 -1 33 14 27 20 77 9 77 -11 0 -36 -30 -46 -55 -8 -19 -9 -19 -13 3 -2
17 -8 22 -19 18 -13 -5 -14 -4 -3 8 19 23 8 42 -13 22 -16 -16 -17 -15 -17 18
0 20 -4 36 -9 36 -12 0 -34 -67 -27 -79 3 -5 3 -17 -1 -28 -6 -14 -9 -9 -15
22 -5 22 -9 46 -10 53 -1 6 -6 12 -13 12 -6 0 -17 -6 -24 -12 -10 -11 -10 -8
-2 15 6 16 11 40 11 55 l0 27 -18 -23 c-10 -12 -29 -29 -44 -36 l-26 -14 9 32
c12 40 11 66 -1 66 -15 0 -40 -56 -40 -92 0 -49 -14 -64 -28 -33 -7 14 -12 35
-12 45 0 11 -4 20 -10 20 -5 0 -7 7 -4 15 8 21 -13 19 -25 -2 -8 -16 -11 -15
-30 7 -11 14 -20 35 -21 48 0 13 -4 20 -10 17 -5 -3 -10 -19 -10 -35 0 -30 -4
-32 -70 -45 -19 -4 -44 -15 -54 -24 -18 -15 -19 -14 -13 27 6 47 -9 54 -29 13
-10 -20 -13 -21 -27 -6 -15 14 -19 14 -49 -1 l-33 -16 29 31 30 31 -50 0 -49
1 38 20 c46 24 47 39 3 39 -21 0 -42 -9 -60 -25 l-26 -24 0 34 c0 19 -5 35
-11 35 -6 0 -8 9 -4 20 7 23 -3 25 -40 8 -14 -6 -28 -23 -32 -36 l-6 -25 -16
29 c-9 16 -25 30 -35 32 -16 3 -18 -1 -13 -27 6 -26 3 -31 -13 -31 -24 0 -26
-13 -5 -30 9 -7 15 -29 15 -52 l0 -39 -27 21 c-16 11 -43 23 -62 26 -49 10
-37 -12 29 -58 61 -40 81 -69 32 -44 -17 9 -36 16 -42 16 -18 0 -10 -28 14
-47 l24 -19 -46 -43 c-24 -24 -41 -35 -37 -25 5 11 11 45 13 77 4 67 -11 77
-29 17 l-12 -40 -22 20 c-12 11 -27 20 -33 20 -24 0 -11 -37 23 -67 19 -17 35
-39 35 -49 0 -15 -3 -15 -23 4 -29 27 -37 28 -37 2 0 -12 12 -32 26 -45 24
-22 25 -27 14 -60 -13 -38 -30 -47 -30 -15 0 24 -24 76 -49 104 -12 14 -13 20
-3 23 22 8 13 33 -13 33 -19 0 -25 5 -25 22 0 36 40 107 77 136 35 27 92 122
73 122 -5 0 -10 14 -10 31 0 20 -4 29 -12 26 -8 -2 -13 -25 -14 -61 -1 -32 -7
-63 -14 -69 -10 -9 -11 -7 -6 10 4 13 3 30 -2 39 -9 15 -10 15 -17 -6 -7 -23
-8 -23 -21 8 -7 18 -18 32 -25 32 -10 0 -10 -24 4 -100 2 -14 2 -17 0 -7 -6
23 -19 22 -38 -5 -17 -23 -17 -23 -11 7 18 81 23 121 17 133 -5 9 -11 5 -20
-14 l-12 -27 -16 24 c-9 13 -22 27 -27 31 -14 10 -36 10 -36 0z m511 -92 c-5
-41 -10 -56 -23 -58 -21 -4 -24 18 -6 36 10 10 10 14 0 21 -10 6 -8 14 9 35
12 15 22 26 24 24 1 -2 -1 -28 -4 -58z m39 -69 c0 -14 -9 -20 -35 -23 -19 -2
-35 -3 -35 -1 0 3 63 43 68 43 1 0 2 -9 2 -19z m50 -1 c-6 -11 -12 -20 -14
-20 -2 0 -2 9 1 20 3 11 9 20 15 20 5 0 4 -9 -2 -20z m-161 -36 c-20 -33 -23
-35 -30 -18 -5 14 0 25 19 41 35 30 39 22 11 -23z m486 -12 c-22 -5 -27 1 -19
23 7 17 8 17 21 -1 12 -17 12 -19 -2 -22z m-1229 14 c3 -8 1 -23 -5 -33 -9
-16 -10 -15 -11 9 0 14 -6 29 -12 31 -8 3 -6 6 5 6 10 1 20 -5 23 -13z m432
-11 c-10 -23 -28 -34 -28 -18 0 7 31 43 36 43 2 0 -2 -11 -8 -25z m567 -25
c-1 -40 -6 -56 -27 -77 -31 -31 -48 -23 -48 22 0 27 8 42 38 70 20 19 37 35
38 35 0 0 0 -23 -1 -50z m164 28 c-25 -49 -72 -88 -106 -88 -18 0 -33 3 -33 8
1 17 28 41 56 48 16 4 43 18 59 30 37 29 38 29 24 2z m-129 -25 c-11 -17 -11
-17 -6 0 3 10 6 24 7 30 0 9 2 9 5 0 3 -7 0 -20 -6 -30z m-199 -9 c-19 -25
-21 -25 -21 -6 0 12 8 25 17 31 26 14 28 5 4 -25z m-1051 -33 c0 -24 -1 -24
-15 -5 -8 10 -14 30 -14 44 0 24 0 24 14 6 8 -11 15 -31 15 -45z m325 41 c-3
-8 -5 -30 -5 -49 0 -31 -2 -34 -15 -23 -11 9 -12 16 -5 25 12 14 3 26 -14 19
-7 -3 -23 -1 -35 4 -20 7 -21 10 -9 23 19 18 90 19 83 1z m798 -2 c-6 -22 -11
-24 -32 -11 -11 7 -10 11 5 20 27 15 33 14 27 -9z m-957 -37 c-5 -12 -10 -13
-17 -6 -8 8 -7 18 2 34 12 21 14 22 17 6 2 -10 1 -25 -2 -34z m822 -50 c-16
-20 -24 -16 -38 17 -12 28 -10 33 11 56 l24 26 6 -44 c4 -24 2 -49 -3 -55z
m653 44 c-17 -17 -24 -1 -9 22 11 18 14 19 16 5 2 -9 -1 -21 -7 -27z m-200 12
c8 -15 8 -19 0 -15 -6 4 -23 14 -39 22 l-27 14 27 0 c18 0 31 -8 39 -21z m94
-49 c-11 -17 -23 -11 -29 15 -10 39 4 53 21 21 8 -14 11 -31 8 -36z m-1108 30
c2 0 3 -3 3 -7 0 -12 -54 -10 -62 2 -14 20 -8 24 24 14 18 -5 34 -9 35 -9z
m963 1 c5 -11 19 -23 31 -26 16 -5 18 -10 9 -20 -10 -12 -18 -12 -53 2 -54 21
-53 20 -32 43 23 25 32 25 45 1z m-297 0 c35 -14 52 -61 37 -105 -6 -20 -18
-36 -25 -36 -8 0 -22 -12 -30 -27 -9 -16 -14 -20 -11 -10 7 22 -28 107 -43
107 -6 0 -8 -19 -4 -47 4 -40 2 -51 -16 -67 -16 -15 -21 -16 -21 -5 0 8 5 20
12 27 15 15 -7 43 -28 35 -26 -10 -15 24 16 51 29 24 32 24 65 10 19 -7 41
-14 50 -14 29 0 15 22 -25 37 -34 14 -38 18 -29 34 11 21 18 23 52 10z m-823
-58 c0 -29 -3 -52 -7 -51 -5 1 -17 -1 -28 -5 -11 -4 -33 -3 -50 1 l-30 9 48
21 c54 24 63 44 15 36 -18 -3 -38 -7 -45 -9 -15 -5 -6 25 12 40 7 6 28 10 48
10 l37 0 0 -52z m1323 43 c4 -9 -3 -16 -19 -19 -24 -4 -24 -3 -8 14 20 23 20
23 27 5z m90 -10 c-10 -13 -20 -22 -22 -20 -4 4 29 44 36 44 2 0 -4 -11 -14
-24z m-748 -6 c4 -6 4 -28 0 -49 -4 -27 -12 -41 -27 -44 -14 -4 -18 -2 -14 10
3 8 9 32 12 54 6 39 17 49 29 29z m-939 -30 c7 -14 15 -45 18 -70 5 -34 4 -39
-4 -22 -7 17 -18 22 -45 22 -23 0 -35 -5 -35 -13 0 -17 28 -43 58 -51 12 -4
22 -10 22 -14 0 -14 -29 -96 -29 -85 -1 6 -19 33 -41 58 -43 50 -49 78 -24
113 12 18 13 29 6 52 -9 24 -8 30 6 33 34 10 57 2 68 -23z m1282 13 c5 -10 12
-47 16 -83 l6 -65 -20 25 c-11 14 -20 28 -20 33 0 4 -5 7 -11 7 -7 0 -9 -9 -6
-21 l5 -20 -35 21 c-20 11 -36 20 -37 18 -1 -2 -9 -19 -18 -38 l-17 -35 0 32
c-1 25 5 36 27 48 31 17 72 50 72 59 0 15 -46 4 -67 -16 -14 -13 -22 -16 -18
-8 8 22 67 60 92 60 12 0 26 -8 31 -17z m232 -25 c0 -9 -5 -20 -11 -24 -18
-11 -28 17 -16 43 8 17 13 20 19 11 4 -7 8 -21 8 -30z m-166 16 c20 -20 21
-68 0 -85 -13 -11 -14 -9 -9 14 4 16 1 38 -8 57 -17 32 -8 40 17 14z m-974
-13 c0 -18 -3 -19 -30 -10 -34 12 -31 29 6 29 17 0 24 -5 24 -19z m1204 -6
c11 -8 32 -15 48 -15 23 0 28 -4 27 -22 0 -13 -4 -31 -8 -41 -6 -17 -8 -16
-19 7 -19 42 -29 30 -21 -26 6 -47 4 -57 -18 -85 -13 -18 -28 -33 -34 -33 -12
0 -12 27 1 35 15 9 12 25 -5 25 -20 0 -19 12 5 43 11 14 20 30 20 37 0 7 -8 9
-20 5 -18 -6 -20 -2 -20 33 0 54 10 63 44 37z m122 -13 c-17 -16 -18 -16 -5 5
7 12 15 20 18 17 3 -2 -3 -12 -13 -22z m70 -9 c-3 -3 -13 -3 -22 1 -13 5 -14
9 -3 22 11 14 13 14 22 -1 5 -9 6 -19 3 -22z m-922 -54 c-39 -43 -52 -5 -16
47 l27 39 3 -33 c2 -22 -3 -41 -14 -53z m1006 72 c0 -6 -4 -13 -10 -16 -5 -3
-10 1 -10 9 0 9 5 16 10 16 6 0 10 -4 10 -9z m-48 -58 c-8 -23 -18 -14 -16 15
2 44 6 49 13 22 4 -14 6 -31 3 -37z m-1933 16 c13 -37 14 -69 4 -69 -18 1 -35
19 -31 31 3 8 1 26 -3 42 -11 39 16 36 30 -4z m591 13 c0 -14 -11 -21 -26 -15
-8 3 -11 9 -8 14 7 11 34 12 34 1z m-332 -14 c7 -7 11 -23 11 -37 -2 -24 -2
-24 -6 -3 -3 14 -12 22 -24 22 -19 0 -25 11 -12 23 9 10 17 9 31 -5z m191 8
c-2 -2 -15 -9 -29 -15 -24 -11 -24 -11 -6 3 16 13 49 24 35 12z m201 -27 c19
-45 0 -97 -49 -131 -22 -16 -41 -28 -43 -28 -12 0 13 114 33 149 27 49 42 51
59 10z m-749 -9 c14 0 49 -28 38 -31 -36 -8 -59 -2 -59 13 0 10 -6 18 -14 18
-7 0 -19 7 -26 15 -11 14 -9 14 16 0 16 -8 36 -15 45 -15z m482 13 c-3 -10
-19 -49 -36 -86 l-30 -68 -18 58 c-10 31 -16 59 -14 61 3 3 91 47 102 51 1 1
0 -7 -4 -16z m1478 0 c16 -10 29 -24 29 -33 0 -21 -35 -72 -43 -63 -12 11 -8
23 8 23 20 0 19 6 -5 30 -11 11 -30 20 -42 20 -20 0 -21 1 -3 20 22 24 20 24
56 3z m-1351 -8 c21 -11 31 -24 32 -43 3 -44 -2 -85 -13 -121 l-11 -34 -21 47
c-11 26 -25 45 -31 43 -15 -6 -8 -77 10 -105 14 -22 12 -26 -53 -93 l-68 -71
-6 49 c-4 27 -9 59 -13 71 -6 19 -1 25 36 41 24 10 49 28 56 40 12 20 10 21
-27 21 -30 0 -44 -6 -55 -22 -22 -30 -20 -16 6 56 26 74 38 93 75 116 35 23
47 24 83 5z m255 -6 c-4 -5 1 -20 12 -32 l18 -22 -22 19 c-24 20 -31 46 -12
46 5 0 7 -5 4 -11z m829 -47 c-8 -48 -16 -52 -32 -17 -16 36 -15 52 6 64 25
14 34 0 26 -47z m-896 -9 c-28 -30 -33 -23 -18 23 12 35 14 36 26 19 12 -16
11 -22 -8 -42z m347 46 c4 -6 5 -12 2 -15 -7 -7 -37 7 -37 17 0 13 27 11 35
-2z m455 2 c0 -5 -7 -12 -16 -15 -14 -5 -15 -4 -4 9 14 17 20 19 20 6z m-1253
-37 c25 -16 49 -87 56 -169 6 -58 5 -59 -12 -39 -12 16 -29 22 -59 22 -38 1
-41 -1 -32 -19 6 -10 22 -22 35 -25 29 -7 24 -21 -13 -36 l-27 -10 24 -9 c20
-8 31 -5 54 11 16 12 31 19 34 16 25 -25 18 -184 -7 -177 -41 11 -70 12 -70 3
0 -6 16 -29 35 -52 20 -24 33 -50 31 -59 -3 -9 -8 -33 -12 -53 -3 -21 -10 -38
-14 -38 -4 0 -23 39 -43 88 -32 75 -36 94 -30 139 6 53 -13 103 -39 103 -10 0
-6 -52 8 -97 3 -10 -6 0 -19 22 -14 22 -34 51 -45 65 l-20 25 25 68 c24 64 27
67 57 67 18 0 41 6 52 14 18 14 18 16 1 33 -14 14 -22 15 -46 6 l-29 -10 13
41 c7 22 16 54 19 69 6 23 10 27 29 22 12 -4 32 -13 44 -21z m674 -68 c-17
-54 -18 -56 -30 -33 -11 21 -10 32 10 77 19 44 24 49 30 32 4 -11 0 -43 -10
-76z m127 -19 c4 -50 3 -51 -15 -36 -10 9 -28 20 -40 23 -31 10 -30 -11 2 -59
l26 -37 -18 -54 -18 -54 -35 65 -35 65 23 87 c13 48 29 91 35 95 6 3 24 -5 41
-19 25 -21 31 -34 34 -76z m575 88 c-3 -9 -8 -14 -10 -11 -3 3 -2 9 2 15 9 16
15 13 8 -4z m-445 -105 l-3 -34 -18 28 c-17 25 -17 32 -5 73 l13 45 8 -39 c4
-21 7 -54 5 -73z m196 45 c-9 -5 -29 -20 -44 -32 -24 -20 -29 -21 -34 -7 -11
27 -7 45 17 74 l22 28 28 -27 c26 -23 27 -27 11 -36z m429 39 c-1 -10 2 -31 8
-46 9 -22 8 -32 -9 -52 -21 -28 -32 -25 -32 10 0 13 -4 25 -9 29 -18 10 -33
-35 -26 -76 5 -27 3 -45 -6 -56 -12 -13 -15 -9 -26 32 -10 40 -9 50 3 62 23
24 74 101 74 113 0 6 6 10 13 7 6 -2 11 -13 10 -23z m139 9 c23 -20 24 -76 2
-94 -15 -12 -16 -11 -11 6 4 11 3 33 -1 49 -7 25 -9 27 -21 12 -8 -9 -17 -31
-20 -49 -5 -24 -13 -33 -31 -36 -24 -3 -24 -2 -9 15 9 11 26 40 37 67 23 52
27 54 54 30z m-1202 -1 c0 -4 -10 -13 -22 -21 -23 -14 -23 -14 -4 8 20 22 26
25 26 13z m785 -1 c-16 -16 -97 -31 -92 -18 4 12 41 23 82 26 12 1 15 -3 10
-8z m-415 -20 c15 -28 13 -33 -10 -21 -11 6 -20 17 -20 25 0 21 17 18 30 -4z
m147 -27 c9 -39 8 -51 -11 -87 -27 -54 -25 -51 -32 -45 -3 3 4 23 15 44 12 21
21 52 21 68 0 25 -2 27 -16 15 -8 -7 -21 -26 -29 -43 l-13 -31 -1 36 c-1 34
29 89 48 89 4 0 12 -21 18 -46z m-1218 22 c9 -11 7 -15 -11 -20 -42 -11 -50
-8 -36 14 15 23 31 26 47 6z m1526 -42 c26 -91 8 -93 -49 -3 l-23 36 26 10
c14 6 27 11 28 12 1 1 9 -24 18 -55z m-1651 31 c-4 -8 -10 -12 -15 -9 -11 6
-2 24 11 24 5 0 7 -7 4 -15z m1708 -23 c-11 -15 -22 -34 -26 -42 -3 -8 -4 0
-1 19 6 38 23 64 36 55 5 -3 1 -17 -9 -32z m-847 18 c8 -13 -5 -13 -25 0 -13
8 -13 10 2 10 9 0 20 -4 23 -10z m75 -22 c0 -12 -28 3 -34 18 -4 11 -2 12 14
1 11 -6 20 -15 20 -19z m1349 -14 c-18 -22 -22 -11 -7 22 10 21 14 24 16 10 2
-9 -2 -24 -9 -32z m-727 6 c9 -23 8 -23 -12 -5 -22 20 -27 39 -8 33 6 -2 15
-15 20 -28z m-1617 -77 l13 -52 -32 6 c-42 8 -42 8 -20 48 16 30 17 38 5 56
-11 18 -11 23 1 30 9 6 14 2 16 -14 2 -12 9 -45 17 -74z m885 82 c0 -13 -4
-14 -20 -5 -11 6 -20 13 -20 15 0 3 9 5 20 5 11 0 20 -7 20 -15z m-968 -20
c-2 -11 -5 -30 -5 -43 -2 -20 -3 -21 -14 -5 -7 9 -13 30 -13 46 0 22 4 28 18
25 11 -2 16 -11 14 -23z m189 1 c-7 -8 -16 -27 -21 -43 l-8 -28 -1 34 c-1 21
5 38 16 47 22 15 30 10 14 -10z m717 11 c9 -10 3 -12 -26 -9 l-37 4 25 -25
c14 -14 44 -32 67 -39 41 -14 42 -15 23 -30 -17 -16 -20 -15 -35 8 -20 32 -49
33 -39 2 7 -23 6 -23 -14 -5 -11 10 -31 17 -44 15 -22 -3 -20 -6 26 -56 l49
-52 -30 -11 c-27 -9 -53 -43 -53 -69 0 -15 21 -12 41 6 16 15 18 12 31 -33 8
-26 14 -49 12 -51 -3 -5 -57 30 -66 42 -4 6 -10 7 -14 4 -9 -10 15 -67 34 -77
13 -7 7 -18 -29 -60 -38 -44 -45 -48 -54 -33 -8 14 -11 11 -15 -18 -4 -26 -10
-34 -22 -32 -11 2 -18 -6 -21 -20 -2 -13 -3 -8 -1 11 2 20 14 46 29 61 22 23
26 35 23 71 l-4 44 -22 -45 -23 -45 6 68 c3 37 8 82 12 99 10 52 -14 24 -39
-44 -19 -54 -23 -59 -29 -37 -10 40 -29 70 -40 64 -16 -11 -10 -71 11 -98 11
-14 20 -34 20 -45 0 -11 7 -39 15 -62 8 -23 15 -44 15 -45 0 -2 -13 -5 -29 -7
-23 -3 -27 -1 -24 13 5 19 -27 98 -39 99 -5 0 -8 -22 -8 -49 0 -44 -2 -49 -25
-53 -31 -6 -31 -1 -6 100 10 43 22 97 26 122 6 36 16 53 51 84 l44 39 23 -21
c28 -26 72 -38 82 -22 12 20 -17 61 -47 67 -15 3 -28 7 -28 10 0 12 88 113
122 141 44 35 60 39 76 19z m-792 -43 c-4 -20 -10 -34 -12 -31 -3 3 -2 21 2
41 3 21 9 35 11 32 3 -3 2 -21 -1 -42z m2185 36 c12 -7 19 -21 19 -42 0 -17 5
-47 12 -65 10 -28 10 -36 -5 -50 -17 -17 -17 -16 -11 16 5 25 4 32 -5 27 -6
-4 -14 0 -17 8 -9 24 -24 19 -24 -8 0 -13 -7 -30 -17 -37 -15 -13 -16 -11 -10
11 3 14 2 32 -3 40 -14 22 -31 0 -37 -49 -4 -31 -15 -49 -44 -76 -39 -35 -69
-45 -69 -24 0 6 -8 8 -17 5 -11 -4 -7 4 10 19 15 14 36 25 47 25 19 0 67 66
56 77 -3 4 -20 -3 -36 -16 l-30 -22 0 48 -1 48 -20 -25 c-16 -19 -19 -33 -15
-61 4 -27 1 -40 -12 -52 -17 -15 -18 -14 -14 18 2 19 1 42 -2 51 -5 14 -9 14
-22 3 -13 -11 -15 -25 -10 -74 8 -80 -6 -101 -24 -34 -13 45 -15 49 -27 33
-16 -22 -17 -68 -2 -96 9 -16 8 -24 -5 -36 -24 -24 -31 -7 -30 77 l0 77 65 66
c61 63 68 66 124 73 50 7 65 5 100 -14 43 -22 75 -27 75 -11 0 6 -6 10 -14 10
-17 0 -76 32 -76 42 0 6 45 25 63 27 5 1 17 -4 28 -9z m-1976 -42 c8 -31 -9
-37 -46 -18 -16 9 -19 7 -19 -12 0 -12 9 -31 20 -43 12 -12 17 -28 14 -41 -5
-20 -6 -20 -55 3 -63 30 -69 46 -34 83 16 17 25 35 22 44 -5 12 3 16 36 18 50
4 54 1 62 -34z m1044 17 c11 -11 7 -13 -23 -12 -28 1 -36 5 -36 20 0 14 5 17
23 12 12 -4 28 -13 36 -20z m244 -1 c25 -12 39 -14 53 -6 14 8 32 3 79 -21
l60 -31 -33 -7 c-79 -16 -62 -51 22 -47 47 3 51 1 70 -32 19 -32 19 -34 2 -20
-19 15 -106 21 -106 7 0 -13 64 -47 91 -47 26 0 57 -25 46 -36 -3 -4 -20 -1
-38 5 -18 6 -34 9 -37 6 -9 -9 29 -56 54 -65 20 -8 24 -16 24 -52 0 -43 -2
-43 -38 6 -18 23 -23 26 -28 12 -9 -24 4 -67 28 -86 18 -15 20 -21 10 -56 -5
-21 -10 -30 -11 -19 -1 19 -57 85 -73 85 -25 0 7 -91 38 -108 9 -5 17 -21 17
-36 0 -30 -13 -48 -20 -28 -9 23 -23 1 -17 -25 6 -22 4 -25 -12 -20 -10 3 -29
9 -41 13 -26 7 -29 -4 -9 -31 12 -16 7 -23 -51 -67 -36 -28 -66 -48 -68 -46
-10 10 35 85 58 95 18 9 29 25 37 54 6 22 9 44 6 47 -8 8 -46 -28 -46 -44 0
-7 -5 -16 -11 -20 -8 -5 -10 1 -6 19 8 29 -2 87 -14 87 -4 0 -10 -9 -14 -19
-3 -10 -14 -21 -25 -24 -11 -3 -22 -18 -26 -33 -4 -16 -15 -39 -24 -51 -15
-19 -19 -21 -24 -7 -15 38 -6 73 22 88 15 8 32 28 39 45 12 33 5 38 -29 20
-20 -11 -21 -10 -15 36 5 35 4 46 -6 43 -18 -6 -37 -48 -37 -83 l-1 -30 -15
28 c-8 15 -22 27 -32 27 -12 1 -5 12 24 38 39 35 80 100 70 110 -7 7 -58 -36
-77 -64 -15 -24 -16 -23 -13 41 3 60 -6 83 -20 53 -3 -7 -3 -2 0 12 14 56 39
95 59 92 66 -12 95 -13 95 -4 0 16 -27 33 -64 39 -42 7 -40 3 -21 49 l14 35
52 -7 c46 -6 51 -5 47 12 -2 14 -13 20 -46 22 l-42 3 17 30 c9 16 18 29 20 29
1 0 18 -7 36 -16z m890 7 c18 -6 18 -7 0 -23 -10 -9 -39 -26 -64 -36 l-47 -20
6 21 c12 52 58 77 105 58z m-2645 -15 c82 -18 109 -41 39 -33 -42 4 -47 2 -43
-12 4 -11 2 -11 -9 3 -8 11 -15 24 -15 29 0 5 -15 7 -32 5 -42 -7 -67 0 -47
13 18 12 32 11 107 -5z m1993 -28 c-19 -31 -21 -31 -21 -9 0 13 8 30 17 37 27
19 28 9 4 -28z m533 15 c-4 -16 -11 -37 -15 -48 -7 -17 -8 -16 -8 8 -1 16 -6
37 -11 48 -9 16 -7 19 15 19 23 0 25 -3 19 -27z m-1394 -4 c0 -13 -13 -11 -35
5 -18 13 -18 14 8 9 15 -3 27 -9 27 -14z m60 -5 c0 -8 -4 -12 -10 -9 -5 3 -10
10 -10 16 0 5 5 9 10 9 6 0 10 -7 10 -16z m-919 -17 c-10 -9 -11 -8 -5 6 3 10
9 15 12 12 3 -3 0 -11 -7 -18z m1219 2 l35 -20 -32 6 c-18 4 -33 3 -33 -2 0
-7 38 -34 84 -59 32 -17 39 -38 32 -88 -7 -43 -26 -56 -26 -18 -1 9 -10 28
-21 41 -41 50 -49 -26 -10 -94 15 -26 16 -35 5 -65 -7 -19 -13 -29 -13 -23 -2
23 -70 121 -101 145 -29 23 -30 27 -19 51 7 16 23 30 38 33 45 10 51 13 51 29
0 10 -10 15 -30 15 -33 0 -36 7 -18 45 13 30 13 30 58 4z m-213 -44 l20 -54
-20 10 c-54 29 -80 99 -37 99 12 0 23 -17 37 -55z m772 -35 c0 -42 -1 -44 -15
-25 -23 31 -28 64 -13 92 l14 25 6 -23 c4 -13 7 -44 8 -69z m-1928 27 c-13
-13 -31 1 -31 25 0 21 1 21 20 3 13 -12 17 -22 11 -28z m2544 23 c17 -8 31
-14 32 -15 1 -1 -1 -14 -5 -30 l-8 -29 -23 23 c-25 25 -26 25 -35 -6 -5 -15
-1 -27 14 -41 20 -19 20 -19 2 -43 l-20 -23 -7 42 c-6 35 -9 41 -21 31 -8 -7
-14 -30 -14 -55 0 -52 -21 -70 -92 -80 -45 -6 -45 -6 -50 27 -4 25 0 38 18 56
13 13 29 23 37 23 7 0 28 16 47 35 29 30 31 35 14 35 -11 0 -30 -7 -42 -16
-29 -20 -28 -4 1 24 22 21 107 64 117 59 3 -1 19 -9 35 -17z m-1491 2 c3 -5 0
-27 -6 -50 -11 -43 -24 -50 -59 -32 -26 14 -24 28 6 42 13 6 27 19 30 30 7 19
20 24 29 10z m-1124 -27 c18 -10 20 -14 8 -15 -23 0 -48 11 -48 21 0 12 11 11
40 -6z m1175 -14 c3 -6 -3 -15 -14 -20 -16 -9 -18 -8 -14 9 6 21 18 26 28 11z
m386 -22 c-5 -13 -10 -19 -10 -12 -1 15 10 45 15 40 3 -2 0 -15 -5 -28z m1210
21 c18 -10 18 -13 4 -33 -8 -12 -15 -29 -15 -39 0 -10 -5 -18 -11 -18 -8 0
-10 12 -6 35 6 34 5 35 -21 29 -15 -4 -43 -18 -62 -33 l-35 -26 16 25 c18 29
75 70 96 70 8 0 23 -5 34 -10z m-2677 -28 c-27 -25 -31 -26 -47 -12 -18 14
-18 15 10 27 15 7 36 12 47 13 16 0 14 -4 -10 -28z m96 1 c0 -20 -3 -24 -9
-14 -11 18 -31 5 -31 -20 0 -11 -7 -22 -15 -26 -21 -7 -32 4 -17 19 7 7 12 19
12 28 0 21 20 40 42 40 13 0 18 -8 18 -27z m121 -9 c7 -4 -1 -11 -22 -18 -32
-10 -69 -59 -55 -73 7 -8 76 26 76 37 0 5 9 14 21 20 16 9 26 8 45 -5 34 -22
30 -32 -18 -40 -43 -7 -58 -18 -58 -43 0 -9 7 -11 19 -7 16 5 18 2 14 -15 -11
-43 -50 -34 -55 13 -3 29 -4 30 -20 13 -24 -23 -33 -15 -47 38 -15 59 -14 63
8 85 16 16 26 18 50 11 17 -5 36 -12 42 -16z m907 -3 c11 -7 11 -15 -2 -46
-20 -48 -14 -55 24 -27 l30 22 37 -24 c21 -13 47 -34 59 -47 27 -31 67 -99 62
-104 -2 -3 -15 13 -29 35 -35 58 -49 51 -30 -15 7 -26 5 -33 -15 -48 l-24 -18
0 35 c0 19 -5 47 -11 63 l-12 28 -7 -25 c-5 -14 -8 -40 -9 -59 -1 -33 -1 -34
-21 -16 -11 10 -20 31 -20 47 0 32 -14 37 -29 11 -8 -15 -10 -11 -11 20 0 41
-15 50 -26 15 l-6 -21 -14 24 c-7 13 -13 32 -14 41 0 9 -5 18 -11 20 -20 7 -1
74 24 86 27 13 38 14 55 3z m1161 -5 c-30 -30 -86 -66 -103 -66 -20 0 -20 0 2
23 12 12 37 27 55 34 33 12 53 16 46 9z m-2319 -40 l23 -25 -28 -7 c-21 -5
-32 -1 -50 19 -13 13 -21 28 -18 31 14 14 51 4 73 -18z m990 17 c0 -5 -7 -16
-15 -27 -16 -21 -35 -13 -35 15 0 14 7 19 25 19 14 0 25 -3 25 -7z m1638 -59
c-14 -14 -120 -45 -128 -37 -9 8 45 43 77 49 18 3 38 13 45 22 12 13 13 13 16
-3 2 -9 -2 -23 -10 -31z m121 32 c-14 -12 -99 -57 -99 -52 0 9 74 56 89 56 8
0 12 -2 10 -4z m-2654 -85 c-6 -36 -8 -39 -22 -26 -8 8 -25 15 -37 15 -27 0
-54 27 -40 39 5 4 22 18 38 30 29 21 30 22 49 3 15 -16 18 -28 12 -61z m2646
28 c-13 -10 -31 -19 -40 -18 -10 0 -7 4 9 10 14 6 29 17 33 25 5 9 12 13 15 9
4 -4 -4 -15 -17 -26z m-2771 17 c0 -2 -7 -6 -15 -10 -8 -3 -15 -1 -15 4 0 6 7
10 15 10 8 0 15 -2 15 -4z m2236 -31 l-11 -34 -15 24 c-8 14 -18 25 -23 25 -4
0 -5 5 -2 10 3 6 19 10 34 10 27 0 28 -1 17 -35z m64 3 c0 -4 -5 -10 -11 -14
-12 -7 -29 12 -29 34 0 10 4 10 20 0 11 -7 20 -16 20 -20z m-1886 -5 c7 -16
20 -44 29 -64 l14 -35 -58 20 c-49 17 -58 25 -61 48 -3 20 0 29 14 34 10 3 18
10 18 15 0 20 30 7 44 -18z m-245 -47 c-25 -12 -31 -4 -23 29 l7 28 18 -24
c18 -23 18 -24 -2 -33z m1953 -20 c-5 -18 -6 -18 -14 3 -4 13 -18 25 -29 28
-21 6 -21 6 2 24 23 17 24 17 35 -9 6 -15 8 -36 6 -46z m538 41 c0 -18 -2 -19
-10 -7 -13 20 -13 43 0 35 6 -3 10 -16 10 -28z m-466 -18 c20 -1 20 -2 1 -6
-11 -3 -26 -10 -33 -16 -18 -14 -20 -7 -14 33 5 33 6 34 15 12 6 -12 19 -23
31 -23z m-1144 -9 c0 -13 -1 -13 -10 0 -5 8 -10 22 -10 30 0 13 1 13 10 0 5
-8 10 -22 10 -30z m40 -7 c0 -27 -3 -34 -11 -26 -7 7 -9 23 -5 37 9 37 16 32
16 -11z m1498 24 c19 -22 16 -70 -7 -112 -11 -21 -21 -50 -21 -62 0 -21 -2
-22 -20 -11 -11 7 -20 18 -20 25 0 7 -5 13 -12 13 -6 0 -2 9 10 20 12 12 22
29 22 40 0 10 3 26 7 35 5 14 2 16 -14 11 -13 -4 -23 -2 -26 7 -7 19 4 34 28
40 34 8 42 7 53 -6z m185 -4 c18 -10 4 -47 -34 -88 -41 -44 -59 -55 -59 -35 0
6 13 19 30 28 16 9 30 25 30 35 0 10 5 27 10 38 12 22 -8 27 -28 7 -9 -9 -12
-7 -12 10 0 19 4 21 28 16 15 -4 30 -9 35 -11z m-2858 -3 c-3 -5 -10 -10 -16
-10 -5 0 -9 5 -9 10 0 6 7 10 16 10 8 0 12 -4 9 -10z m105 0 c0 -5 17 -18 38
-29 20 -11 33 -20 29 -21 -8 0 -71 32 -97 49 -12 9 -11 11 8 11 12 0 22 -4 22
-10z m2330 0 c5 0 16 -14 24 -32 16 -31 16 -31 -4 -13 -19 18 -20 17 -20 -7 0
-15 -15 -41 -40 -67 -28 -29 -40 -37 -40 -25 0 10 13 29 29 43 28 24 53 91 34
91 -13 0 -29 -14 -41 -35 -11 -20 -11 -20 -12 2 0 27 28 56 47 49 8 -3 18 -6
23 -6z m95 -10 c3 -5 2 -17 -3 -26 -7 -13 -11 -12 -26 10 -16 25 -16 26 3 26
11 0 23 -4 26 -10z m-1420 -64 c1 -31 -3 -63 -10 -72 -9 -14 -13 -7 -24 39
-13 50 -12 56 5 74 11 11 21 18 23 17 2 -2 4 -28 6 -58z m471 -42 c-9 -33 -21
-30 -33 9 -7 24 -6 40 6 66 l16 33 8 -42 c5 -23 6 -53 3 -66z m554 77 c0 -27
-12 -33 -26 -13 -8 12 -9 21 -2 29 13 16 28 7 28 -16z m624 13 c3 -8 2 -12 -4
-9 -6 3 -10 10 -10 16 0 14 7 11 14 -7z m-2384 -33 c0 -14 -12 -39 -26 -56
-20 -24 -23 -25 -14 -6 7 13 10 40 8 61 -3 31 -1 36 14 32 12 -3 18 -14 18
-31z m-370 14 c-12 -15 -30 -12 -30 6 0 5 10 9 21 9 18 0 19 -2 9 -15z m45 5
c-3 -5 -11 -10 -16 -10 -6 0 -7 5 -4 10 3 6 11 10 16 10 6 0 7 -4 4 -10z m63
-14 c-1 -1 -11 -8 -20 -15 -16 -12 -18 -11 -18 13 0 24 2 26 21 16 11 -7 19
-13 17 -14z m134 -8 c-18 -19 -22 -20 -22 -6 0 9 8 21 17 27 27 15 29 3 5 -21z
m2094 18 c3 -8 4 -25 1 -38 l-4 -23 -8 22 c-4 12 -16 25 -27 29 -16 5 -18 8
-7 15 21 13 39 11 45 -5z m-2135 -57 c-7 -17 -10 -19 -10 -7 -1 10 -12 20 -28
24 l-26 7 34 11 c39 13 46 5 30 -35z m93 0 c-1 -27 -5 -54 -10 -59 -14 -13
-84 -40 -84 -32 0 33 27 86 56 111 19 17 36 31 37 31 2 0 2 -23 1 -51z m775
-84 c-1 -16 -2 -17 -6 -3 -2 9 -13 20 -24 23 -34 11 -44 47 -23 86 l17 34 19
-60 c10 -33 17 -69 17 -80z m1681 116 c0 -23 -15 -34 -46 -36 -23 -1 -22 7 4
38 20 23 42 22 42 -2z m-1906 -56 c-10 -24 -24 1 -23 40 l0 30 14 -27 c8 -15
12 -34 9 -43z m1656 55 c0 -5 -2 -10 -4 -10 -3 0 -8 5 -11 10 -3 6 -1 10 4 10
6 0 11 -4 11 -10z m63 -5 c3 -7 -3 -24 -13 -37 l-19 -23 8 32 c5 17 7 34 3 37
-3 3 -1 6 5 6 6 0 13 -7 16 -15z m352 5 c3 -5 -3 -10 -15 -10 -12 0 -18 5 -15
10 3 6 10 10 15 10 5 0 12 -4 15 -10z m-3112 -43 c-8 -13 -23 3 -23 26 0 20 0
20 14 2 8 -11 12 -23 9 -28z m67 -5 c0 -7 -4 -10 -10 -7 -5 3 -10 16 -10 28 0
18 2 19 10 7 5 -8 10 -21 10 -28z m620 23 c19 -2 43 -6 54 -11 25 -10 81 -133
67 -147 -8 -8 -11 -6 -11 6 0 9 -4 17 -10 17 -13 0 -60 -71 -60 -92 0 -25 -11
-48 -22 -48 -16 0 -2 65 20 97 21 30 38 153 21 153 -15 0 -49 -63 -49 -90 l0
-25 -19 28 c-18 29 -54 52 -101 67 -17 6 -19 9 -7 9 9 1 34 -8 54 -19 50 -27
66 -26 57 3 -12 40 -26 49 -67 44 -33 -5 -36 -3 -26 10 9 10 21 12 38 7 14 -4
42 -8 61 -9z m670 -16 c0 -6 -4 -7 -10 -4 -5 3 -10 11 -10 16 0 6 5 7 10 4 6
-3 10 -11 10 -16z m53 1 c-3 -12 -8 -19 -11 -16 -5 6 5 36 12 36 2 0 2 -9 -1
-20z m963 -3 c20 -18 25 -28 18 -40 -9 -15 -12 -14 -37 9 -26 24 -36 54 -18
54 6 0 22 -10 37 -23z m154 -37 c0 -19 -17 -18 -72 5 -21 8 -22 5 -6 -30 6
-15 27 -33 46 -41 30 -12 34 -17 29 -42 -3 -15 -13 -44 -22 -65 -20 -48 -31
-41 -76 49 -30 62 -31 68 -19 102 7 21 21 47 32 59 l20 21 34 -20 c19 -11 34
-28 34 -38z m-870 20 c0 -10 -4 -22 -10 -25 -6 -4 -10 7 -10 25 0 18 4 29 10
25 6 -3 10 -15 10 -25z m1004 -15 c-9 -28 -31 -51 -70 -75 -34 -19 -34 -19
-34 0 0 11 14 32 30 47 17 14 30 34 30 43 0 25 10 30 31 17 13 -8 17 -18 13
-32z m474 33 c20 -20 15 -29 -48 -88 -40 -36 -66 -69 -74 -95 -10 -30 -23 -45
-52 -58 -36 -18 -38 -18 -51 -1 -14 19 -15 19 -30 -10 -6 -11 -29 -25 -52 -32
-34 -10 -42 -9 -53 4 -10 12 -10 16 -1 19 7 3 27 15 45 29 18 13 45 32 60 41
36 23 36 37 1 29 l-28 -6 30 25 c17 14 33 25 38 25 4 0 7 5 7 11 0 8 -12 9
-32 6 l-33 -6 29 15 c21 12 42 14 77 10 33 -5 58 -2 76 7 16 8 34 12 42 9 8
-3 12 1 9 9 -6 18 -61 23 -101 10 -29 -10 -30 -10 -13 4 11 8 31 15 45 15 14
0 40 9 56 20 35 23 37 24 53 8z m-1407 -113 c-5 -17 -6 -16 -9 8 -2 15 -8 25
-13 22 -5 -4 -14 5 -20 18 -8 18 -8 30 2 48 12 23 13 23 29 -26 9 -28 14 -59
11 -70z m-1758 77 c3 -9 12 -34 21 -54 l16 -37 -30 10 c-42 15 -53 33 -46 73
7 37 29 41 39 8z m1551 -76 c1 -47 -6 -79 -31 -140 -18 -44 -37 -84 -43 -90
-16 -16 -21 -1 -9 30 15 39 28 124 19 124 -4 0 -16 -19 -26 -42 -16 -38 -18
-40 -22 -19 -2 15 5 32 22 50 26 27 51 89 40 100 -3 3 -17 -7 -30 -22 l-24
-28 0 26 c0 14 10 36 23 48 13 12 30 33 36 45 l13 24 16 -23 c9 -14 16 -45 16
-83z m1696 96 c0 -13 -23 -32 -39 -32 -11 0 -10 4 4 20 19 21 35 26 35 12z
m-2932 -9 c46 12 74 3 80 -25 2 -13 -10 -15 -78 -14 -79 1 -94 8 -68 34 7 7
14 8 18 3 3 -6 23 -5 48 2z m1312 -33 l-8 -35 -1 31 c-1 17 2 34 6 37 11 12
12 3 3 -33z m1350 27 c0 -7 -22 -23 -50 -34 -32 -14 -50 -17 -50 -10 0 23 18
39 51 47 48 11 49 11 49 -3z m-601 -24 c35 -33 52 -83 28 -83 -9 0 -18 4 -21
8 -6 11 -66 3 -66 -9 0 -15 44 -39 72 -39 33 0 42 -13 28 -40 -13 -25 -36 -26
-49 -2 -6 9 -11 11 -11 5 0 -7 -6 -13 -14 -13 -7 0 -21 -10 -30 -22 -16 -23
-16 -22 -10 14 3 21 3 50 -1 65 -6 27 -7 27 -21 9 -8 -11 -14 -31 -14 -45 -1
-24 -2 -24 -15 8 -13 29 -13 39 1 88 13 45 22 57 47 68 43 19 42 19 76 -12z
m-2258 -3 l24 -20 -35 -29 c-41 -35 -55 -24 -44 34 7 40 21 44 55 15z m1065
-7 c-10 -10 -19 5 -10 18 6 11 8 11 12 0 2 -7 1 -15 -2 -18z m194 -50 c0 -6
-14 -14 -31 -18 -33 -7 -34 -24 -2 -40 20 -10 20 -12 -13 -48 l-34 -37 0 61
c0 40 7 77 22 111 l21 50 18 -33 c10 -19 18 -39 19 -46z m-1184 30 c-5 -12
-10 -13 -18 -5 -8 8 -8 15 3 28 15 18 25 4 15 -23z m1388 -53 c-12 -12 -14 -8
-14 31 0 59 13 72 22 22 4 -27 2 -42 -8 -53z m1196 70 c11 -11 33 -20 50 -20
31 0 39 -17 18 -38 -16 -16 -28 -15 -28 3 0 13 -36 35 -56 35 -10 0 -3 -33 16
-66 17 -33 18 -40 5 -65 -8 -15 -15 -35 -15 -44 0 -22 -10 -19 -42 12 l-28 27
0 -33 c0 -18 7 -46 17 -61 16 -27 15 -29 -15 -67 -16 -21 -46 -54 -66 -72
l-36 -35 0 30 c0 21 10 40 30 59 37 35 40 68 8 63 -19 -2 -23 2 -23 25 1 31
-15 31 -30 -1 -13 -29 -20 -28 -35 8 -15 37 -1 59 33 53 13 -3 39 -1 58 4 l34
10 -32 16 c-18 9 -41 17 -53 17 -29 0 -25 17 14 56 41 41 58 42 80 9 12 -19
25 -25 51 -25 19 0 35 4 35 8 0 14 -54 60 -75 64 -17 4 -15 7 15 26 43 27 45
27 70 2z m-2190 0 c11 -7 7 -10 -17 -10 -18 0 -33 5 -33 10 0 13 30 13 50 0z
m627 -47 c-24 -24 -27 -25 -27 -9 0 27 31 59 44 46 7 -7 2 -19 -17 -37z m2048
17 c-4 -18 -2 -36 4 -44 14 -16 -3 -62 -25 -70 -11 -4 -14 5 -14 36 0 36 -2
39 -16 27 -8 -7 -24 -29 -34 -48 l-19 -36 -1 38 c0 31 5 40 25 49 14 6 24 16
22 22 -6 18 -46 19 -75 1 -21 -12 -18 -8 10 19 32 31 45 36 84 36 l46 0 -7
-30z m-1864 -11 c-9 -22 -10 -22 -10 -3 -1 11 2 24 6 27 12 12 14 0 4 -24z
m319 -2 c0 -5 -4 -5 -10 -2 -5 3 -10 14 -10 23 0 15 2 15 10 2 5 -8 10 -19 10
-23z m130 13 c22 -15 29 -30 34 -72 4 -29 10 -63 13 -75 9 -40 -12 -25 -29 20
-9 23 -25 66 -37 95 -11 28 -18 52 -15 52 3 0 18 -9 34 -20z m-1590 -5 c0 -8
-7 -15 -15 -15 -16 0 -20 12 -8 23 11 12 23 8 23 -8z m112 -41 c-10 -27 -32
-73 -50 -103 -31 -54 -31 -54 -38 -26 -9 36 8 101 25 97 8 -2 11 3 9 10 -20
51 -19 57 4 62 40 9 63 12 66 10 2 -1 -6 -23 -16 -50z m157 -12 c24 -17 31
-30 31 -55 l-1 -32 -20 28 c-29 39 -37 34 -31 -22 2 -30 0 -51 -7 -55 -6 -4
-11 -17 -11 -29 0 -20 -1 -20 -14 -2 -12 17 -14 16 -20 -17 -3 -19 -1 -49 5
-68 11 -31 10 -35 -17 -57 l-29 -23 -3 54 c-2 43 3 66 23 105 26 52 35 144 15
156 -18 11 -42 -55 -36 -99 5 -28 2 -48 -7 -60 -13 -17 -15 -11 -19 54 -6 86
6 125 53 165 l33 27 12 -24 c7 -12 26 -33 43 -46z m35 59 c3 -5 -1 -14 -9 -21
-8 -7 -15 -10 -15 -7 0 3 -3 12 -6 21 -7 17 20 23 30 7z m594 -3 c18 -18 15
-57 -7 -84 -23 -29 -29 -17 -23 49 4 49 10 55 30 35z m-521 -15 c40 -19 82
-60 83 -80 0 -19 -14 -16 -35 7 -23 26 -45 26 -45 -1 0 -11 -5 -30 -11 -42 -7
-12 -12 -33 -11 -47 0 -14 -10 -38 -24 -55 l-24 -30 0 47 c0 26 7 68 16 94 9
26 14 64 12 86 -2 21 -2 38 -1 38 1 0 19 -8 40 -17z m419 -8 c-3 -9 -10 -13
-16 -10 -6 4 -5 11 3 20 15 16 22 11 13 -10z m373 -37 c-1 -60 -1 -62 -13 -34
-10 21 -11 38 -3 62 6 19 12 34 14 34 2 0 3 -28 2 -62z m-148 -35 c-2 -80 -17
-161 -21 -118 -1 11 -2 28 -1 38 1 9 -2 17 -8 17 -5 0 -12 -8 -14 -17 -3 -10
-5 1 -6 25 0 23 -6 42 -11 42 -6 0 -20 -21 -32 -47 -16 -37 -22 -44 -26 -28
-2 11 -9 26 -14 33 -8 9 -5 19 8 34 32 38 58 57 76 58 10 0 20 11 24 25 13 53
27 18 25 -62z m-1100 40 l18 -32 -35 6 c-19 3 -34 2 -34 -1 0 -20 23 -45 48
-54 28 -9 30 -16 24 -84 -3 -26 -22 -22 -22 5 0 31 -17 54 -29 42 -16 -16 -24
-62 -12 -69 6 -4 11 -22 11 -39 l-1 -32 -14 33 c-18 40 -31 41 -40 2 -5 -21
-2 -39 9 -55 15 -23 15 -27 -6 -60 -13 -19 -25 -35 -28 -35 -3 0 -24 35 -47
78 -39 72 -40 79 -27 103 7 15 36 44 64 64 36 26 50 43 50 61 0 29 -4 30 -31
3 -27 -27 -35 -18 -19 21 15 36 67 82 88 78 8 -2 23 -17 33 -35z m-158 5 c9
-5 17 -10 17 -11 0 -11 -63 -164 -71 -172 -20 -20 -28 17 -11 52 12 24 13 40
6 60 -12 34 -30 40 -37 11 -10 -38 -17 -14 -11 36 l7 47 41 -7 c23 -3 49 -10
59 -16z m1637 3 c0 -4 -7 -16 -15 -28 -13 -18 -22 -55 -24 -100 -1 -21 -21
-15 -30 10 l-9 22 -12 -27 c-7 -15 -19 -29 -26 -32 -22 -8 33 126 61 151 22
20 55 22 55 4z m125 9 c3 -5 1 -10 -4 -10 -6 0 -11 5 -11 10 0 6 2 10 4 10 3
0 8 -4 11 -10z m-88 -64 c-20 -29 -57 -53 -57 -36 0 6 10 29 23 50 19 34 24
37 36 25 12 -12 12 -17 -2 -39z m-717 17 c0 -13 -3 -13 -15 -3 -8 7 -15 16
-15 21 0 5 7 6 15 3 8 -4 15 -13 15 -21z m1899 13 c-2 -2 -15 -9 -29 -16 -23
-12 -24 -12 -11 3 7 10 20 17 29 17 8 0 13 -2 11 -4z m-1809 -42 c0 -28 -15
-32 -29 -6 -7 13 -7 22 1 30 16 16 28 5 28 -24z m796 -49 c20 -49 29 -85 28
-120 l-2 -50 44 43 c60 57 75 53 26 -6 -35 -41 -42 -59 -57 -136 l-16 -89 29
-31 c15 -17 36 -43 45 -58 10 -16 25 -28 33 -28 13 0 15 -7 9 -36 -3 -20 -10
-44 -15 -53 -5 -9 -14 -44 -21 -78 -6 -35 -16 -63 -20 -63 -5 0 -9 -9 -9 -20
0 -21 -40 -104 -46 -97 -3 2 2 31 10 63 49 206 44 289 -21 356 l-36 37 7 78
c19 226 19 224 -8 296 -43 112 -28 106 20 -8z m144 47 c0 -10 -3 -10 -14 0 -7
7 -11 19 -8 26 4 11 6 11 13 0 5 -7 9 -19 9 -26z m1120 30 c0 -12 -23 -32 -37
-32 -7 0 -13 9 -13 20 0 15 7 20 25 20 14 0 25 -4 25 -8z m-2255 -61 c0 -30
-5 -61 -12 -70 -10 -13 -13 -7 -19 37 -3 28 -10 52 -14 52 -19 0 -40 -53 -40
-99 0 -44 -3 -52 -31 -72 l-32 -22 5 63 c4 61 6 65 51 104 26 23 47 47 47 54
0 8 9 12 23 10 20 -3 22 -9 22 -57z m226 20 c-8 -6 -8 -16 0 -40 13 -38 6 -52
-11 -21 -15 28 -3 113 12 85 7 -12 7 -20 -1 -24z m687 2 c-12 -13 -24 -20 -26
-14 -4 13 30 51 41 44 4 -3 -2 -16 -15 -30z m-376 -6 c9 -18 21 -58 28 -88 11
-47 10 -64 -4 -111 -9 -30 -23 -61 -31 -68 -13 -11 -15 -8 -16 21 -1 19 -4 45
-9 59 -7 25 -8 24 -24 -12 -19 -44 -20 -71 -5 -100 10 -18 5 -26 -34 -62 l-46
-42 -10 43 c-6 23 -11 53 -11 66 0 20 4 23 25 19 31 -5 32 5 4 34 -25 27 -17
46 16 38 40 -10 49 5 20 32 -29 27 -29 47 1 52 23 4 44 30 44 54 0 23 -18 23
-43 1 -15 -13 -18 -14 -12 -3 14 24 79 100 85 100 4 0 13 -15 22 -33z m324
-42 c-7 -54 -23 -88 -37 -79 -6 3 -6 10 -1 17 5 7 12 20 15 30 10 26 -37 22
-65 -6 -13 -12 -34 -31 -48 -42 l-24 -20 16 25 c21 34 78 94 103 108 39 23 48
16 41 -33z m-736 9 c0 -14 -10 -38 -21 -52 l-21 -27 7 45 c8 51 12 60 26 60 5
0 9 -12 9 -26z m849 -74 c0 -24 0 -24 -29 10 l-29 35 -1 -31 c0 -17 9 -43 20
-57 36 -45 30 -59 -69 -165 -23 -25 -25 -25 -32 -7 -16 41 -10 60 24 74 l32
13 -27 11 c-29 11 -36 35 -16 55 6 6 12 22 14 34 4 40 22 75 51 102 l28 27 17
-38 c10 -21 17 -49 17 -63z m123 83 c19 -22 8 -71 -22 -98 -23 -21 -27 -19
-39 22 -10 35 10 93 32 93 8 0 21 -8 29 -17z m-924 -11 c2 -7 -3 -12 -12 -12
-9 0 -16 7 -16 16 0 17 22 14 28 -4z m1141 0 c9 -16 6 -18 -20 -14 -24 4 -27
7 -18 18 15 19 26 18 38 -4z m193 -48 c11 -14 1 -41 -27 -76 l-22 -26 -17 39
c-17 39 -17 39 8 70 14 17 26 38 27 47 0 9 5 4 11 -13 6 -16 15 -35 20 -41z
m718 56 c0 -5 -6 -10 -14 -10 -8 0 -18 5 -21 10 -3 6 3 10 14 10 12 0 21 -4
21 -10z m79 7 c-2 -1 -13 -9 -24 -17 -19 -14 -19 -14 -6 3 7 9 18 17 24 17 6
0 8 -1 6 -3z m-909 -54 c0 -24 -16 -31 -22 -11 -3 7 -2 23 0 36 4 18 7 20 13
10 5 -7 9 -23 9 -35z m228 24 c9 -11 1 -17 -40 -30 l-51 -16 28 29 c31 33 47
37 63 17z m567 1 c29 -13 30 -17 12 -42 -9 -12 -28 -18 -59 -19 -42 -2 -45 0
-32 14 8 8 14 25 14 37 0 25 24 29 65 10z m-2139 -14 c-3 -9 -6 -22 -6 -30 0
-8 -9 -14 -20 -14 -20 0 -19 20 3 48 14 17 30 15 23 -4z m-557 -48 c41 -71 39
-88 -4 -46 -31 30 -35 32 -35 13 0 -33 29 -93 45 -93 18 0 18 -8 0 -40 -10
-17 -14 -20 -15 -9 0 24 -40 67 -46 52 -8 -18 -34 -16 -34 2 0 15 51 175 56
175 1 0 16 -24 33 -54z m349 13 c-3 -20 -5 -19 -9 9 -3 20 -2 29 4 23 5 -5 7
-19 5 -32z m1388 -6 c-7 -27 -18 -48 -24 -47 -7 1 -26 2 -42 3 l-31 1 51 45
c28 25 52 45 54 45 2 0 -2 -21 -8 -47z m-1836 11 c0 -8 -4 -14 -10 -14 -5 0
-18 -16 -27 -37 -18 -36 -47 -62 -58 -51 -7 7 32 76 59 104 22 23 36 22 36 -2z
m820 2 c5 -14 18 -29 28 -35 14 -8 18 -17 14 -38 l-5 -27 -11 25 c-10 24 -10
24 -14 -8 -3 -32 -4 -32 -28 -17 -17 12 -24 25 -24 48 0 70 22 98 40 52z m140
-20 c0 -75 -22 -104 -35 -46 -4 17 -10 28 -15 25 -22 -13 -18 18 4 40 36 36
46 31 46 -19z m1680 5 c8 -27 6 -33 -16 -47 -34 -23 -54 -12 -54 30 0 29 5 36
28 44 32 11 30 12 42 -27z m-1770 8 c0 -5 -4 -9 -10 -9 -5 0 -10 7 -10 16 0 8
5 12 10 9 6 -3 10 -10 10 -16z m2020 -10 c24 -20 24 -21 5 -35 -19 -14 -86
-36 -92 -30 -2 2 1 15 6 30 8 19 18 26 38 26 27 1 27 1 9 15 -14 11 -16 15 -5
15 8 -1 25 -10 39 -21z m-1604 -13 c7 -29 -25 -78 -63 -95 -24 -11 -25 -11
-19 16 9 34 53 103 66 103 5 0 12 -11 16 -24z m951 0 c31 -4 31 -3 53 -90 18
-66 19 -84 9 -115 -16 -51 -17 -51 -46 -40 -14 5 -28 7 -31 5 -10 -10 9 -56
23 -56 19 0 19 -2 0 -47 l-16 -37 -28 31 c-15 17 -42 38 -59 47 -63 33 -104
129 -79 188 8 18 23 41 35 51 17 16 26 17 59 8 55 -16 93 -14 93 4 0 21 -32
35 -81 35 -37 0 -40 2 -28 16 9 11 22 14 43 9 17 -3 41 -7 53 -9z m323 -38 c0
-4 -20 -8 -45 -8 -25 0 -45 3 -45 7 0 4 10 17 22 30 l22 23 23 -22 c13 -12 23
-25 23 -30z m-2290 -13 c-7 -25 -18 -45 -25 -45 -10 0 -9 9 2 42 17 50 23 61
30 54 3 -3 0 -26 -7 -51z m156 -37 l-14 -33 -1 33 c-1 18 -6 42 -11 53 -19 34
1 44 22 11 17 -28 18 -33 4 -64z m214 71 c0 -6 -12 -25 -26 -42 l-27 -32 7 33
c4 17 4 32 -1 32 -26 -1 -83 -74 -83 -106 0 -24 -30 -39 -65 -32 -44 9 113
157 168 158 15 0 27 -5 27 -11z m116 -44 c4 -68 -13 -57 -40 27 -3 11 1 18 12
21 23 5 24 4 28 -48z m1164 34 c0 -5 -15 -9 -32 -9 -31 1 -32 2 -15 15 19 14
47 10 47 -6z m815 4 c-4 -10 -10 -28 -12 -40 -4 -19 -10 -22 -32 -17 -14 4
-29 9 -33 11 -13 7 4 33 31 48 37 20 55 19 46 -2z m55 -10 c0 -22 -2 -25 -10
-13 -13 20 -13 40 0 40 6 0 10 -12 10 -27z m-2440 -10 c0 -14 6 -34 14 -42 7
-9 17 -26 21 -39 5 -19 2 -25 -14 -29 -11 -3 -19 -9 -16 -13 8 -12 -5 -18 -76
-34 -45 -11 -59 -11 -48 -3 9 7 19 22 23 35 4 12 11 20 15 18 14 -9 82 15 78
27 -2 7 -18 16 -35 22 -26 7 -31 13 -26 30 6 21 40 55 55 55 5 0 9 -12 9 -27z
m1668 8 c3 -8 -1 -12 -9 -9 -7 2 -15 10 -17 17 -3 8 1 12 9 9 7 -2 15 -10 17
-17z m-652 -1 c26 -10 26 -11 8 -31 -26 -29 -59 -40 -86 -30 -22 8 -22 8 9 40
36 35 33 34 69 21z m1633 -21 c12 -17 20 -37 17 -46 -5 -13 -12 -9 -37 16 -16
17 -34 29 -40 25 -15 -9 -2 -55 24 -82 l21 -22 -30 -31 c-16 -17 -40 -37 -54
-44 l-25 -13 4 41 c3 39 2 41 -14 27 -10 -8 -26 -33 -35 -55 -16 -36 -24 -42
-76 -59 -33 -10 -65 -21 -73 -24 -21 -8 -4 74 26 126 18 33 29 42 41 37 31
-12 92 -18 92 -8 0 5 -16 17 -35 26 -40 19 -43 27 -17 50 17 16 21 15 57 -3
40 -20 85 -27 85 -12 0 5 -11 19 -26 33 l-25 24 33 12 c51 18 62 16 87 -18z
m-2107 -21 c-4 -45 -22 -78 -22 -41 0 32 12 83 19 83 4 0 5 -19 3 -42z m901
29 c17 -7 35 -26 43 -47 l15 -35 -28 27 c-22 21 -38 27 -66 26 -44 -2 -54 6
-37 27 15 18 35 18 73 2z m782 -34 c30 -33 33 -48 5 -31 -10 7 -22 9 -26 5
-14 -13 16 -58 48 -71 31 -13 32 -16 34 -77 1 -40 -4 -77 -14 -99 l-15 -35 -7
39 c-4 21 -15 43 -24 48 -9 5 -16 17 -16 26 -1 15 -2 15 -15 -2 -21 -28 -19
-48 11 -91 27 -41 25 -62 -15 -114 l-19 -25 5 26 c4 20 -1 30 -16 40 -12 7
-21 18 -21 25 0 18 -17 16 -24 -3 -11 -28 -6 -72 9 -88 20 -20 19 -29 -6 -52
-12 -11 -23 -14 -27 -8 -37 54 -43 59 -53 44 -5 -8 -8 -36 -5 -61 l5 -47 -69
-46 c-39 -25 -73 -46 -76 -46 -3 0 -3 16 0 36 4 19 7 92 7 162 1 104 4 133 20
164 17 34 22 36 53 31 18 -3 43 0 55 6 23 13 28 29 9 28 -21 -1 -78 15 -78 22
0 12 42 116 50 124 4 5 24 -8 44 -28 27 -27 44 -35 63 -33 43 5 38 24 -17 65
l-51 38 28 22 c26 21 49 28 100 32 13 0 33 -11 48 -26z m-2603 -15 c-6 -6 -16
-7 -23 -3 -9 6 -7 12 7 22 21 15 34 -1 16 -19z m2056 -39 l3 -34 -36 37 c-47
50 -48 75 -2 50 25 -15 33 -26 35 -53z m587 61 c3 -5 2 -10 -4 -10 -5 0 -13 5
-16 10 -3 6 -2 10 4 10 5 0 13 -4 16 -10z m-2897 -32 c24 -20 55 -92 54 -123
-1 -16 -6 -43 -10 -60 l-9 -30 -16 31 c-10 20 -12 35 -6 45 14 23 11 95 -6
109 -21 18 -30 6 -29 -41 1 -36 0 -38 -12 -21 -11 16 -33 90 -34 114 0 9 49
-9 68 -24z m979 -5 c-23 -12 -33 -3 -23 23 5 12 9 12 26 2 19 -12 19 -13 -3
-25z m1015 1 c13 -15 28 -24 38 -21 9 2 35 1 56 -3 l39 -7 -30 -13 -30 -12 34
-15 c31 -13 37 -12 88 13 l54 28 42 -42 42 -42 -31 0 c-16 0 -35 5 -42 12 -9
9 -12 7 -12 -10 0 -34 35 -62 78 -62 46 -1 138 -68 164 -120 25 -50 24 -106
-3 -113 -18 -5 -20 -2 -14 24 8 34 -12 102 -27 93 -6 -4 -8 -28 -5 -61 6 -61
-16 -134 -35 -115 -7 7 -5 17 6 33 18 26 21 66 6 89 -7 12 -11 10 -18 -10 -5
-14 -12 -32 -15 -40 -3 -10 -6 -7 -6 8 -1 28 -24 74 -45 91 -29 24 -21 -52 9
-87 26 -32 35 -63 13 -44 -7 5 -28 12 -45 14 -27 4 -33 1 -33 -13 0 -22 35
-43 57 -35 21 8 69 -22 83 -52 13 -29 8 -39 -10 -17 -12 15 -90 22 -90 8 0
-19 37 -43 65 -43 30 0 32 -3 49 -61 16 -59 16 -61 -4 -97 -12 -21 -37 -48
-56 -61 -35 -24 -36 -24 -102 -8 -91 21 -162 53 -162 72 0 8 -6 15 -14 15 -7
0 -19 7 -26 15 -19 22 -33 19 -102 -25 -35 -21 -79 -46 -100 -54 l-36 -16 33
58 c18 31 45 71 59 89 34 40 60 101 81 185 16 64 18 66 53 72 21 4 45 6 55 6
86 -3 117 1 117 16 0 16 -36 24 -74 17 l-31 -6 21 21 c11 11 35 23 52 27 34 7
35 25 1 25 -27 0 -24 12 11 35 52 35 30 48 -35 21 -37 -16 -43 -9 -24 26 10
18 9 20 -8 16 -10 -3 -24 1 -31 9 -22 23 -42 14 -69 -31 l-26 -43 -45 46 -44
46 12 70 c12 68 25 105 36 105 4 0 15 -12 26 -26z m968 16 c5 0 14 -9 20 -20
8 -15 4 -29 -20 -66 -24 -38 -30 -43 -30 -25 0 12 -7 35 -15 52 -18 34 -5 75
22 65 8 -3 19 -6 23 -6z m-2097 -20 c-5 -20 -39 -50 -57 -50 -6 0 50 65 61 69
0 1 -1 -8 -4 -19z m-676 -10 c3 -12 17 -22 38 -26 32 -6 33 -6 39 -76 4 -38 5
-72 2 -76 -3 -3 -6 10 -7 29 0 19 -4 43 -8 54 -8 19 -8 19 -20 -3 -7 -13 -11
-31 -9 -40 2 -9 -3 -22 -11 -28 -24 -18 -49 53 -39 111 2 14 -3 21 -19 23 -27
4 -27 6 -11 32 16 26 38 26 45 0z m1465 -7 c36 -16 38 -19 38 -64 0 -39 -11
-85 -26 -108 -2 -1 -16 11 -33 28 -17 17 -33 31 -36 31 -3 0 -5 -17 -5 -38 0
-28 7 -45 24 -61 22 -21 23 -26 12 -53 -9 -20 -28 -36 -63 -52 l-50 -24 5 24
c6 31 -17 89 -30 76 -6 -6 -13 -34 -16 -63 -7 -54 -7 -54 -65 -84 -49 -26 -59
-28 -67 -15 -15 24 -12 56 9 74 14 13 19 29 18 62 -1 24 -4 44 -6 44 -11 0
-41 -35 -42 -49 -1 -9 -5 2 -10 24 -13 65 -3 88 60 137 l57 45 35 -38 c20 -22
44 -39 54 -39 18 0 17 1 -1 23 -11 12 -25 34 -32 50 -6 15 -20 27 -29 27 -14
1 -11 7 15 30 28 26 40 30 89 30 31 0 73 -8 95 -17z m200 -8 c-3 -17 -11 -25
-25 -25 -20 0 -20 1 3 25 13 14 24 25 25 25 1 0 0 -11 -3 -25z m-1328 2 c-3
-9 -22 -14 -52 -15 -45 0 -46 0 -22 14 33 18 81 19 74 1z m496 -8 c0 -5 -7 -9
-15 -9 -9 0 -12 6 -9 15 6 15 24 11 24 -6z m219 -93 c12 -54 20 -100 18 -102
-2 -2 -18 12 -37 31 -32 33 -33 35 -20 78 9 34 9 50 1 66 -12 22 -5 49 9 34 4
-4 17 -53 29 -107z m926 104 c3 -6 -1 -7 -9 -4 -18 7 -21 14 -7 14 6 0 13 -4
16 -10z m-1815 -60 c0 -11 -42 -62 -47 -57 -11 11 -19 107 -9 110 10 3 56 -40
56 -53z m542 8 c-7 -7 -20 -7 -39 0 l-28 10 35 15 c31 14 35 14 38 0 2 -8 -1
-20 -6 -25z m2443 12 c-27 -28 -85 -44 -69 -19 5 9 76 46 93 48 3 1 -8 -12
-24 -29z m-2221 -1 c-3 -5 -10 -7 -15 -3 -5 3 -7 10 -3 15 3 5 10 7 15 3 5 -3
7 -10 3 -15z m55 -11 c0 -31 -1 -31 -10 -10 -5 13 -7 28 -3 33 10 16 14 9 13
-23z m-697 -12 c7 4 -9 -13 -37 -38 -47 -43 -51 -45 -72 -31 l-23 15 30 38
c30 38 31 38 60 23 16 -8 35 -11 42 -7z m526 12 c-3 -7 -13 -15 -24 -17 -16
-3 -17 -1 -5 13 16 19 34 21 29 4z m-189 -7 c13 -8 63 -101 54 -101 -18 0
-100 66 -114 93 -8 14 -5 17 18 17 15 0 34 -4 42 -9z m106 -38 c-7 -53 -76
-315 -106 -401 -10 -30 -19 -61 -19 -67 0 -7 24 -46 54 -86 29 -41 75 -113
100 -161 53 -98 98 -144 185 -188 l60 -30 -14 28 c-8 15 -35 82 -60 148 l-47
121 20 39 c12 24 18 51 15 69 l-5 30 19 -23 18 -23 88 95 c48 52 87 102 87
112 0 13 3 15 11 7 6 -6 19 -9 28 -5 9 3 -4 -14 -28 -39 -24 -24 -55 -60 -70
-79 -14 -19 -36 -46 -48 -59 -13 -13 -23 -30 -23 -37 0 -8 -4 -14 -9 -14 -5 0
-12 -11 -15 -25 -4 -14 -10 -23 -15 -20 -5 2 -8 -16 -6 -43 4 -69 51 -185 101
-249 24 -31 42 -58 40 -60 -1 -2 -16 3 -32 12 -33 17 -48 19 -40 6 4 -5 1 -11
-5 -13 -5 -2 10 -13 35 -26 55 -26 62 -21 9 7 -21 11 -32 20 -24 21 16 0 105
-50 141 -81 l25 -20 -25 6 c-15 4 -6 -5 25 -25 28 -18 59 -40 70 -49 18 -15
19 -15 6 2 -22 28 -1 20 58 -24 72 -53 131 -110 131 -125 0 -6 7 -17 16 -25
16 -13 58 -89 50 -89 -3 0 10 -26 29 -57 25 -41 35 -70 35 -98 0 -40 0 -40
-39 40 -22 44 -51 91 -66 105 -21 19 -17 11 15 -38 23 -35 40 -66 36 -69 -3
-3 3 -20 13 -37 11 -17 22 -54 25 -81 3 -28 8 -68 11 -90 4 -32 3 -36 -5 -17
-25 56 -30 66 -24 47 9 -29 14 -175 6 -175 -4 0 -8 -19 -8 -42 -1 -23 -7 -44
-13 -46 -6 -2 -11 -12 -11 -23 0 -10 -4 -19 -8 -19 -5 0 -14 -10 -20 -22 -9
-20 -11 -17 -13 27 -2 42 -3 44 -6 15 -3 -19 -9 -39 -14 -44 -5 -6 -9 -21 -9
-34 0 -13 -7 -30 -15 -38 -12 -13 -15 -4 -18 68 l-3 83 -2 -87 c-1 -48 -6 -89
-11 -92 -5 -3 -12 -18 -16 -33 -6 -25 -44 -68 -52 -59 -2 2 1 23 7 46 6 23 9
44 7 46 -2 2 -12 -26 -22 -63 -10 -38 -21 -72 -25 -78 -4 -5 -11 -25 -15 -42
-3 -18 -11 -33 -16 -33 -5 0 -9 -7 -9 -15 0 -8 -4 -15 -9 -15 -5 0 -13 -14
-16 -31 -5 -23 -9 -28 -16 -18 -6 10 -9 3 -10 -21 l-2 -35 -7 35 c-5 25 -8 10
-9 -58 -1 -112 20 -225 59 -309 23 -50 25 -61 12 -55 -9 3 -23 13 -29 21 -34
43 -93 153 -113 211 -26 73 -28 76 -36 68 -3 -4 9 -39 26 -79 18 -40 33 -78
34 -84 1 -6 12 -25 24 -42 28 -40 29 -58 2 -41 -31 19 -88 108 -95 148 -3 19
-13 42 -21 51 -8 9 -24 61 -36 115 -25 125 -21 297 12 419 24 89 88 233 113
253 14 12 16 8 21 -30 22 -166 22 -166 22 -23 -1 121 1 143 18 165 18 25 18
25 13 -60 -4 -60 -3 -73 3 -45 5 22 9 59 9 83 1 24 7 49 14 56 10 11 14 7 24
-23 7 -20 11 -25 8 -11 -15 98 -17 120 -6 120 6 0 11 -4 11 -8 0 -5 7 -17 15
-28 14 -17 14 -17 4 11 -17 45 -28 95 -20 95 6 0 21 -25 82 -135 21 -38 39
-67 39 -63 0 13 -23 62 -66 138 -42 75 -64 140 -46 140 13 0 126 -176 167
-261 43 -89 47 -77 5 16 -38 84 -38 97 0 25 16 -30 29 -52 30 -47 0 13 -79
165 -90 172 -5 3 0 -10 11 -30 12 -20 19 -38 17 -40 -9 -9 -148 212 -148 235
0 23 1 23 36 -11 20 -18 57 -63 82 -99 59 -84 70 -95 41 -41 -13 23 -72 97
-131 162 -60 66 -108 123 -108 129 0 5 -16 25 -35 44 -39 39 -47 64 -15 44 11
-7 20 -16 20 -20 0 -5 7 -8 15 -8 8 0 20 -9 27 -20 7 -11 17 -20 22 -20 5 0
-1 11 -14 25 -27 29 -17 34 14 8 l21 -18 -20 23 c-24 29 -128 104 -175 126
-37 17 -25 8 47 -37 25 -15 44 -30 42 -32 -2 -1 -76 32 -164 75 -169 83 -275
161 -275 202 0 15 5 19 18 14 9 -3 5 3 -10 15 -18 13 -28 30 -28 47 0 39 -63
160 -113 217 l-44 49 18 31 c28 47 129 339 147 423 17 82 26 95 17 25z m932 0
c-5 -43 -2 -51 24 -78 27 -28 28 -33 17 -63 -9 -22 -23 -36 -51 -47 -22 -9
-42 -13 -45 -10 -3 3 -1 5 5 5 12 0 57 70 50 77 -11 11 -57 -20 -75 -51 -20
-34 -24 -36 -72 -36 -49 0 -51 1 -45 23 8 26 43 56 66 57 9 0 21 11 27 25 7
14 22 30 34 34 19 8 20 10 7 16 -9 3 -33 -1 -53 -9 -23 -10 -36 -11 -36 -4 0
17 70 78 89 78 9 0 26 7 37 15 27 20 27 20 21 -32z m-689 -18 c-2 -2 -11 3
-22 10 -12 9 -16 20 -11 32 6 16 8 14 22 -10 8 -16 13 -30 11 -32z m-488 35
c0 -5 17 -11 38 -11 l37 -1 -35 -8 c-68 -15 -124 -36 -127 -47 -3 -7 22 -13
67 -18 l71 -7 -41 -26 c-22 -15 -40 -30 -40 -34 0 -4 24 -4 53 -1 39 4 57 11
70 29 29 37 97 27 84 -12 -4 -11 -26 -75 -49 -144 l-43 -125 -50 52 c-40 41
-46 51 -28 47 13 -4 35 -3 51 1 l27 7 -25 20 c-20 17 -33 19 -78 13 -39 -5
-52 -4 -47 4 9 15 -4 71 -17 71 -5 0 -15 -13 -21 -30 -8 -20 -18 -30 -33 -30
-33 0 -34 9 -3 40 18 17 29 39 29 55 0 34 -18 29 -47 -15 -31 -44 -29 -34 8
45 17 37 28 74 24 84 -5 16 4 21 52 34 73 19 73 19 73 7z m220 0 c0 -5 -2 -10
-4 -10 -3 0 -8 5 -11 10 -3 6 -1 10 4 10 6 0 11 -4 11 -10z m72 -17 c9 -10 19
-33 23 -50 6 -28 11 -33 36 -33 20 0 29 -5 29 -16 0 -22 -41 -114 -51 -114
-17 0 -32 45 -30 90 1 46 -15 100 -30 100 -5 0 -9 9 -9 20 0 25 12 26 32 3z
m80 -6 c18 -28 8 -36 -22 -19 -41 24 -49 46 -13 37 15 -3 31 -12 35 -18z
m-881 -80 c10 -31 19 -59 19 -62 0 -3 -18 6 -39 21 -22 14 -44 24 -48 21 -18
-11 -30 9 -25 41 3 24 14 39 36 53 29 18 31 18 34 1 2 -9 12 -43 23 -75z m933
78 c-4 -8 -7 -15 -9 -15 -2 0 -5 7 -9 15 -3 9 0 15 9 15 9 0 12 -6 9 -15z
m2176 10 c0 -3 -9 -14 -20 -25 -22 -22 -25 -19 -10 11 10 17 30 27 30 14z
m121 -12 c8 -9 27 -24 43 -34 27 -16 27 -18 9 -28 -11 -5 -32 -37 -47 -69 -27
-63 -39 -72 -86 -72 -44 0 -79 -17 -135 -64 -62 -53 -86 -66 -122 -66 l-28 1
35 29 c19 17 40 30 48 30 7 0 27 7 44 16 24 12 28 18 17 25 -8 4 -25 5 -38 2
-17 -4 -22 -2 -19 8 3 8 33 18 75 25 112 19 174 63 90 64 -29 1 -30 2 -14 14
22 17 22 26 0 26 -14 0 -13 3 5 20 12 12 22 25 22 30 0 4 13 3 30 -3 37 -14
47 -5 26 25 -9 12 -16 26 -16 30 0 15 48 8 61 -9z m-2889 -20 c-5 -10 -12 -44
-15 -75 -9 -89 -21 -93 -28 -8 -7 79 0 100 33 100 15 0 17 -4 10 -17z m626
-27 c-44 -22 -34 -38 22 -35 48 3 55 0 81 -29 30 -34 56 -111 61 -179 2 -41
-2 -47 -77 -132 l-80 -88 -25 71 c-14 39 -40 96 -58 127 -17 31 -32 64 -32 72
0 27 44 68 80 76 25 5 39 15 48 35 8 15 11 30 9 33 -10 9 -50 -9 -73 -34 l-22
-24 19 63 c30 98 27 93 49 73 20 -18 20 -18 -2 -29z m-351 3 l38 -1 -30 -9
c-35 -10 -58 -5 -77 18 -12 15 -11 15 9 5 12 -7 39 -12 60 -13z m-456 -12
c-10 -9 -11 -8 -5 6 3 10 9 15 12 12 3 -3 0 -11 -7 -18z m1745 -15 c-18 -16
-18 -16 -6 6 6 13 14 21 18 18 3 -4 -2 -14 -12 -24z m1079 -3 c-16 -30 -17
-30 -36 -13 -20 18 -20 19 13 30 18 7 34 13 36 13 1 1 -5 -13 -13 -30z m79 9
c-7 -25 -56 -85 -86 -106 -16 -12 -18 -11 -18 9 0 14 19 41 50 71 56 54 64 58
54 26z m-2294 -28 c0 -5 -2 -10 -4 -10 -3 0 -8 5 -11 10 -3 6 -1 10 4 10 6 0
11 -4 11 -10z m-712 -25 c-12 -27 -28 -34 -28 -12 0 14 20 37 32 37 4 0 2 -11
-4 -25z m2846 10 c40 -17 46 -43 25 -104 -11 -32 -12 -32 -23 -10 -11 24 -80
48 -94 34 -4 -4 10 -22 31 -40 45 -39 44 -61 -4 -89 -31 -18 -93 -18 -167 1
l-23 5 23 25 c13 14 39 33 58 43 40 21 97 77 87 86 -3 3 -20 -1 -38 -10 -18
-9 -33 -15 -35 -14 -6 6 46 57 72 72 37 19 43 19 88 1z m-3162 -22 c-3 -16 -7
-22 -10 -15 -4 13 4 42 11 42 2 0 2 -12 -1 -27z m2131 12 c-3 -9 -8 -14 -10
-11 -3 3 -2 9 2 15 9 16 15 13 8 -4z m-2025 -45 c4 -11 1 -10 -12 3 -19 19
-51 23 -61 7 -3 -5 -11 -10 -16 -10 -5 0 -2 11 7 25 16 25 17 25 47 8 17 -10
33 -25 35 -33z m-144 25 c3 -8 1 -15 -4 -15 -6 0 -10 7 -10 15 0 8 2 15 4 15
2 0 6 -7 10 -15z m1077 -26 c8 -15 4 -21 -22 -35 l-32 -16 7 32 c3 18 6 39 6
47 0 13 3 13 16 3 8 -8 19 -21 25 -31z m-562 -23 c-13 -15 -18 -4 -11 29 6 30
6 30 12 5 4 -14 3 -29 -1 -34z m65 -24 c-24 -6 -44 6 -39 23 16 51 16 51 35
15 16 -30 16 -36 4 -38z m-219 39 c-3 -6 -11 -11 -17 -11 -6 0 -6 6 2 15 14
17 26 13 15 -4z m1695 9 c0 -5 -5 -10 -11 -10 -5 0 -7 5 -4 10 3 6 8 10 11 10
2 0 4 -4 4 -10z m-2040 -22 c0 -18 -2 -20 -9 -8 -6 8 -7 18 -5 22 9 14 14 9
14 -14z m2239 18 c-2 -2 -21 -6 -42 -10 -27 -5 -37 -4 -32 3 3 6 22 11 42 11
20 0 34 -2 32 -4z m-1935 -38 c-3 -5 -13 -8 -23 -8 -10 0 -22 -10 -26 -22 l-8
-23 -4 22 c-2 12 0 31 6 42 9 16 14 18 35 8 13 -7 22 -15 20 -19z m-222 -10
c31 -22 33 -25 25 -63 -5 -22 -15 -53 -23 -68 -8 -16 -14 -34 -14 -40 0 -7
-12 -20 -25 -30 -22 -16 -25 -16 -25 -2 0 9 9 36 20 60 17 36 18 48 8 69 -19
44 -27 36 -42 -44 -3 -14 -4 5 -2 41 2 62 16 99 37 99 4 0 23 -10 41 -22z
m268 7 c-7 -9 -15 -13 -17 -11 -7 7 7 26 19 26 6 0 6 -6 -2 -15z m97 9 c-3 -3
-12 -4 -19 -1 -8 3 -5 6 6 6 11 1 17 -2 13 -5z m1528 -13 c-3 -6 -11 -8 -17
-5 -6 4 -5 9 3 15 16 10 23 4 14 -10z m73 0 c3 -8 -1 -12 -9 -9 -7 2 -15 10
-17 17 -3 8 1 12 9 9 7 -2 15 -10 17 -17z m-2072 -58 c16 -61 -23 -28 -49 40
-6 17 -6 17 18 0 14 -10 28 -28 31 -40z m1768 36 c-27 -29 -46 -38 -69 -29
-17 6 -14 10 25 28 58 26 67 27 44 1z m88 -8 c-29 -31 -72 -50 -72 -32 0 6 6
11 13 11 7 0 23 11 35 25 12 14 28 25 36 25 10 0 6 -9 -12 -29z m-1281 9 c5 0
3 -11 -3 -25 -14 -30 -24 -32 -38 -5 -13 24 -4 44 17 36 8 -3 19 -6 24 -6z
m1362 -16 c-27 -20 -39 -17 -18 6 10 11 22 17 27 14 5 -3 1 -12 -9 -20z
m-1473 -4 c14 0 37 -10 49 -22 21 -19 23 -27 17 -81 -6 -60 -35 -157 -47 -157
-15 0 -63 76 -69 111 -4 21 -4 37 -1 36 3 -1 19 7 34 17 22 15 27 25 25 50 -4
37 -28 42 -43 9 -14 -33 -25 -28 -25 10 0 38 9 52 24 37 5 -5 22 -10 36 -10z
m643 9 c13 -6 31 -26 40 -44 l15 -32 -48 14 c-39 11 -54 12 -71 2 -22 -11 -22
-12 -4 -25 10 -8 33 -14 50 -14 18 0 46 -5 63 -11 27 -9 34 -20 56 -87 31 -93
31 -95 6 -147 l-20 -41 50 -124 c27 -68 48 -125 45 -128 -6 -7 -98 54 -121 80
-12 13 -40 59 -64 103 -24 44 -68 117 -98 162 l-54 82 37 110 c35 107 38 111
65 111 16 0 40 -5 53 -11z m-883 -43 c-6 -6 -15 -5 -24 3 -8 7 -19 10 -25 7
-5 -3 -7 3 -4 14 5 19 6 19 34 3 18 -11 25 -21 19 -27z m79 12 c-13 -10 -52
-42 -87 -71 l-62 -52 4 -51 c2 -28 0 -57 -6 -65 -7 -10 -8 -7 -5 14 2 15 1 27
-3 27 -4 0 -12 22 -17 50 -10 49 -9 51 24 87 27 30 33 33 28 15 -6 -21 -4 -20
47 10 29 18 59 41 66 51 7 9 18 14 24 11 7 -5 2 -14 -13 -26z m327 10 c-3 -13
-6 -35 -6 -49 0 -19 -11 -35 -37 -55 l-36 -27 6 41 c4 22 17 57 28 76 24 41
55 50 45 14z m74 -2 c0 -7 -12 -23 -26 -37 -25 -23 -26 -23 -15 -2 6 12 11 31
11 42 0 14 5 19 15 15 8 -4 15 -12 15 -18z m1360 14 c-8 -5 -19 -10 -25 -10
-5 0 -3 5 5 10 8 5 20 10 25 10 6 0 3 -5 -5 -10z m1436 -17 c13 -8 24 -17 24
-19 0 -10 -131 -74 -151 -74 -23 1 -22 2 6 14 34 15 82 63 72 72 -10 10 -69
-17 -105 -48 -18 -15 -42 -28 -54 -28 -25 0 -26 -1 56 64 53 43 63 47 94 41
19 -3 46 -13 58 -22z m-3129 -5 c15 -19 21 -68 13 -103 l-7 -30 -13 30 c-8 17
-23 43 -34 59 -19 28 -19 29 -1 42 23 17 30 17 42 2z m1607 -13 c-4 -8 -10
-15 -15 -15 -5 0 -9 7 -9 15 0 8 7 15 15 15 9 0 12 -6 9 -15z m-1176 -40 c58
-52 79 -93 63 -123 -10 -18 -4 -29 39 -78 57 -65 110 -164 110 -205 0 -15 5
-31 10 -34 6 -3 10 -20 10 -37 0 -22 10 -40 36 -64 63 -60 96 -81 239 -152
127 -64 142 -74 157 -109 10 -21 39 -64 65 -97 27 -32 54 -70 62 -84 18 -33
20 -131 4 -212 -18 -88 -21 -96 -47 -128 -13 -15 -28 -40 -33 -57 l-11 -30 -6
30 c-13 55 -58 170 -85 213 -16 26 -41 50 -66 62 -22 11 -69 52 -104 91 -82
91 -130 123 -173 117 -24 -4 -48 3 -86 24 -30 16 -98 39 -152 52 -108 27 -145
43 -176 78 -35 37 -38 63 -13 106 16 27 20 46 15 65 -12 50 -46 28 -46 -30 0
-33 -5 -27 -13 14 -9 46 14 66 64 58 21 -4 45 -2 54 3 16 8 16 10 0 25 -9 10
-32 17 -51 17 -19 0 -34 4 -34 10 0 17 23 60 32 60 16 0 68 64 68 82 0 23 -8
23 -33 1 -19 -18 -20 -17 -13 30 8 55 -5 62 -33 16 l-19 -30 -6 35 c-8 43 -23
46 -37 9 -11 -27 -5 -66 16 -117 7 -16 6 -17 -14 -7 -12 7 -25 10 -30 7 -4 -3
-18 8 -30 24 -42 57 -35 204 10 191 36 -11 77 -12 83 -3 8 13 -41 52 -66 52
-19 0 -19 1 1 29 12 16 37 39 56 51 41 26 59 18 69 -30 7 -35 57 -92 64 -72 2
7 -5 30 -16 52 -21 43 -18 48 12 25 20 -15 96 -21 96 -8 0 4 -12 19 -26 34
-24 25 -32 27 -74 22 -31 -4 -50 -1 -55 7 -8 13 31 60 51 60 6 0 34 -20 62
-45z m970 22 c11 -12 15 -32 13 -75 -1 -43 2 -62 14 -72 13 -11 15 -8 17 21 1
19 1 47 0 64 l-3 29 46 -47 c24 -26 50 -47 56 -47 15 0 3 49 -18 72 -8 9 -12
22 -8 27 11 18 22 12 29 -14 7 -28 35 -34 37 -7 1 11 3 9 8 -7 9 -33 31 -39
32 -9 l0 23 10 -24 c8 -19 5 -32 -15 -62 -14 -21 -37 -46 -51 -56 -66 -46
-100 -82 -124 -133 -15 -31 -36 -65 -48 -77 -12 -12 -45 -70 -74 -130 -51
-102 -54 -112 -54 -185 0 -43 -1 -78 -2 -78 -13 0 -164 120 -183 145 -14 18
-43 58 -66 87 -48 63 -99 188 -90 223 21 85 154 249 252 312 67 43 71 44 137
40 45 -3 74 -10 85 -20z m99 6 c-27 -8 -56 -11 -65 -7 -12 6 -4 10 28 14 75
11 88 9 37 -7z m153 10 c0 -5 -5 -15 -10 -23 -8 -12 -10 -11 -10 8 0 12 5 22
10 22 6 0 10 -3 10 -7z m-1715 -33 c3 -6 -1 -7 -9 -4 -18 7 -21 14 -7 14 6 0
13 -4 16 -10z m2335 -27 c-1 -37 -1 -37 -14 -14 -15 28 -21 21 -30 -34 -12
-73 -25 -73 -23 0 2 71 6 77 60 84 4 1 7 -16 7 -36z m353 1 c3 -3 1 -14 -6
-24 -8 -14 -8 -25 0 -43 15 -32 7 -62 -22 -81 -21 -14 -22 -13 -17 10 4 24
-21 74 -37 74 -17 0 -21 -31 -9 -76 12 -42 11 -46 -12 -69 l-25 -25 1 45 c1
50 -15 59 -35 21 -8 -14 -10 -36 -6 -54 5 -27 3 -33 -22 -45 -25 -13 -217 -67
-237 -67 -5 0 6 16 24 36 17 20 36 47 42 60 7 14 26 33 44 44 17 11 83 61 144
110 79 64 120 90 140 90 14 0 29 -3 33 -6z m122 -31 c-22 -7 -50 -25 -63 -38
-13 -14 -24 -25 -26 -25 -1 0 -1 19 0 43 2 23 3 42 3 42 1 0 29 -2 63 -4 l63
-3 -40 -15z m-3111 -5 c26 -36 18 -52 -9 -20 -14 17 -25 33 -25 36 0 14 20 4
34 -16z m292 12 c23 0 36 -7 48 -25 16 -25 16 -25 -24 -31 -22 -4 -40 -10 -40
-15 0 -16 42 -30 82 -27 34 2 44 -2 57 -22 15 -23 15 -24 -1 -12 -18 14 -78 8
-78 -8 0 -18 34 -33 76 -32 50 0 64 -15 64 -70 -1 -27 -2 -30 -11 -16 -9 16
-86 44 -95 35 -8 -8 60 -67 78 -67 11 0 20 -10 24 -26 7 -28 -3 -154 -15 -186
-7 -19 -8 -19 -24 6 -13 20 -26 26 -52 26 -19 0 -35 -4 -35 -9 0 -12 49 -51
64 -51 6 0 58 -50 116 -112 115 -122 112 -135 -15 -58 -35 21 -85 50 -112 64
-44 22 -103 86 -130 141 -15 30 -90 332 -98 393 -7 50 -5 56 21 83 20 21 35
28 49 25 11 -3 34 -6 51 -6z m3018 1 c21 -5 53 -24 71 -41 27 -26 34 -42 37
-80 3 -43 1 -46 -17 -42 -16 4 -18 2 -7 -9 6 -7 12 -23 12 -36 0 -13 5 -32 12
-42 10 -16 7 -25 -18 -58 l-29 -38 -3 30 c-6 51 -17 48 -47 -12 -40 -81 -71
-113 -111 -113 -17 0 -51 -7 -74 -15 -57 -20 -87 -19 -116 4 l-25 19 36 12
c50 17 44 32 -12 30 -27 -2 -55 -2 -64 -1 -16 1 -139 107 -139 120 0 12 76 51
99 51 17 0 21 -6 21 -30 0 -29 29 -70 50 -70 13 0 13 31 0 66 -13 33 -8 39 19
24 16 -8 21 -20 21 -48 0 -37 14 -62 33 -62 5 0 7 20 5 45 l-5 44 37 -19 c28
-14 39 -27 44 -51 6 -33 22 -59 36 -59 12 0 10 83 -2 97 -8 10 -2 13 28 13 61
0 87 10 73 26 -6 8 -23 14 -38 15 -23 1 -22 2 7 9 76 18 57 49 -21 35 -23 -3
-66 -10 -94 -14 -51 -7 -52 -6 -36 11 9 11 32 26 50 35 38 18 37 22 -9 33 -31
7 -29 8 17 9 37 1 58 7 80 26 l30 24 -45 1 c-29 0 -71 -11 -115 -30 -39 -16
-78 -30 -89 -30 -33 0 1 27 54 45 31 10 60 29 77 50 25 30 34 34 78 34 28 0
67 -4 89 -8z m184 -10 c9 -5 -5 -10 -40 -14 -40 -5 -56 -3 -67 8 -14 13 -9 15
39 15 30 0 61 -4 68 -9z m-2268 -41 c0 -13 -1 -13 -10 0 -5 8 -10 22 -10 30 0
13 1 13 10 0 5 -8 10 -22 10 -30z m805 -16 c-6 -52 -55 -157 -90 -194 -23 -25
-95 -167 -95 -189 0 -6 -4 -11 -9 -11 -5 0 -12 -8 -14 -17 -3 -12 -5 -9 -6 8
-2 38 35 174 64 237 14 31 45 76 68 101 24 25 52 61 62 79 11 17 21 32 23 32
1 0 0 -21 -3 -46z m1493 -1 c6 -20 -26 -27 -56 -13 l-27 13 25 8 c33 10 52 7
58 -8z m-3388 -153 c17 -80 34 -154 37 -165 7 -25 4 -22 -39 40 -29 42 -34 57
-30 92 3 34 0 43 -17 52 -19 11 -21 9 -21 -16 l0 -28 -20 25 c-24 31 -28 100
-5 100 9 0 24 13 33 30 9 16 20 26 23 22 4 -4 21 -72 39 -152z m2474 112 c-7
-32 -24 -45 -24 -17 0 16 22 57 27 51 2 -1 0 -17 -3 -34z m900 -17 c13 -14 12
-20 -16 -61 -31 -46 -31 -46 -44 -23 -10 19 -10 30 2 58 8 18 14 35 14 37 0
10 30 2 44 -11z m-861 -37 c-11 -13 -29 -39 -41 -58 -31 -52 -87 -103 -108
-98 -16 3 -13 7 13 21 18 10 44 38 59 65 26 46 70 92 88 92 5 0 0 -10 -11 -22z
m392 12 c17 -4 23 -8 14 -9 -9 0 -28 -10 -43 -22 -18 -14 -37 -19 -63 -17
l-38 3 27 28 c28 27 48 31 103 17z m-2888 -42 c-3 -8 -6 -5 -6 6 -1 11 2 17 5
13 3 -3 4 -12 1 -19z m1716 -39 c-41 -85 -94 -337 -94 -449 -1 -37 -11 -70
-21 -64 -8 5 -9 -1 -4 -17 21 -76 20 -74 2 -58 -10 8 -25 22 -34 32 -9 9 -22
17 -29 17 -44 0 -60 157 -24 235 l19 40 3 -40 c1 -37 2 -36 9 15 8 60 39 142
47 122 3 -6 25 30 50 80 41 86 77 138 93 138 4 0 -4 -23 -17 -51z m290 4 l-18
-28 29 23 c33 25 46 28 46 8 0 -18 96 -60 211 -93 101 -29 90 -30 271 17 l87
23 64 -59 c35 -32 63 -61 61 -63 -2 -2 -28 15 -58 38 -66 50 -85 51 -236 16
l-108 -25 -96 20 c-53 11 -104 24 -114 29 -9 4 -42 11 -72 15 -63 8 -126 -10
-241 -69 -38 -19 -69 -33 -69 -30 0 3 -12 -2 -26 -12 l-27 -17 13 24 c7 14 21
36 30 50 10 14 17 28 16 32 -1 7 246 136 252 132 2 -1 -5 -15 -15 -31z m987
-3 c-20 -13 -70 -13 -70 0 0 6 19 10 43 10 31 0 38 -3 27 -10z m386 -39 c-10
-11 -30 -22 -44 -26 -15 -3 -35 -8 -45 -11 -16 -5 -17 -3 -8 14 7 13 28 23 58
30 27 5 50 10 52 11 2 0 -4 -8 -13 -18z m-2909 -73 c-3 -7 -5 -2 -5 12 0 14 2
19 5 13 2 -7 2 -19 0 -25z m2208 -27 c24 -22 79 -61 123 -86 44 -26 83 -52 85
-59 5 -12 -80 -42 -91 -32 -2 3 3 17 12 31 16 24 16 25 -4 25 -11 0 -36 -15
-54 -34 -47 -47 -117 -58 -153 -24 -14 13 -29 30 -33 38 -7 13 -3 15 23 13 40
-4 80 22 57 38 -8 5 -34 8 -57 5 -26 -4 -45 -1 -51 7 -8 10 -2 12 29 9 30 -3
39 -1 39 11 0 20 -38 47 -56 40 -20 -8 -88 7 -78 17 9 8 123 37 153 39 8 1 33
-17 56 -38z m-2285 -64 c0 -14 -4 -16 -19 -7 -25 13 -34 27 -26 40 9 14 45
-12 45 -33z m47 -30 c-6 -19 -22 -6 -25 20 -2 27 -2 27 13 8 8 -10 14 -23 12
-28z m1603 -8 c0 -6 -4 -7 -10 -4 -5 3 -10 11 -10 16 0 6 5 7 10 4 6 -3 10
-11 10 -16z m990 -13 c0 -2 -8 -10 -17 -17 -16 -13 -17 -12 -4 4 13 16 21 21
21 13z m-2655 -52 c0 -44 0 -45 -17 -23 -10 11 -18 32 -18 45 0 16 6 24 18 24
14 0 17 -9 17 -46z m2798 31 c49 -20 51 -29 12 -41 -28 -9 -32 -8 -27 4 4 13
-5 14 -56 9 -72 -6 -80 5 -19 26 56 19 50 19 90 2z m-1106 -27 c-3 -7 -5 -2
-5 12 0 14 2 19 5 13 2 -7 2 -19 0 -25z m1214 -12 c5 -16 14 -33 21 -37 9 -6
6 -9 -9 -9 -13 0 -24 6 -25 13 0 6 -2 17 -2 24 -1 7 -10 19 -21 28 -20 15 -19
16 4 13 18 -2 27 -11 32 -32z m-1224 -21 l22 -45 -34 36 c-19 20 -32 40 -29
45 10 17 19 9 41 -36z m-1676 -45 c35 -41 53 -66 39 -56 -28 22 -110 119 -110
131 0 5 2 6 4 4 2 -2 32 -38 67 -79z m1719 63 c0 -5 -5 -15 -10 -23 -8 -12
-10 -11 -10 8 0 12 5 22 10 22 6 0 10 -3 10 -7z m930 -8 c14 -8 38 -14 54 -15
41 0 23 -14 -22 -17 -20 -1 -53 -5 -74 -9 -31 -5 -37 -3 -43 15 -3 11 -3 25 0
31 9 14 56 12 85 -5z m-1060 -36 c0 -11 -4 -19 -9 -19 -10 0 -21 24 -21 47 0
13 3 13 15 3 8 -7 15 -21 15 -31z m930 31 c0 -5 -6 -10 -12 -10 -7 0 -31 -2
-53 -5 l-40 -5 30 14 c35 17 75 20 75 6z m-870 -65 c6 -3 10 -16 10 -28 0 -13
-3 -17 -8 -11 -4 6 -17 16 -29 23 -21 11 -23 9 -23 -13 0 -14 10 -34 21 -45
17 -16 20 -27 15 -55 -8 -44 -16 -45 -39 -7 -23 39 -21 86 5 148 23 51 23 51
31 23 4 -16 12 -32 17 -35z m763 15 c47 -29 56 -43 37 -55 -11 -7 -14 -78 -3
-88 3 -4 14 5 24 19 16 26 17 26 28 7 6 -11 8 -23 4 -26 -3 -4 0 -20 6 -36 15
-35 1 -71 -29 -71 -28 0 -32 15 -10 43 26 33 25 37 -6 37 -17 0 -38 -12 -60
-37 l-33 -36 -38 27 c-72 51 -75 53 -71 81 l3 27 39 -27 c64 -43 62 -9 -4 64
-51 56 -53 88 -7 94 66 8 74 6 120 -23z m415 5 c0 -17 -6 -25 -19 -25 -10 0
-21 5 -24 10 -3 6 -18 10 -33 10 -16 0 -22 4 -16 9 8 8 23 12 80 20 6 0 12
-10 12 -24z m-2775 -25 c7 -26 5 -26 -22 11 -21 28 -21 30 -3 20 11 -6 22 -20
25 -31z m2483 -7 c-3 -4 -21 1 -39 10 -27 13 -29 16 -10 16 12 1 25 6 29 13 5
8 11 5 17 -10 6 -12 7 -25 3 -29z m164 22 c0 -2 -10 -10 -22 -16 -21 -11 -22
-11 -9 4 13 16 31 23 31 12z m-3139 -24 c13 -11 21 -22 18 -26 -4 -3 -20 5
-35 19 -34 29 -18 35 17 7z m3046 2 c-9 -9 -19 -14 -23 -11 -10 10 6 28 24 28
15 0 15 -1 -1 -17z m-76 -23 c10 0 19 -4 19 -10 0 -16 -47 -11 -61 7 -12 15
-12 16 4 10 10 -4 27 -7 38 -7z m144 -22 c18 -44 12 -46 -24 -10 -17 16 -27
32 -24 36 15 15 35 4 48 -26z m-1650 -14 c17 -14 21 -21 10 -15 -30 14 -61 40
-50 41 6 0 24 -12 40 -26z m853 -10 c2 -15 -9 -32 -35 -53 -47 -39 -56 -22
-22 39 25 44 52 50 57 14z m755 -38 c22 -23 30 -27 37 -16 6 9 12 5 24 -18 21
-40 21 -40 -10 -34 -17 3 -36 -3 -55 -17 -17 -12 -40 -21 -52 -19 -19 3 -18 6
16 26 45 26 40 47 -9 39 -30 -5 -34 -3 -34 17 0 12 -5 27 -12 34 -9 9 -4 9 22
2 42 -12 48 -6 24 22 -19 22 -19 23 1 8 11 -8 33 -28 48 -44z m-1647 3 c19
-22 19 -22 -3 -10 -24 12 -39 31 -25 31 5 0 17 -10 28 -21z m537 -59 c3 -25 2
-38 -2 -30 -12 22 -22 95 -12 84 5 -5 11 -29 14 -54z m387 13 c-11 -15 -34
-35 -51 -45 l-29 -18 6 28 c9 36 22 51 58 66 38 16 44 5 16 -31z m-326 -7 c14
-27 16 -38 7 -55 -18 -32 -28 -25 -34 22 -2 23 -8 50 -12 60 -13 31 19 9 39
-27z m-1591 -8 c10 -5 17 -11 15 -14 -5 -4 -181 26 -188 32 -8 9 154 -8 173
-18z m-142 -21 c-14 -6 -27 -18 -29 -26 -4 -11 3 -13 31 -8 40 6 60 -7 24 -17
-28 -7 -77 -8 -77 -1 0 4 7 19 15 35 10 20 23 30 38 30 22 0 22 0 -2 -13z m62
-4 c-7 -2 -19 -2 -25 0 -7 3 -2 5 12 5 14 0 19 -2 13 -5z m2810 -35 c3 -9 -10
-13 -44 -15 -54 -1 -61 3 -26 17 32 13 64 12 70 -2z m-948 -27 c-3 -12 -10
-21 -15 -21 -5 0 -4 11 2 25 13 29 23 26 13 -4z m711 -16 c28 -22 28 -24 11
-42 -9 -11 -17 -31 -17 -46 0 -25 1 -25 28 -12 15 8 30 25 33 37 6 21 7 21 14
5 4 -10 3 -29 -3 -43 -10 -20 -19 -24 -55 -24 -49 0 -68 15 -90 70 -29 71 -30
78 -5 82 33 5 51 0 84 -27z m104 -15 l0 -49 -44 42 c-41 39 -42 42 -22 49 11
3 31 6 44 7 20 1 22 -4 22 -49z m-2692 -17 c-3 -47 -4 -48 -33 -45 -16 2 -31
5 -33 7 -6 6 20 61 35 73 28 21 34 14 31 -35z m787 -43 c10 -11 16 -20 13 -20
-3 0 -13 9 -23 20 -10 11 -16 20 -13 20 3 0 13 -9 23 -20z m-140 -40 c10 -11
16 -20 13 -20 -3 0 -13 9 -23 20 -10 11 -16 20 -13 20 3 0 13 -9 23 -20z
m1051 -71 c-9 -19 -29 -58 -45 -86 -31 -55 -32 -93 -2 -93 9 -1 29 -22 46 -48
22 -34 31 -42 33 -29 2 10 -7 27 -22 38 -31 24 -33 39 -6 39 24 0 42 -32 38
-68 -2 -22 -9 -28 -38 -33 -19 -3 -48 -10 -64 -14 -27 -7 -29 -6 -23 16 6 23
5 23 -8 5 -8 -11 -15 -26 -15 -33 0 -7 -4 -13 -10 -13 -5 0 -10 -6 -10 -14 0
-16 -27 -29 -32 -15 -2 5 -14 -12 -28 -38 -14 -27 -33 -57 -44 -68 -19 -20
-19 -20 -12 5 3 14 9 50 12 80 7 62 39 124 60 116 8 -3 17 8 24 30 12 35 25
43 33 22 3 -7 6 8 6 33 1 38 8 57 39 97 20 28 45 65 55 83 23 41 33 31 13 -12z
m-786 -31 c0 -17 -10 -6 -25 25 l-16 32 20 -25 c11 -14 21 -28 21 -32z m49
-99 c8 -27 9 -45 2 -57 -9 -15 -10 -15 -11 4 0 12 -6 40 -14 62 -12 32 -12 40
-2 36 7 -3 18 -23 25 -45z m-10 -1185 c12 -19 16 -32 11 -29 -11 7 -43 65 -36
65 2 0 13 -16 25 -36z m675 -106 c19 -17 33 -34 31 -38 -3 -4 2 -13 10 -20 18
-15 20 -30 4 -30 -7 0 -32 10 -56 22 -40 20 -47 21 -76 8 -30 -12 -61 -14
-144 -10 -18 1 -33 6 -33 11 0 5 -8 9 -17 10 -10 0 11 7 47 14 36 7 90 25 120
39 30 14 60 26 67 26 6 0 27 -14 47 -32z m-434 -4 c0 -2 -9 0 -20 6 -11 6 -20
13 -20 16 0 2 9 0 20 -6 11 -6 20 -13 20 -16z m-582 -104 c-17 -33 -25 -40
-50 -40 -16 0 -42 -7 -58 -15 -25 -13 -30 -13 -30 -2 0 27 41 67 68 67 15 0
38 7 52 14 38 21 39 19 18 -24z m965 33 c-7 -2 -19 -2 -25 0 -7 3 -2 5 12 5
14 0 19 -2 13 -5z m-333 -48 c16 10 51 -5 44 -17 -5 -8 -1 -9 11 -4 26 10 91
-4 73 -16 -9 -7 -7 -8 8 -3 22 6 76 -13 70 -24 -2 -3 22 -25 53 -49 l56 -43
-50 47 c-27 25 -40 41 -28 35 32 -16 84 -71 77 -82 -9 -15 -83 -10 -117 8 -18
9 -37 16 -43 15 -18 -4 -37 25 -23 34 8 4 9 3 5 -4 -5 -8 -1 -10 10 -5 13 5
15 3 9 -8 -4 -8 -5 -11 -1 -7 5 4 25 -2 44 -13 37 -19 72 -27 40 -8 -10 5 -20
10 -23 10 -3 -1 -33 17 -66 39 -34 22 -67 40 -73 40 -6 -1 5 -9 24 -20 19 -11
30 -19 25 -20 -14 0 -162 87 -171 101 -4 8 0 8 15 0 12 -7 26 -9 31 -6z m-463
-122 c-3 -10 -5 -2 -5 17 0 19 2 27 5 18 2 -10 2 -26 0 -35z m-457 13 c0 -2
-8 -10 -17 -17 -16 -13 -17 -12 -4 4 13 16 21 21 21 13z"/>
<path d="M3366 3464 c-4 -14 -5 -28 -3 -31 3 -2 8 8 11 23 4 14 5 28 3 31 -3
2 -8 -8 -11 -23z"/>
<path d="M2182 3365 c-6 -14 -8 -25 -3 -25 8 0 23 41 17 47 -1 2 -8 -8 -14
-22z"/>
<path d="M2527 3095 c9 -19 18 -33 21 -31 4 5 -26 66 -33 66 -3 0 3 -16 12
-35z"/>
<path d="M2340 2963 c0 -8 32 -35 85 -72 24 -17 13 -6 -42 44 -24 20 -43 33
-43 28z"/>
<path d="M2390 2956 c0 -2 8 -10 18 -17 15 -13 16 -12 3 4 -13 16 -21 21 -21
13z"/>
<path d="M2485 2855 c11 -9 29 -21 40 -26 l20 -10 -20 16 c-11 9 -29 21 -40
26 l-20 10 20 -16z"/>
<path d="M2910 2637 c0 -3 23 -24 50 -47 28 -23 50 -40 50 -37 0 3 -22 24 -50
47 -27 23 -50 40 -50 37z"/>
<path d="M2950 2536 c0 -2 8 -10 18 -17 15 -13 16 -12 3 4 -13 16 -21 21 -21
13z"/>
<path d="M3087 2255 c15 -30 29 -53 31 -51 4 5 -46 106 -53 106 -3 0 7 -25 22
-55z"/>
<path d="M3057 2090 c3 -14 12 -41 20 -60 11 -30 12 -31 8 -6 -4 16 -13 43
-20 60 -11 23 -13 25 -8 6z"/>
<path d="M2812 2070 c0 -14 2 -19 5 -12 2 6 2 18 0 25 -3 6 -5 1 -5 -13z"/>
<path d="M2975 1998 c4 -13 11 -27 16 -33 5 -5 4 5 -2 23 -12 36 -24 44 -14
10z"/>
<path d="M2842 1985 c0 -16 2 -22 5 -12 2 9 2 23 0 30 -3 6 -5 -1 -5 -18z"/>
<path d="M3071 1970 c0 -8 4 -22 9 -30 12 -18 12 -2 0 25 -6 13 -9 15 -9 5z"/>
<path d="M2902 1950 c0 -14 4 -36 8 -50 6 -20 8 -21 8 -5 0 11 -4 34 -8 50 -7
27 -8 27 -8 5z"/>
<path d="M2852 1920 c0 -14 2 -19 5 -12 2 6 2 18 0 25 -3 6 -5 1 -5 -13z"/>
<path d="M3031 1914 c0 -11 3 -14 6 -6 3 7 2 16 -1 19 -3 4 -6 -2 -5 -13z"/>
<path d="M3072 1900 c0 -14 2 -19 5 -12 2 6 2 18 0 25 -3 6 -5 1 -5 -13z"/>
<path d="M3042 1870 c0 -14 2 -19 5 -12 2 6 2 18 0 25 -3 6 -5 1 -5 -13z"/>
<path d="M2942 1850 c0 -14 2 -19 5 -12 2 6 2 18 0 25 -3 6 -5 1 -5 -13z"/>
<path d="M2863 1790 c0 -41 2 -58 4 -37 2 20 2 54 0 75 -2 20 -4 3 -4 -38z"/>
<path d="M2690 1813 c0 -22 22 -26 38 -7 16 17 16 17 -1 4 -16 -12 -20 -12
-28 1 -5 9 -9 10 -9 2z"/>
<path d="M2843 1770 c0 -30 2 -43 4 -27 2 15 2 39 0 55 -2 15 -4 2 -4 -28z"/>
<path d="M2992 1745 c0 -16 2 -22 5 -12 2 9 2 23 0 30 -3 6 -5 -1 -5 -18z"/>
<path d="M2670 1744 c0 -8 5 -12 10 -9 6 4 8 11 5 16 -9 14 -15 11 -15 -7z"/>
<path d="M2692 1690 c-7 -19 -15 -93 -17 -165 -3 -128 -3 -129 4 -30 5 55 14
121 21 146 16 61 9 98 -8 49z"/>
<path d="M2826 1664 c-4 -20 -5 -38 -3 -40 3 -3 8 11 11 32 4 20 5 38 3 40 -3
3 -8 -11 -11 -32z"/>
<path d="M2852 1680 c0 -14 2 -19 5 -12 2 6 2 18 0 25 -3 6 -5 1 -5 -13z"/>
<path d="M2841 1634 c0 -11 3 -14 6 -6 3 7 2 16 -1 19 -3 4 -6 -2 -5 -13z"/>
<path d="M2772 1620 c0 -14 2 -19 5 -12 2 6 2 18 0 25 -3 6 -5 1 -5 -13z"/>
<path d="M2811 1594 c0 -11 3 -14 6 -6 3 7 2 16 -1 19 -3 4 -6 -2 -5 -13z"/>
<path d="M2832 1590 c0 -14 2 -19 5 -12 2 6 2 18 0 25 -3 6 -5 1 -5 -13z"/>
<path d="M2623 1500 c0 -41 2 -58 4 -37 2 20 2 54 0 75 -2 20 -4 3 -4 -38z"/>
<path d="M2822 1540 c0 -14 2 -19 5 -12 2 6 2 18 0 25 -3 6 -5 1 -5 -13z"/>
<path d="M2812 1475 c0 -16 2 -22 5 -12 2 9 2 23 0 30 -3 6 -5 -1 -5 -18z"/>
<path d="M2721 1470 c1 -8 5 -26 9 -40 l8 -25 1 25 c0 14 -4 32 -9 40 -9 13
-10 13 -9 0z"/>
<path d="M2782 1400 c0 -19 2 -27 5 -17 2 9 2 25 0 35 -3 9 -5 1 -5 -18z"/>
<path d="M2631 1374 c0 -11 3 -14 6 -6 3 7 2 16 -1 19 -3 4 -6 -2 -5 -13z"/>
<path d="M2683 1355 c0 -22 2 -30 4 -17 2 12 2 30 0 40 -3 9 -5 -1 -4 -23z"/>
<path d="M2652 1325 c0 -16 2 -22 5 -12 2 9 2 23 0 30 -3 6 -5 -1 -5 -18z"/>
<path d="M2763 1285 c0 -33 2 -45 4 -27 2 18 2 45 0 60 -2 15 -4 0 -4 -33z"/>
<path d="M2692 1290 c0 -14 2 -19 5 -12 2 6 2 18 0 25 -3 6 -5 1 -5 -13z"/>
<path d="M2775 1228 c-6 -36 -8 -39 -15 -23 -5 11 -9 16 -9 10 -1 -15 27 -112
29 -100 0 6 7 -3 15 -20 11 -23 13 -24 7 -5 -4 14 -6 43 -6 65 1 31 0 35 -7
20 -5 -13 -6 1 -3 38 7 66 0 77 -11 15z"/>
<path d="M3012 2975 c0 -16 2 -22 5 -12 2 9 2 23 0 30 -3 6 -5 -1 -5 -18z"/>
<path d="M3004 2845 c0 -55 1 -76 3 -47 2 29 2 74 0 100 -2 26 -3 2 -3 -53z"/>
<path d="M3012 2715 c0 -16 2 -22 5 -12 2 9 2 23 0 30 -3 6 -5 -1 -5 -18z"/>
<path d="M3340 2076 c0 -9 5 -16 10 -16 6 0 10 4 10 9 0 6 -4 13 -10 16 -5 3
-10 -1 -10 -9z"/>
<path d="M3028 753 c7 -3 16 -2 19 1 4 3 -2 6 -13 5 -11 0 -14 -3 -6 -6z"/>
<path d="M2020 2580 c8 -5 26 -10 39 -10 32 0 24 6 -19 14 -25 4 -31 3 -20 -4z"/>
<path d="M2170 2565 c14 -8 30 -14 35 -14 6 0 -1 6 -15 14 -14 8 -29 14 -35
14 -5 0 1 -6 15 -14z"/>
<path d="M2170 2535 c25 -13 50 -24 55 -24 6 0 -10 11 -35 24 -25 13 -49 24
-55 24 -5 0 10 -11 35 -24z"/>
<path d="M2560 2273 c0 -15 29 -49 30 -35 0 7 -7 20 -15 28 -8 9 -15 11 -15 7z"/>
<path d="M2652 1920 c0 -19 2 -27 5 -17 2 9 2 25 0 35 -3 9 -5 1 -5 -18z"/>
<path d="M2671 1934 c0 -11 3 -14 6 -6 3 7 2 16 -1 19 -3 4 -6 -2 -5 -13z"/>
<path d="M2582 1840 c0 -14 2 -19 5 -12 2 6 2 18 0 25 -3 6 -5 1 -5 -13z"/>
<path d="M2501 1714 c0 -11 3 -14 6 -6 3 7 2 16 -1 19 -3 4 -6 -2 -5 -13z"/>
<path d="M2542 1615 c0 -16 2 -22 5 -12 2 9 2 23 0 30 -3 6 -5 -1 -5 -18z"/>
<path d="M2551 1514 c0 -11 3 -14 6 -6 3 7 2 16 -1 19 -3 4 -6 -2 -5 -13z"/>
<path d="M2543 1445 c0 -22 2 -30 4 -17 2 12 2 30 0 40 -3 9 -5 -1 -4 -23z"/>
<path d="M2471 1434 c0 -11 3 -14 6 -6 3 7 2 16 -1 19 -3 4 -6 -2 -5 -13z"/>
<path d="M2552 1350 c0 -19 2 -27 5 -17 2 9 2 25 0 35 -3 9 -5 1 -5 -18z"/>
<path d="M2316 1245 c-7 -45 11 -108 22 -75 3 7 0 16 -7 18 -8 3 -9 19 -5 53
4 27 4 49 1 49 -2 0 -8 -20 -11 -45z"/>
<path d="M2610 1161 c0 -10 19 -25 25 -20 1 2 -3 10 -11 17 -8 7 -14 8 -14 3z"/>
<path d="M2550 1016 c0 -11 30 -66 36 -66 2 0 -3 15 -12 33 -19 36 -24 44 -24
33z"/>
<path d="M2605 910 c9 -16 18 -30 21 -30 2 0 -2 14 -11 30 -9 17 -18 30 -21
30 -2 0 2 -13 11 -30z"/>
<path d="M2773 905 c0 -19 33 -49 41 -37 3 5 -5 19 -18 31 -17 16 -23 18 -23
6z"/>
<path d="M2480 901 c0 -5 7 -11 14 -14 10 -4 13 -1 9 9 -6 15 -23 19 -23 5z"/>
<path d="M3213 793 c9 -2 25 -2 35 0 9 3 1 5 -18 5 -19 0 -27 -2 -17 -5z"/>
<path d="M2384 779 c-4 -8 -3 -9 4 -5 17 11 15 -9 -3 -24 -8 -7 -15 -18 -15
-24 0 -6 7 -3 14 7 10 13 15 15 19 5 2 -7 4 -1 4 15 1 30 -12 44 -23 26z"/>
<path d="M3258 743 c23 -2 59 -2 80 0 20 2 1 4 -43 4 -44 0 -61 -2 -37 -4z"/>
<path d="M2025 730 c-7 -12 19 -24 37 -17 7 3 3 6 -10 6 -13 1 -20 5 -17 11 3
6 4 10 1 10 -3 0 -8 -5 -11 -10z"/>
<path d="M3448 717 c12 -13 22 -29 22 -36 0 -7 4 -9 10 -6 11 7 -28 65 -44 65
-5 0 0 -10 12 -23z"/>
<path d="M2542 710 c0 -14 2 -19 5 -12 2 6 2 18 0 25 -3 6 -5 1 -5 -13z"/>
<path d="M2610 725 c0 -5 5 -17 10 -25 5 -8 10 -10 10 -5 0 6 -5 17 -10 25 -5
8 -10 11 -10 5z"/>
<path d="M2280 659 c0 -5 5 -7 10 -4 6 3 10 8 10 11 0 2 -4 4 -10 4 -5 0 -10
-5 -10 -11z"/>
</g>
</svg>
