<?xml version="1.0" standalone="no"?>
<!DOCTYPE svg PUBLIC "-//W3C//DTD SVG 20010904//EN"
 "http://www.w3.org/TR/2001/REC-SVG-20010904/DTD/svg10.dtd">
<svg version="1.0" xmlns="http://www.w3.org/2000/svg"
 width="601.000000pt" height="601.000000pt" viewBox="0 0 601.000000 601.000000"
 preserveAspectRatio="xMidYMid meet">
<metadata>
Created by potrace 1.16, written by Peter Selinger 2001-2019
</metadata>
<g transform="translate(0.000000,601.000000) scale(0.100000,-0.100000)"
fill="#000000" stroke="none">
<path d="M2940 4770 l0 -430 -52 -41 c-97 -76 -141 -94 -243 -94 -98 0 -83 -5
-269 94 -68 36 -121 40 -181 12 -31 -14 -218 -131 -233 -146 -1 -1 20 -17 47
-34 65 -42 113 -96 151 -170 16 -33 30 -63 30 -66 0 -3 -200 -5 -445 -5 l-445
0 0 -70 0 -70 480 0 480 0 31 -62 c119 -235 231 -325 542 -433 l107 -38 0
-1198 0 -1199 70 0 70 0 0 1175 c0 646 2 1175 5 1175 14 0 165 -65 204 -88 69
-40 178 -149 234 -232 58 -87 95 -130 114 -130 33 0 -109 232 -201 328 -114
119 -198 165 -511 277 -235 84 -287 109 -364 181 -76 70 -186 233 -230 339
-59 144 -88 200 -122 240 -35 40 -98 74 -136 75 -43 0 -23 18 61 54 123 52
177 51 276 -9 90 -53 152 -70 234 -62 127 12 240 69 368 185 99 90 135 110
298 167 160 55 237 96 345 180 88 69 140 121 204 204 l43 55 -7 -40 c-31 -192
-104 -284 -308 -390 -49 -25 -87 -48 -84 -50 3 -3 58 9 123 25 65 16 121 28
123 25 13 -13 -66 -137 -120 -192 -106 -105 -270 -172 -426 -172 -80 0 -93
-12 -35 -31 75 -26 242 -5 375 47 17 6 17 5 1 -37 -61 -155 -196 -270 -369
-314 -65 -16 -218 -20 -277 -6 -68 16 -40 -7 45 -36 72 -24 94 -27 187 -25 58
1 439 4 848 7 l742 5 0 70 0 70 -615 0 c-346 0 -615 4 -615 9 0 5 6 14 13 20
21 16 84 158 101 225 13 49 25 69 71 114 65 65 102 135 113 218 7 51 16 71 55
120 25 32 51 73 57 89 32 81 34 250 4 262 -15 6 -52 -22 -188 -140 -161 -140
-214 -171 -431 -247 -66 -23 -139 -53 -162 -66 l-43 -25 0 366 0 365 -70 0
-70 0 0 -430z"/>
</g>
</svg>
