<?xml version="1.0" standalone="no"?>
<!DOCTYPE svg PUBLIC "-//W3C//DTD SVG 20010904//EN"
 "http://www.w3.org/TR/2001/REC-SVG-20010904/DTD/svg10.dtd">
<svg version="1.0" xmlns="http://www.w3.org/2000/svg"
 width="600.000000pt" height="601.000000pt" viewBox="0 0 600.000000 601.000000"
 preserveAspectRatio="xMidYMid meet">
<metadata>
Created by potrace 1.16, written by Peter Selinger 2001-2019
</metadata>
<g transform="translate(0.000000,601.000000) scale(0.100000,-0.100000)"
fill="#000000" stroke="none">
<path d="M3443 4634 c-28 -8 -127 -41 -218 -74 -286 -104 -270 -102 -622 -64
-202 22 -265 25 -418 21 -433 -14 -711 -113 -931 -332 -94 -93 -163 -195 -240
-353 -46 -96 -68 -128 -138 -200 -153 -161 -176 -204 -136 -255 22 -28 78 -62
87 -54 3 3 -5 19 -18 36 -22 30 -22 32 -7 64 16 33 94 109 227 219 58 48 67
61 100 143 63 156 129 253 251 369 139 130 309 224 498 273 89 23 109 24 257
20 139 -5 184 -11 345 -47 324 -71 446 -85 527 -56 22 8 76 37 120 64 183 115
294 153 453 155 76 1 103 -3 135 -19 21 -10 40 -23 42 -29 1 -5 -16 -23 -38
-40 -99 -73 -159 -190 -140 -274 10 -47 50 -110 92 -145 50 -42 211 -219 292
-320 245 -307 425 -687 501 -1056 40 -198 56 -363 56 -598 0 -192 -3 -225 -27
-340 -30 -143 -35 -265 -14 -305 14 -27 42 -41 101 -52 53 -11 127 -54 156
-93 15 -19 36 -57 46 -86 19 -49 60 -237 54 -244 -6 -5 -226 141 -291 192 -80
64 -109 98 -152 179 -20 38 -47 76 -60 84 -21 14 -25 14 -43 -2 -11 -10 -20
-23 -20 -30 0 -33 -64 -98 -125 -127 -59 -27 -108 -39 -339 -82 -114 -21 -163
-46 -182 -93 -15 -35 -12 -82 8 -113 7 -11 8 -9 4 9 -17 79 72 124 384 191
107 23 215 50 239 61 24 11 45 18 46 17 1 -2 10 -17 18 -34 21 -40 90 -111
147 -151 94 -64 396 -225 425 -227 25 -1 30 3 33 24 5 41 -65 298 -102 377
-56 118 -145 187 -258 200 l-50 6 7 41 c96 587 81 1034 -50 1485 -116 399
-361 817 -648 1105 -100 100 -127 138 -127 181 0 43 19 65 102 121 154 105
174 152 86 211 -28 18 -77 38 -117 47 -86 20 -256 20 -328 0z"/>
<path d="M2780 3533 c-83 -7 -76 -16 30 -34 398 -68 762 -268 1045 -573 120
-128 197 -240 270 -391 129 -267 175 -474 175 -793 0 -128 2 -154 15 -159 9
-3 19 -2 23 2 13 12 14 302 2 407 -78 683 -470 1228 -1047 1454 -169 66 -370
101 -513 87z"/>
<path d="M1765 3426 c-44 -7 -159 -32 -255 -54 -301 -70 -473 -91 -553 -69
-19 5 -27 4 -22 -2 13 -22 121 -44 215 -44 108 0 193 12 365 53 296 70 439 85
509 56 19 -8 67 -37 109 -65 41 -28 92 -58 113 -67 130 -55 339 -80 419 -50
38 15 75 50 63 61 -2 2 -30 -6 -63 -17 -39 -14 -86 -21 -135 -21 -89 -1 -134
17 -285 113 -141 90 -200 112 -310 116 -49 2 -126 -3 -170 -10z"/>
<path d="M4127 1540 c-64 -16 -113 -47 -207 -130 -49 -43 -99 -84 -111 -90
-11 -7 -18 -14 -16 -17 5 -4 66 29 167 92 20 13 61 35 90 51 56 29 90 32 245
22 34 -3 40 0 40 16 0 47 -118 78 -208 56z"/>
</g>
</svg>
