<?xml version="1.0" standalone="no"?>
<!DOCTYPE svg PUBLIC "-//W3C//DTD SVG 20010904//EN"
 "http://www.w3.org/TR/2001/REC-SVG-20010904/DTD/svg10.dtd">
<svg version="1.0" xmlns="http://www.w3.org/2000/svg"
 width="601.000000pt" height="601.000000pt" viewBox="0 0 601.000000 601.000000"
 preserveAspectRatio="xMidYMid meet">
<metadata>
Created by potrace 1.16, written by Peter Selinger 2001-2019
</metadata>
<g transform="translate(0.000000,601.000000) scale(0.100000,-0.100000)"
fill="#000000" stroke="none">
<path d="M2916 5602 c-3 -5 3 -44 14 -86 14 -60 17 -98 13 -161 l-6 -84 41
-41 c22 -23 45 -54 52 -70 7 -16 25 -35 41 -42 33 -15 44 -39 88 -193 38 -136
78 -313 126 -555 48 -244 63 -358 71 -515 l6 -130 -47 85 c-25 46 -62 107 -82
134 -32 44 -36 57 -37 120 -2 57 2 81 22 124 32 69 27 140 -17 240 -18 40 -35
92 -39 115 -6 33 -12 43 -30 45 -21 3 -22 0 -22 -68 l0 -71 -27 19 c-16 11
-52 32 -82 47 -65 33 -134 31 -181 -4 l-30 -21 -41 30 c-74 54 -122 34 -71
-29 41 -51 72 -111 72 -139 l0 -23 -32 25 c-18 13 -45 28 -60 31 -24 6 -28 4
-28 -13 0 -12 12 -38 26 -59 14 -21 40 -65 56 -98 46 -91 95 -152 145 -181 39
-23 52 -26 104 -21 53 5 65 2 96 -19 20 -13 50 -24 67 -24 36 -1 72 -43 139
-167 l41 -77 -35 27 c-65 49 -144 79 -217 80 -61 2 -67 0 -70 -19 -2 -17 4
-23 29 -28 22 -4 58 -32 119 -94 47 -48 114 -111 148 -140 42 -36 65 -64 69
-83 3 -16 9 -32 14 -35 4 -2 6 -11 2 -19 -10 -27 -48 -15 -110 35 -34 28 -69
50 -78 50 -10 0 -38 -11 -64 -25 -46 -24 -265 -117 -308 -130 -13 -3 -26 -17
-29 -30 -3 -13 -16 -26 -30 -29 -13 -4 -35 -21 -50 -40 -24 -30 -31 -33 -65
-29 -26 4 -52 -2 -91 -19 -57 -27 -165 -119 -178 -153 -4 -11 -4 -77 1 -145
l8 -124 -33 -28 c-49 -40 -69 -97 -68 -198 0 -63 6 -103 24 -155 24 -70 25
-70 91 -103 l67 -34 -50 -45 c-82 -74 -86 -147 -10 -185 53 -27 189 -24 303 7
l27 7 0 -93 c0 -159 24 -199 119 -199 30 0 44 -5 53 -20 8 -12 24 -20 39 -20
39 0 299 135 368 191 l59 47 4 -52 3 -53 -47 -17 c-56 -20 -148 -101 -184
-162 -56 -95 -40 -206 47 -320 27 -36 49 -73 49 -83 0 -10 -16 -49 -35 -87
-28 -56 -54 -86 -140 -164 -58 -52 -140 -118 -183 -147 -68 -46 -77 -50 -80
-32 -2 10 17 49 41 87 60 90 82 157 73 228 -12 101 -59 168 -187 263 -57 42
-89 52 -89 27 0 -7 -24 -50 -54 -95 -62 -93 -81 -156 -74 -249 7 -101 62 -163
183 -207 66 -24 69 -27 61 -68 -6 -32 -13 -37 -94 -75 -110 -50 -213 -85 -344
-114 -88 -20 -130 -23 -295 -23 -146 0 -193 -3 -193 -12 0 -21 32 -30 130 -37
231 -16 540 47 750 154 l43 22 60 -24 c58 -23 60 -25 95 -98 48 -101 129 -184
191 -194 24 -3 57 -14 73 -22 47 -24 61 -13 54 44 -4 26 -16 76 -28 111 -38
119 -144 191 -279 191 -33 0 -69 5 -80 11 -19 10 -14 15 54 60 41 27 115 84
164 127 l88 79 40 -14 40 -13 0 -78 c0 -64 5 -86 28 -130 35 -66 96 -128 151
-152 45 -20 354 -48 401 -36 31 8 33 41 5 89 -12 20 -24 68 -31 118 -14 118
-27 154 -72 205 -57 65 -106 87 -204 92 -89 5 -163 -12 -215 -50 -25 -17 -33
-18 -65 -7 l-37 12 44 40 c61 55 167 122 255 163 41 19 75 34 78 34 2 0 17
-19 34 -43 18 -25 54 -55 85 -72 47 -26 62 -30 133 -29 99 1 167 26 247 88 31
25 71 66 89 92 40 59 161 324 155 341 -11 27 -138 55 -271 60 -221 8 -347 -37
-434 -157 l-26 -36 4 78 c3 70 -1 88 -35 183 -40 109 -50 119 -88 90 -11 -8
-23 -15 -28 -15 -12 0 -10 148 3 192 10 38 22 47 35 27 14 -24 90 -49 149 -49
49 0 75 7 132 34 135 65 188 135 199 266 8 98 18 130 59 182 38 48 46 98 20
134 -18 27 -74 54 -110 54 -22 0 -26 3 -20 18 5 9 15 43 24 75 15 54 14 61 -4
125 -20 70 -21 104 -10 187 l7 50 -94 61 c-90 59 -299 155 -365 169 l-33 7 0
197 0 197 49 112 c62 140 92 193 131 226 30 24 86 46 123 46 28 0 21 39 -9 46
-89 23 -235 -27 -282 -96 l-24 -35 5 145 c4 111 13 188 41 330 48 239 48 241
93 265 21 11 48 36 61 55 12 19 35 39 51 46 42 18 52 55 49 179 -2 61 1 131 6
158 8 44 7 47 -13 47 -15 0 -30 -16 -53 -57 -17 -31 -50 -72 -72 -92 -109 -98
-107 -95 -105 -153 1 -30 -4 -64 -10 -77 -8 -15 -11 -39 -7 -66 5 -30 -5 -98
-34 -241 -23 -109 -44 -239 -47 -289 l-7 -90 -23 115 c-52 263 -105 493 -143
618 -30 101 -38 137 -30 152 13 24 13 96 0 120 -7 13 -7 21 0 25 5 3 10 24 10
47 0 38 -6 46 -99 137 -54 53 -102 106 -105 119 -7 21 -39 31 -50 14z m178
-222 c20 -22 36 -43 36 -47 0 -4 -10 -17 -22 -30 -21 -22 -21 -25 -6 -51 28
-47 27 -92 -1 -92 -14 0 -24 13 -36 43 -10 26 -27 49 -45 59 -28 16 -30 21
-30 80 l1 63 24 -40 c13 -22 28 -46 33 -54 4 -8 14 -11 20 -7 18 11 14 47 -8
84 -27 44 -10 40 34 -8z m556 -307 c0 -78 -8 -96 -44 -97 -20 -1 -31 -11 -48
-46 -16 -30 -30 -46 -45 -48 -28 -4 -30 20 -7 67 13 26 14 38 5 57 -14 32 -4
52 48 93 l40 32 -11 -38 c-5 -21 -15 -44 -21 -51 -7 -9 -6 -17 6 -29 24 -25
44 -1 59 68 7 32 13 59 15 59 2 0 3 -30 3 -67z m-637 -619 c73 -38 105 -72
116 -125 23 -107 7 -175 -50 -215 -43 -30 -65 -28 -120 8 -39 27 -79 99 -79
143 1 16 7 47 14 67 13 36 74 138 83 138 2 0 18 -7 36 -16z m-143 -45 c-7 -11
-14 -18 -17 -15 -3 3 0 12 7 21 18 21 23 19 10 -6z m319 -128 c1 -74 -5 -61
-12 24 -3 42 -2 62 3 50 5 -11 9 -44 9 -74z m-361 67 c7 -7 12 -38 12 -72 l-1
-61 -24 28 c-43 49 -30 148 13 105z m90 -258 c23 -14 42 -28 42 -32 0 -15 -34
-8 -75 17 -42 24 -71 57 -113 127 -20 31 -14 28 41 -25 35 -34 82 -73 105 -87z
m592 25 c-17 -25 -44 -73 -61 -107 l-29 -63 5 45 c8 63 41 125 78 149 18 11
33 21 35 21 2 0 -11 -20 -28 -45z m-364 -81 c-7 -18 -50 -18 -65 0 -9 10 -3
19 26 38 l38 25 3 -24 c2 -14 1 -31 -2 -39z m89 -315 c46 -33 86 -84 105 -133
10 -28 10 -27 -37 12 -27 22 -79 73 -118 112 -68 70 -69 71 -32 56 21 -8 58
-30 82 -47z m65 -365 c131 -98 196 -159 209 -194 l10 -30 -32 23 c-58 43 -143
63 -206 49 -30 -7 -39 -4 -65 21 -17 16 -56 41 -86 56 -48 22 -68 26 -150 26
-52 0 -111 -3 -130 -8 -77 -17 6 23 215 102 39 15 79 32 90 38 14 8 23 8 35 0
8 -7 58 -44 110 -83z m273 -60 c158 -66 292 -155 277 -184 -15 -28 -12 -104 6
-174 30 -116 -5 -204 -127 -321 -84 -80 -141 -115 -189 -115 -43 0 -40 32 9
86 46 48 65 105 81 233 10 85 2 153 -20 166 -25 16 -50 87 -50 143 0 70 -10
85 -111 172 -65 56 -67 59 -36 54 17 -4 90 -30 160 -60z m-486 -49 c60 -25
109 -63 138 -107 15 -22 24 -42 22 -44 -9 -10 -126 15 -164 34 -43 23 -136 42
-197 42 -49 0 -74 -16 -152 -95 -52 -53 -140 -112 -151 -101 -15 15 149 257
182 270 9 3 35 7 58 7 23 1 56 5 72 10 42 11 147 3 192 -16z m-457 -79 c0 -2
-15 -27 -34 -55 -43 -64 -76 -150 -76 -200 0 -21 -11 -64 -25 -95 -14 -31 -25
-67 -25 -80 0 -37 190 -219 270 -259 61 -30 70 -32 180 -32 163 0 188 9 286
108 45 46 90 100 101 122 16 31 43 150 43 189 0 3 4 6 9 6 16 0 41 -80 41
-133 0 -69 -35 -143 -91 -191 -64 -55 -231 -134 -327 -154 -100 -20 -183 -9
-281 39 -93 46 -196 152 -246 252 -34 69 -39 90 -47 189 -5 61 -7 122 -3 135
9 37 81 109 138 138 45 22 87 32 87 21z m778 -21 c48 -21 79 -50 104 -100 12
-22 33 -55 47 -74 23 -31 26 -43 25 -117 -3 -122 -25 -189 -84 -246 -27 -26
-63 -54 -79 -63 l-31 -16 21 53 c33 84 41 129 34 192 -7 64 -37 133 -60 143
-10 3 -15 19 -15 43 0 28 -8 46 -29 69 -23 24 -61 105 -61 128 0 10 96 1 128
-12z m-433 -30 c151 -26 232 -164 191 -325 -25 -95 -122 -267 -141 -248 -4 4
18 50 49 101 67 110 89 175 81 232 -14 98 -87 149 -215 150 -68 0 -81 -4 -140
-36 -40 -22 -72 -48 -84 -68 -18 -31 -18 -36 -3 -126 20 -120 35 -148 92 -174
25 -12 65 -31 91 -42 25 -12 43 -23 41 -25 -8 -8 -143 38 -177 60 -43 28 -91
121 -98 187 -7 77 34 164 118 248 66 66 96 83 140 75 8 -1 33 -5 55 -9z m288
-89 c58 -31 70 -61 53 -133 -8 -32 -17 -79 -21 -104 -8 -60 -27 -94 -105 -184
-84 -97 -117 -103 -59 -11 90 144 115 304 64 414 l-24 52 27 -6 c15 -4 44 -16
65 -28z m-216 -70 c34 -17 48 -32 57 -62 6 -20 4 -20 -50 7 -141 72 -263 4
-264 -145 0 -70 -10 -67 -21 7 -4 28 -10 68 -14 88 -6 32 -3 40 22 63 55 51
101 68 175 62 36 -2 80 -11 95 -20z m-423 -51 c-20 -48 -18 -101 7 -176 29
-89 53 -125 105 -155 60 -36 184 -74 242 -75 l47 -1 -40 -10 c-61 -14 -157 -1
-222 32 -38 19 -90 61 -152 124 l-93 94 31 78 c29 73 63 124 82 124 4 0 1 -16
-7 -35z m369 -29 c28 -7 28 -7 -25 -34 -42 -22 -60 -38 -87 -84 -18 -32 -38
-55 -43 -51 -14 8 -2 85 17 124 17 31 68 61 95 54 8 -2 28 -6 43 -9z m32 -82
c-80 -41 -115 -83 -115 -139 0 -23 -18 -34 -33 -19 -7 7 25 73 56 118 21 30
88 66 122 66 12 0 1 -10 -30 -26z m55 -56 c-22 -42 -94 -148 -101 -148 -3 0
-12 7 -20 16 -11 13 -10 23 2 57 11 34 25 48 68 74 30 18 56 31 59 29 2 -2 -2
-15 -8 -28z m-682 -53 c15 -41 87 -140 140 -193 21 -21 43 -56 50 -80 16 -53
69 -107 147 -152 l59 -33 -40 -14 c-72 -26 -130 -13 -227 50 -48 31 -105 66
-126 76 -91 47 -122 264 -50 355 27 34 32 33 47 -9z m1566 -50 c14 -13 26 -28
26 -34 0 -5 -18 -31 -40 -56 -22 -25 -40 -47 -40 -48 -1 -1 -7 -53 -14 -114
-15 -128 -35 -170 -109 -224 -95 -71 -180 -88 -265 -54 -55 22 -87 61 -107
131 l-16 55 33 37 c18 20 42 56 52 80 17 38 22 42 55 42 20 0 56 9 80 21 47
21 181 124 181 138 0 5 15 18 33 30 44 29 97 27 131 -4z m-524 -209 c-45 -93
-186 -188 -320 -215 -43 -9 -65 -8 -100 2 l-45 13 60 13 c67 14 232 88 281
126 17 13 40 44 50 68 13 32 27 47 53 58 34 14 36 14 39 -3 2 -10 -6 -38 -18
-62z m-106 52 c-14 -47 -46 -77 -121 -116 -43 -22 -118 -52 -167 -66 -49 -14
-104 -34 -122 -45 l-33 -20 -82 44 c-94 51 -144 88 -160 116 -10 20 -9 20 13
5 92 -60 248 -76 381 -38 75 21 200 79 262 121 37 26 38 26 29 -1z m45 -328
c1 -135 -76 -214 -327 -336 l-114 -55 -19 20 c-14 15 -27 19 -49 14 -39 -7
-89 14 -95 41 -8 43 -15 311 -8 321 5 6 26 18 48 28 35 17 40 17 51 3 14 -20
38 -21 53 -2 11 12 18 12 54 -5 82 -37 219 -16 332 50 l50 29 12 -26 c7 -15
12 -52 12 -82z m-839 44 c30 -20 57 -28 110 -32 69 -5 70 -5 64 -31 -4 -14
-16 -34 -28 -43 -65 -53 -306 -43 -306 11 0 25 27 59 73 92 22 16 42 29 44 29
2 0 21 -12 43 -26z m900 -376 c-1 -13 -38 -124 -72 -212 l-42 -110 -14 35
c-19 45 -46 194 -39 212 6 17 167 88 167 75z m85 -148 c5 -22 0 -32 -30 -58
-19 -18 -49 -39 -67 -48 -29 -15 -31 -15 -23 2 4 11 24 65 43 121 l36 103 17
-46 c10 -25 21 -59 24 -74z m-251 -175 c25 -64 25 -67 9 -108 -9 -23 -19 -46
-24 -51 -4 -4 -22 11 -39 35 -86 117 -92 201 -22 303 l26 38 13 -75 c7 -41 24
-105 37 -142z m719 173 c-26 -29 -58 -93 -67 -134 -6 -28 -17 -36 -79 -64 -40
-18 -78 -35 -86 -38 -21 -8 -7 70 24 133 44 91 89 119 199 124 l29 1 -20 -22z
m172 -2 l50 -12 -122 -62 -122 -62 10 30 c16 45 87 120 112 119 12 0 45 -6 72
-13z m-422 -76 c-14 -30 -31 -85 -37 -121 l-10 -67 -50 -21 c-27 -11 -52 -19
-54 -16 -3 3 -5 23 -4 45 3 80 54 163 130 211 25 16 47 28 48 26 2 -2 -9 -27
-23 -57z m457 -40 c-38 -96 -84 -182 -109 -202 -19 -15 -34 -18 -60 -13 -47 9
-157 54 -170 69 -8 10 33 34 172 104 100 50 183 91 184 91 2 1 -6 -21 -17 -49z
m-692 -21 c-13 -37 -113 -146 -158 -173 l-32 -18 7 23 c32 101 40 113 116 156
41 23 75 42 76 42 1 1 -3 -13 -9 -30z m42 -43 c-5 -15 -10 -56 -10 -92 0 -40
-4 -64 -11 -64 -15 0 -204 -95 -240 -121 -34 -24 -34 -23 -14 24 10 25 30 43
72 67 74 42 165 129 188 180 20 44 32 49 15 6z m281 -122 c39 -27 160 -73 194
-74 18 0 18 -2 -5 -21 -81 -65 -193 -93 -278 -69 -44 11 -132 81 -132 104 0 6
28 22 63 36 34 13 73 30 87 37 32 16 28 17 71 -13z m-1157 -74 c20 -71 56
-253 51 -258 -6 -7 -131 61 -157 85 -29 28 -30 58 -1 118 23 46 77 123 84 119
3 -2 14 -31 23 -64z m104 7 l23 -24 -24 -54 -24 -54 -13 59 c-7 33 -18 77 -26
98 l-13 39 27 -20 c15 -10 37 -30 50 -44z m82 -177 c0 -30 -10 -66 -31 -110
-34 -73 -42 -70 -53 20 -6 50 -3 63 25 125 l33 69 12 -29 c7 -17 13 -50 14
-75z m-209 -108 c76 -37 87 -46 91 -71 l4 -29 -50 20 c-65 25 -112 61 -132
100 -9 16 -12 28 -7 26 4 -2 47 -23 94 -46z m931 22 c36 -18 85 -60 98 -85 8
-13 1 -14 -63 -7 -44 6 -89 5 -118 -1 -44 -10 -51 -8 -121 28 -69 36 -73 39
-54 51 66 42 191 48 258 14z m-212 -115 c95 -51 180 -115 180 -135 0 -8 9 -40
20 -71 11 -32 20 -59 20 -62 0 -2 -34 -1 -75 2 -89 6 -146 35 -194 96 -42 52
-61 101 -61 154 0 71 7 72 110 16z m322 -39 c23 -11 28 -21 33 -69 3 -31 8
-66 11 -79 4 -19 -9 -12 -73 41 -43 35 -98 79 -123 97 l-45 32 85 -4 c47 -3
97 -11 112 -18z m32 -222 c21 -17 20 -18 -26 -18 -27 0 -48 2 -48 4 0 2 -11
29 -25 61 l-26 58 52 -44 c28 -24 61 -52 73 -61z m-711 17 c37 -15 97 -62 97
-75 0 -6 -120 68 -139 86 -8 8 7 4 42 -11z m19 -90 c71 -50 137 -119 126 -130
-2 -3 -27 2 -55 10 -53 16 -116 72 -147 133 -30 58 -22 56 76 -13z"/>
</g>
</svg>
