<?xml version="1.0" standalone="no"?>
<!DOCTYPE svg PUBLIC "-//W3C//DTD SVG 20010904//EN"
 "http://www.w3.org/TR/2001/REC-SVG-20010904/DTD/svg10.dtd">
<svg version="1.0" xmlns="http://www.w3.org/2000/svg"
 width="97px" height="97px" viewBox="0 0 601.000000 601.000000"
 preserveAspectRatio="xMidYMid meet">
<metadata>
Created by potrace 1.16, written by Peter Selinger 2001-2019
</metadata>
<g transform="translate(0.000000,601.000000) scale(0.100000,-0.100000)"
fill="#000000" stroke="none">
<path d="M2780 4530 l0 -570 -485 0 -485 0 0 -235 0 -235 485 0 485 0 0 -1290
0 -1290 235 0 235 0 0 1290 0 1290 485 0 485 0 0 235 0 235 -485 0 -485 0 0
570 0 570 -235 0 -235 0 0 -570z m420 -50 l0 -570 485 0 485 0 0 -185 0 -185
-485 0 -485 0 0 -1290 0 -1290 -185 0 -185 0 0 1290 0 1290 -485 0 -485 0 0
185 0 185 485 0 485 0 0 570 0 570 185 0 185 0 0 -570z"/>
<path d="M2930 4380 l0 -570 -485 0 -485 0 0 -85 0 -85 485 0 485 0 0 -1290 0
-1290 85 0 85 0 0 1290 0 1290 485 0 485 0 0 85 0 85 -485 0 -485 0 0 570 0
570 -85 0 -85 0 0 -570z"/>
</g>
</svg>
