<?xml version="1.0" standalone="no"?>
<!DOCTYPE svg PUBLIC "-//W3C//DTD SVG 20010904//EN"
 "http://www.w3.org/TR/2001/REC-SVG-20010904/DTD/svg10.dtd">
<svg version="1.0" xmlns="http://www.w3.org/2000/svg"
 width="97px" height="97px" viewBox="0 0 600.000000 600.000000"
 preserveAspectRatio="xMidYMid meet">
<metadata>
Created by potrace 1.16, written by Peter Selinger 2001-2019
</metadata>
<g transform="translate(0.000000,600.000000) scale(0.100000,-0.100000)"
fill="#000000" stroke="none">
<path d="M2461 5614 c-36 -25 -61 -91 -61 -159 0 -47 8 -78 35 -139 50 -115
51 -124 17 -197 -106 -228 -159 -444 -169 -682 -5 -120 -8 -135 -18 -110 -29
68 -91 77 -137 20 -16 -20 -45 -41 -66 -48 -54 -17 -62 -27 -62 -76 0 -82 39
-127 163 -188 47 -23 86 -49 92 -61 6 -12 17 -29 24 -37 10 -13 9 -49 -9 -199
-43 -375 -82 -545 -165 -713 -59 -122 -127 -211 -210 -279 -32 -26 -51 -47
-44 -51 11 -8 29 5 104 77 l50 47 1 -38 c2 -46 35 -112 70 -140 14 -11 71 -35
125 -52 54 -18 105 -39 113 -48 8 -9 26 -29 41 -44 l25 -28 -49 -56 c-148
-166 -184 -335 -162 -772 13 -267 11 -364 -15 -556 -12 -96 -46 -252 -56 -259
-2 -1 -21 -8 -44 -14 -57 -17 -120 -65 -143 -111 -23 -44 -29 -79 -35 -199 -3
-53 -10 -91 -20 -107 -27 -41 7 -32 49 12 l34 38 1 -27 c0 -44 15 -33 33 25 9
28 53 126 97 216 l80 164 358 -7 c341 -7 361 -6 436 13 103 27 229 88 288 140
25 23 49 41 54 41 4 0 29 14 55 30 l47 31 29 -28 c104 -99 217 -179 289 -204
94 -33 236 -21 295 24 24 18 40 53 33 72 -11 27 -133 82 -224 100 -47 9 -89
20 -94 23 -5 3 11 10 36 17 81 20 236 125 275 185 12 19 29 42 37 50 24 26 54
92 77 172 19 65 21 82 11 115 -15 50 -71 116 -119 138 -41 20 -141 23 -186 6
-23 -9 -30 -6 -60 24 -31 31 -41 35 -89 35 -70 0 -164 -45 -213 -102 -28 -33
-37 -39 -49 -29 -9 8 -12 24 -9 50 7 49 -21 81 -71 81 -51 0 -97 -37 -131
-105 -29 -57 -30 -66 -30 -185 1 -69 5 -180 11 -247 6 -88 6 -123 -2 -123 -6
0 -10 -20 -10 -47 2 -97 -82 -186 -218 -234 -100 -35 -207 -41 -468 -28 -130
6 -262 9 -293 7 l-56 -5 38 40 c21 21 126 109 233 195 230 184 355 306 431
422 55 82 99 181 99 220 0 10 26 70 58 132 33 62 64 127 69 143 7 22 34 47 89
85 44 30 81 57 84 62 3 4 33 1 65 -7 70 -17 180 -18 320 -5 139 14 196 32 234
75 44 51 42 85 -9 125 -38 30 -40 34 -40 89 0 69 -18 98 -67 107 -47 9 -162
-12 -218 -40 -50 -26 -50 -27 18 63 66 87 87 134 87 200 0 49 -3 57 -40 94
l-40 40 -88 -8 c-135 -12 -152 -9 -232 29 -125 60 -213 41 -278 -62 -87 -135
-84 -235 14 -451 55 -123 72 -200 49 -234 -10 -16 -14 -45 -13 -93 1 -47 -6
-96 -23 -154 l-24 -85 -7 90 c-4 50 -24 176 -45 280 -33 169 -37 208 -37 345
0 165 14 257 59 388 34 102 54 134 98 167 22 17 61 57 87 91 47 61 47 61 75
47 15 -8 64 -21 109 -29 44 -7 124 -22 176 -34 272 -57 513 22 631 209 34 53
38 109 11 134 -30 28 -208 23 -313 -7 -46 -13 -119 -33 -161 -44 l-78 -20 50
45 c68 61 113 126 180 257 58 115 88 222 76 270 -4 15 -1 26 6 28 19 7 13 169
-10 281 -26 125 -57 179 -120 211 -86 43 -149 58 -220 54 -84 -5 -140 -31
-218 -102 -60 -54 -60 -54 -89 -38 -41 22 -131 21 -177 -1 -107 -53 -218 -235
-218 -357 0 -37 -2 -40 -19 -30 -11 5 -29 10 -40 10 -14 0 -21 6 -21 20 0 33
-36 94 -63 109 -54 29 -145 -18 -178 -93 -65 -148 -11 -326 192 -626 125 -185
157 -239 152 -262 -4 -17 29 -91 53 -118 10 -13 9 -27 -7 -85 -63 -229 -65
-530 -6 -831 41 -203 53 -318 42 -389 -6 -44 -15 -57 -93 -134 -48 -48 -118
-106 -157 -130 -62 -38 -67 -40 -44 -14 30 32 98 133 123 180 21 41 21 92 0
122 -16 22 -21 23 -83 17 -56 -5 -70 -3 -96 14 -62 41 -113 20 -157 -63 -30
-58 -29 -141 4 -227 31 -80 43 -140 28 -140 -5 0 -10 -21 -10 -48 0 -37 -5
-53 -21 -68 -12 -10 -82 -110 -156 -222 -75 -112 -137 -201 -139 -199 -2 2 4
46 15 98 39 189 43 276 36 659 -7 391 -3 449 40 573 32 92 74 155 181 268 96
101 138 171 150 250 4 24 18 67 31 94 28 62 30 101 3 117 -17 11 -20 24 -20
88 0 174 -33 331 -138 665 -38 121 -78 254 -87 297 -18 73 -18 80 0 160 25
116 76 257 127 345 59 103 189 239 299 312 171 115 302 163 544 201 77 12 180
31 228 42 l88 20 57 -35 c99 -61 285 -107 348 -87 57 19 72 77 33 132 -18 25
-20 38 -15 89 6 54 5 61 -17 83 -29 29 -78 40 -152 34 -56 -5 -70 -13 -206
-114 -39 -28 -82 -43 -271 -94 -259 -68 -366 -104 -496 -165 -321 -151 -497
-373 -590 -745 -8 -32 -10 -28 -17 45 -15 152 9 350 71 599 27 107 50 161 82
190 17 15 30 17 71 11 40 -5 51 -4 51 7 0 8 -5 19 -12 26 -9 9 -5 12 22 12 33
0 33 0 14 21 l-19 21 70 -8 c101 -13 176 -7 300 23 137 32 184 52 217 92 54
64 41 139 -30 179 -49 27 -67 48 -81 97 -24 77 -34 96 -62 110 -45 24 -107 18
-176 -14 l-62 -29 -9 28 c-16 44 -45 55 -109 40 -47 -12 -58 -11 -89 3 -44 21
-73 21 -103 1z m46 -26 c-3 -8 -6 -5 -6 6 -1 11 2 17 5 13 3 -3 4 -12 1 -19z
m35 -40 c-5 -95 -9 -104 -11 -25 0 42 2 77 7 77 4 0 6 -24 4 -52z m30 -35 c-2
-43 -8 -96 -12 -118 -6 -31 -8 -19 -9 55 -1 96 5 140 19 140 4 0 5 -35 2 -77z
m145 40 c-3 -10 -5 -4 -5 12 0 17 2 24 5 18 2 -7 2 -21 0 -30z m-107 -5 c-5
-18 -11 -62 -15 -98 -3 -36 -10 -72 -16 -80 -9 -15 -8 10 7 158 4 34 10 52 19
52 10 0 11 -8 5 -32z m19 -37 c-5 -36 -12 -67 -15 -70 -7 -7 5 104 13 126 10
26 11 8 2 -56z m255 -18 c-31 -49 -63 -95 -71 -103 -20 -21 71 140 95 168 40
44 31 21 -24 -65z m-406 -3 c0 -8 -6 1 -13 20 -7 19 -13 42 -13 50 0 8 6 -1
13 -20 7 -19 13 -42 13 -50z m505 68 c-30 -50 -84 -128 -88 -128 -6 0 37 69
69 113 20 27 34 38 19 15z m-306 -30 c-3 -7 -5 -2 -5 12 0 14 2 19 5 13 2 -7
2 -19 0 -25z m172 -31 c-32 -59 -46 -73 -33 -34 9 28 54 100 60 95 2 -3 -10
-30 -27 -61z m161 50 c0 -2 -10 -12 -22 -23 l-23 -19 19 23 c18 21 26 27 26
19z m-363 -29 c-3 -8 -6 -5 -6 6 -1 11 2 17 5 13 3 -3 4 -12 1 -19z m172 -15
c-10 -21 -32 -67 -49 -103 -17 -36 -44 -81 -61 -100 l-30 -35 25 41 c14 23 37
70 51 105 23 53 70 129 80 129 2 0 -5 -17 -16 -37z m-372 5 c-3 -8 -6 -5 -6 6
-1 11 2 17 5 13 3 -3 4 -12 1 -19z m563 -36 c-19 -15 -78 -67 -130 -117 -66
-62 -78 -72 -40 -30 141 154 184 195 195 184 7 -8 0 -19 -25 -37z m-530 -102
c0 -17 -35 54 -44 91 -3 13 5 2 19 -26 14 -27 25 -57 25 -65z m556 58 c-9 -5
-50 -37 -92 -71 -134 -109 -167 -128 -84 -47 41 40 100 95 130 121 50 44 55
47 58 27 2 -12 -3 -25 -12 -30z m37 -21 c3 -8 -20 -31 -61 -58 -37 -25 -94
-64 -127 -86 -33 -23 -71 -44 -85 -48 -19 -5 -16 0 15 21 22 15 74 55 115 89
119 97 134 106 143 82z m-34 -81 c-78 -56 -157 -101 -129 -73 30 30 173 127
187 127 9 0 -18 -24 -58 -54z m56 14 c-3 -5 -20 -19 -38 -30 -32 -22 -32 -22
3 9 37 32 45 37 35 21z m59 -11 c-7 -12 -109 -79 -120 -79 -7 0 117 90 124 90
2 0 0 -5 -4 -11z m26 -45 c-17 -19 -99 -68 -106 -62 -3 4 104 77 115 78 2 0
-2 -7 -9 -16z m690 -65 c-30 -26 -84 -62 -70 -46 11 12 95 77 100 76 3 0 -11
-13 -30 -30z m129 27 c-10 -9 -69 -36 -69 -32 0 7 52 35 64 36 5 0 7 -2 5 -4z
m-174 -16 c-3 -5 -16 -15 -28 -21 -19 -9 -19 -8 3 10 28 23 34 26 25 11z
m-1247 -30 c-7 -11 -17 -20 -22 -20 -5 0 -1 9 9 20 10 11 20 20 22 20 2 0 -2
-9 -9 -20z m377 -5 c-16 -8 -37 -14 -45 -14 -8 0 1 7 20 14 46 18 64 17 25 0z
m1085 -25 c-8 -6 -24 -10 -35 -10 -11 0 -31 -2 -45 -5 -14 -3 0 4 30 14 54 18
78 19 50 1z m-1033 -26 c-3 -3 -12 -4 -19 -1 -8 3 -5 6 6 6 11 1 17 -2 13 -5z
m1033 -2 c0 -8 -181 -44 -187 -38 -5 5 139 44 165 45 12 1 22 -3 22 -7z
m-1135 -22 c-38 -10 -101 -18 -140 -18 -63 0 -66 1 -30 9 41 8 184 26 220 26
11 1 -11 -7 -50 -17z m1135 -14 c0 -9 -21 -15 -72 -19 -40 -4 -88 -9 -105 -13
-18 -4 -33 -2 -33 3 0 4 42 16 93 24 120 21 117 21 117 5z m-30 -37 c-25 -4
-61 -7 -80 -7 l-35 1 35 7 c19 4 55 7 80 7 l45 0 -45 -8z m-240 -49 c8 -5 11
-10 5 -10 -5 0 -17 5 -25 10 -8 5 -10 10 -5 10 6 0 17 -5 25 -10z m248 3 c-15
-2 -42 -2 -60 0 -18 2 -6 4 27 4 33 0 48 -2 33 -4z m20 -30 c-16 -2 -40 -2
-55 0 -16 2 -3 4 27 4 30 0 43 -2 28 -4z m-472 -470 c-37 -56 -116 -247 -131
-317 -8 -38 -14 -50 -14 -32 -1 30 64 287 81 321 18 34 51 65 70 65 17 0 16
-3 -6 -37z m-81 -30 c-23 -59 -67 -230 -86 -336 -17 -91 -22 -59 -10 57 13
121 56 293 78 319 33 36 41 19 18 -40z m145 52 c0 -2 -21 -34 -46 -70 -53 -76
-112 -209 -121 -272 -3 -24 -10 -43 -14 -43 -11 0 -11 -5 5 55 20 77 106 273
133 306 22 25 43 38 43 24z m56 -19 c9 -24 -15 -122 -46 -183 -16 -32 -52 -80
-81 -108 -60 -58 -61 -60 13 76 59 108 88 177 88 210 0 22 18 25 26 5z m44
-29 c0 -19 -60 -160 -66 -155 -1 2 6 28 16 58 11 30 19 72 20 92 0 29 3 36 15
32 8 -4 15 -15 15 -27z m-306 -24 c-26 -84 -43 -175 -53 -292 -5 -63 -15 -118
-21 -125 -10 -8 -11 -3 -6 24 4 19 10 98 15 175 9 138 15 169 49 233 24 47 33
39 16 -15z m207 -5 c-15 -44 -164 -310 -156 -278 19 78 64 181 107 247 51 78
68 89 49 31z m144 22 c18 -20 17 -22 -20 -95 -39 -78 -126 -187 -153 -194 -10
-2 -3 11 16 33 43 50 122 208 122 246 0 35 10 38 35 10z m-411 -57 c-8 -25
-14 -62 -14 -82 0 -27 -3 -32 -10 -21 -18 29 -12 102 12 127 12 13 23 23 24
23 1 0 -4 -21 -12 -47z m427 -68 c-34 -69 -114 -165 -138 -165 -9 0 3 20 31
52 25 28 62 86 83 128 27 53 40 72 46 62 6 -9 -2 -36 -22 -77z m-649 43 c-78
-84 -127 -330 -88 -440 13 -35 12 -38 -5 -38 -45 0 -74 106 -58 216 16 112
108 284 152 284 20 0 20 0 -1 -22z m68 14 c0 -4 -6 -16 -14 -27 -45 -65 -115
-356 -103 -431 7 -43 2 -43 -20 -1 -34 66 -14 255 39 361 30 60 98 128 98 98z
m-155 -54 c-40 -66 -63 -121 -76 -188 -15 -77 -6 -182 20 -225 17 -29 18 -34
4 -39 -39 -15 -67 76 -60 194 6 120 39 215 89 263 21 20 41 37 44 37 3 0 -7
-19 -21 -42z m202 31 c8 -8 1 -27 -24 -67 -42 -70 -71 -162 -84 -267 -19 -150
-20 -152 -31 -131 -32 58 40 393 99 459 19 20 25 21 40 6z m569 -56 c-21 -62
-85 -147 -115 -151 -20 -3 -17 3 23 53 26 31 58 79 72 106 31 62 42 58 20 -8z
m-569 -82 c-52 -99 -87 -216 -87 -298 0 -33 -4 -53 -11 -53 -16 0 -4 130 21
238 28 118 91 235 113 213 8 -8 -1 -36 -36 -100z m570 6 c-14 -23 -35 -51 -48
-62 -25 -22 -19 -8 18 41 12 17 28 46 35 65 9 24 13 29 16 16 2 -10 -8 -37
-21 -60z m-516 -13 c-32 -44 -89 -193 -102 -270 -13 -75 -29 -106 -29 -58 0
92 37 221 93 323 36 66 42 72 50 54 7 -16 4 -28 -12 -49z m-364 -1 c-22 -61
-28 -182 -15 -258 l7 -40 -16 35 c-23 51 -27 110 -13 187 10 55 42 133 54 133
2 0 -6 -26 -17 -57z m-790 -10 c47 -70 55 -83 51 -83 -6 0 -98 127 -98 134 0
14 10 3 47 -51z m-23 -15 l47 -63 -51 54 c-43 48 -59 71 -47 71 2 0 25 -28 51
-62z m-59 32 c10 -11 16 -20 13 -20 -3 0 -13 9 -23 20 -10 11 -16 20 -13 20 3
0 13 -9 23 -20z m1785 11 c0 -5 -9 -19 -20 -32 l-20 -24 17 32 c19 34 23 39
23 24z m-529 -95 c-8 -45 -25 -86 -61 -146 -28 -46 -50 -75 -50 -66 0 49 109
315 118 288 2 -7 -1 -41 -7 -76z m525 25 c-16 -30 -43 -51 -67 -51 -7 0 7 19
32 43 24 24 45 42 47 41 2 -1 -4 -16 -12 -33z m-268 -113 c-4 -64 -11 -108
-26 -140 -20 -46 -86 -128 -103 -128 -4 0 9 35 29 78 33 69 37 86 40 174 3 80
7 98 20 101 44 12 45 11 40 -85z m67 26 c0 -49 -7 -73 -37 -135 -21 -40 -56
-94 -79 -119 l-41 -45 32 43 c48 64 72 135 78 235 5 82 6 88 26 85 19 -3 21
-10 21 -64z m208 51 c-3 -9 -8 -14 -10 -11 -3 3 -2 9 2 15 9 16 15 13 8 -4z
m-1232 -33 c-33 -65 -54 -193 -49 -303 2 -63 0 -93 -5 -83 -5 9 -12 65 -15
123 -4 83 -1 120 13 166 20 71 51 135 65 135 6 0 2 -17 -9 -38z m61 33 c3 -3
-8 -31 -25 -62 -16 -31 -38 -81 -48 -112 -22 -69 -24 -48 -4 38 15 61 51 141
65 141 4 0 9 -2 12 -5z m197 -65 c0 -38 3 -80 7 -92 7 -23 6 -23 -15 -4 -11
11 -21 29 -21 42 0 23 21 124 26 124 2 0 3 -31 3 -70z m818 5 c-6 -63 -49
-168 -99 -247 -29 -45 -41 -55 -57 -51 -19 5 -17 9 19 57 56 74 99 172 106
243 5 49 10 60 22 56 11 -5 13 -18 9 -58z m-1420 3 c-2 -13 -4 -5 -4 17 -1 22
1 32 4 23 2 -10 2 -28 0 -40z m1230 -54 c-3 -43 -16 -85 -45 -147 -43 -93 -61
-114 -36 -44 25 70 54 199 54 243 0 22 3 44 7 48 14 14 25 -40 20 -100z m253
50 c0 -33 -37 -140 -63 -184 -29 -49 -97 -130 -108 -130 -6 0 2 19 16 43 46
74 86 168 103 243 15 64 19 71 34 63 10 -5 18 -21 18 -35z m65 36 c-3 -5 -12
-10 -18 -10 -7 0 -6 4 3 10 19 12 23 12 15 0z m45 6 c0 -2 -8 -10 -17 -17 -16
-13 -17 -12 -4 4 13 16 21 21 21 13z m-1160 -45 c-5 -9 -23 -32 -40 -51 l-31
-35 16 40 c25 62 46 90 55 74 5 -7 5 -20 0 -28z m724 -145 c-14 -50 -29 -101
-31 -113 -3 -13 -12 -23 -19 -23 -18 0 -18 -2 10 61 30 71 48 148 45 196 -2
21 1 45 7 53 6 11 10 1 12 -34 2 -31 -6 -81 -24 -140z m-1318 158 c18 -14 18
-14 -6 -3 -31 14 -36 19 -24 19 6 0 19 -7 30 -16z m441 -41 c-14 -41 -20 -87
-21 -157 -1 -92 -2 -96 -13 -60 -15 51 -16 142 -1 185 10 30 45 89 52 89 2 0
-6 -26 -17 -57z m1313 43 c0 -2 -8 -10 -17 -17 -16 -13 -17 -12 -4 4 13 16 21
21 21 13z m-70 -87 c-48 -121 -98 -195 -162 -241 -29 -20 -30 -20 -20 -1 6 11
18 26 27 33 46 38 108 165 130 264 6 27 7 28 25 11 19 -17 19 -18 0 -66z
m-378 26 c-2 -48 -19 -109 -49 -178 -32 -70 -40 -70 -13 1 12 32 20 77 20 115
0 41 5 70 16 85 20 29 28 22 26 -23z m-1125 -12 c-3 -10 -5 -2 -5 17 0 19 2
27 5 18 2 -10 2 -26 0 -35z m437 1 c14 -5 12 -13 -13 -58 -41 -73 -62 -144
-70 -244 l-8 -87 -1 85 c-2 91 16 182 49 261 12 27 23 49 24 49 2 0 11 -3 19
-6z m1103 -35 c-3 -22 -20 -65 -39 -96 -39 -66 -141 -173 -165 -173 -10 0 7
22 45 58 46 43 71 78 101 141 23 47 41 91 41 98 0 7 5 13 11 13 8 0 10 -14 6
-41z m-1022 17 c17 -12 16 -17 -28 -87 -53 -85 -73 -129 -98 -214 l-18 -60 0
68 c-1 95 42 224 97 290 18 21 23 21 47 3z m430 -82 c-24 -54 -34 -68 -29 -44
6 35 54 133 61 126 2 -2 -12 -39 -32 -82z m-586 26 c-23 -61 -41 -214 -34
-284 4 -41 3 -46 -5 -27 -22 50 -23 162 -2 239 17 63 44 122 56 122 2 0 -4
-22 -15 -50z m708 3 c-6 -49 -43 -150 -53 -141 -2 3 0 17 6 32 5 15 10 45 10
66 0 43 17 90 33 90 6 0 7 -19 4 -47z m-496 1 c11 -13 10 -17 -3 -25 -22 -12
-78 -99 -133 -203 -49 -94 -55 -98 -26 -15 32 94 122 259 141 259 4 0 14 -7
21 -16z m-432 -404 c63 -200 97 -368 106 -517 8 -126 3 -134 -55 -92 -42 31
-71 20 -103 -40 -15 -27 -27 -57 -28 -67 -1 -22 -2 -19 -24 60 -20 72 -52 106
-98 106 -37 0 -58 -17 -99 -79 -13 -19 -38 -41 -56 -48 l-33 -13 31 52 c118
199 154 349 216 897 l17 154 37 -124 c20 -68 60 -198 89 -289z m464 358 c2 -7
-23 -42 -55 -77 -71 -78 -115 -164 -134 -262 l-14 -74 4 66 c3 58 11 81 61
177 55 106 107 182 125 182 5 0 10 -6 13 -12z m404 -38 c-7 -24 -18 -45 -24
-47 -8 -3 -5 15 9 46 25 61 33 62 15 1z m517 8 c-36 -72 -184 -228 -184 -194
0 8 18 28 40 42 39 26 121 125 143 172 6 12 12 20 14 18 3 -2 -3 -19 -13 -38z
m-1237 -15 c-3 -10 -5 -2 -5 17 0 19 2 27 5 18 2 -10 2 -26 0 -35z m367 31 c3
-8 2 -12 -4 -9 -6 3 -10 10 -10 16 0 14 7 11 14 -7z m-34 -23 c0 -5 -22 -33
-49 -63 -26 -29 -58 -73 -70 -97 -28 -53 -50 -157 -51 -231 -1 -53 -1 -54 -15
-30 -19 33 -19 72 0 145 23 88 47 132 117 213 63 74 68 78 68 63z m143 -38 c3
-27 11 -81 16 -121 9 -65 1 -206 -13 -219 -2 -3 -2 33 1 79 3 55 0 108 -11
158 -18 83 -21 150 -7 150 5 0 11 -21 14 -47z m37 3 c0 -25 -4 -47 -9 -50 -10
-6 -21 61 -13 82 10 27 22 9 22 -32z m-67 -63 c10 -54 17 -118 16 -143 -2 -40
-3 -41 -6 -10 -2 19 -13 79 -23 132 -22 108 -23 118 -12 118 4 0 15 -44 25
-97z m-43 55 l-1 -33 -14 25 c-10 19 -10 27 -2 32 17 11 17 11 17 -24z m179
23 c12 -7 11 -19 -3 -77 -9 -38 -21 -113 -26 -167 -10 -101 -31 -173 -69 -242
-12 -22 -19 -31 -15 -20 45 132 52 168 58 295 11 217 16 236 55 211z m76 -65
c-3 -12 -21 -80 -39 -152 -29 -112 -76 -234 -91 -234 -2 0 3 19 11 43 8 23 22
96 29 161 8 65 21 143 30 172 15 52 16 53 41 42 19 -9 24 -17 19 -32z m-246
-221 c0 -5 -3 -3 -6 5 -3 8 -21 49 -39 91 -32 72 -43 136 -27 153 6 6 74 -226
72 -249z m796 208 c-9 -21 -23 -48 -31 -60 -14 -23 -114 -86 -123 -78 -3 3
152 165 167 173 1 1 -5 -15 -13 -35z m-787 -143 c0 -20 -1 -21 -5 -5 -3 11
-13 49 -24 84 -10 35 -19 68 -18 75 2 21 48 -129 47 -154z m320 145 c2 -2 -4
-18 -14 -37 -9 -18 -32 -79 -50 -136 -33 -105 -59 -154 -98 -184 l-23 -16 18
36 c10 21 34 96 53 167 48 183 50 187 83 179 16 -4 29 -8 31 -9z m52 2 c0 -25
-70 -206 -96 -249 -34 -56 -68 -94 -44 -48 6 12 27 70 46 128 34 108 65 172
84 172 5 0 10 -1 10 -3z m21 -64 c-11 -43 -57 -143 -65 -143 -3 0 12 48 31
107 35 105 57 128 34 36z m33 28 c-4 -17 -9 -30 -11 -27 -3 2 -2 19 2 36 9 41
17 33 9 -9z m45 -2 c-5 -23 -17 -55 -26 -73 -22 -44 -98 -149 -119 -167 -11
-7 -6 1 9 20 36 43 80 130 103 204 21 68 47 81 33 16z m-554 -41 c12 -35 32
-88 43 -119 12 -32 24 -92 27 -140 l5 -84 -24 91 c-13 50 -38 123 -55 162 -20
46 -31 87 -31 118 0 58 6 53 35 -28z m595 58 c0 -8 -20 -54 -44 -103 -46 -91
-123 -186 -199 -244 -29 -23 -19 -10 31 42 91 92 166 201 183 268 12 47 29 69
29 37z m25 -62 c-9 -29 -32 -69 -59 -99 l-44 -50 52 106 c53 110 77 131 51 43z
m-651 -69 c4 -11 0 -6 -8 10 -8 17 -15 48 -14 70 0 39 1 39 8 -10 4 -27 11
-59 14 -70z m666 36 c-12 -27 -31 -58 -42 -68 -17 -15 -17 -11 5 22 14 22 31
60 39 85 7 25 14 37 16 28 2 -9 -6 -39 -18 -67z m-736 33 c-4 -14 -15 -47 -26
-72 l-19 -47 6 39 c6 34 34 106 42 106 2 0 0 -12 -3 -26z m60 -103 c19 -35 58
-190 53 -205 -3 -6 -8 3 -12 19 -4 17 -11 35 -15 40 -19 26 -60 168 -59 207
l1 43 9 -38 c5 -21 15 -50 23 -66z m717 46 c-10 -9 -11 -8 -5 6 3 10 9 15 12
12 3 -3 0 -11 -7 -18z m97 -20 c-20 -18 -50 -40 -67 -50 l-31 -18 11 24 c10
23 109 89 119 79 3 -2 -11 -18 -32 -35z m-1011 -29 c-3 -7 -5 -2 -5 12 0 14 2
19 5 13 2 -7 2 -19 0 -25z m128 -59 c-33 -145 -35 -150 -29 -69 7 93 22 156
35 143 6 -6 4 -34 -6 -74z m202 49 c-3 -8 -6 -5 -6 6 -1 11 2 17 5 13 3 -3 4
-12 1 -19z m-62 -116 c8 -31 15 -68 14 -82 -1 -19 -4 -15 -11 15 -5 22 -16 65
-23 95 -7 30 -16 64 -19 75 -4 11 1 5 9 -13 9 -18 22 -59 30 -90z m-178 76
c-3 -7 -5 -2 -5 12 0 14 2 19 5 13 2 -7 2 -19 0 -25z m710 -13 c-26 -24 -67
-58 -90 -75 -35 -27 -34 -25 8 12 27 23 65 58 85 75 19 18 37 32 40 32 3 0
-17 -20 -43 -44z m193 41 c0 -2 -7 -7 -16 -10 -8 -3 -12 -2 -9 4 6 10 25 14
25 6z m-849 -78 c-6 -29 -13 -62 -15 -73 -2 -11 -4 -5 -5 13 -1 36 19 126 26
118 3 -2 0 -28 -6 -58z m176 30 c-3 -8 -6 -5 -6 6 -1 11 2 17 5 13 3 -3 4 -12
1 -19z m563 -33 c-25 -13 -49 -24 -55 -24 -5 0 10 11 35 24 25 13 50 24 55 24
6 0 -10 -11 -35 -24z m-716 -60 c-22 -70 -24 -71 -19 -13 3 31 8 64 12 74 14
36 21 -19 7 -61z m-87 -2 c-3 -10 -5 -2 -5 17 0 19 2 27 5 18 2 -10 2 -26 0
-35z m1133 31 c0 -2 -12 -4 -27 -4 -21 0 -24 3 -14 9 13 8 41 5 41 -5z m165
-45 c-16 -77 -30 -90 -21 -19 6 45 19 80 31 80 1 0 -3 -27 -10 -61z m38 46
c-3 -9 -8 -14 -10 -11 -3 3 -2 9 2 15 9 16 15 13 8 -4z m-194 -21 c10 -9 -75
-3 -89 6 -10 7 1 8 35 4 28 -4 52 -8 54 -10z m121 -42 c-7 -58 -30 -115 -51
-128 -6 -3 -4 5 5 19 9 13 21 53 27 88 9 57 16 79 23 79 1 0 -1 -26 -4 -58z
m-225 38 c8 -13 -15 -13 -35 0 -12 8 -11 10 7 10 12 0 25 -4 28 -10z m-915
-10 c0 -6 -7 -24 -15 -40 -8 -16 -19 -46 -24 -67 -9 -37 -9 -37 -10 -7 -1 36
27 124 40 124 5 0 9 -5 9 -10z m853 -7 c-7 -2 -19 -2 -25 0 -7 3 -2 5 12 5 14
0 19 -2 13 -5z m104 1 c-3 -3 -12 -4 -19 -1 -8 3 -5 6 6 6 11 1 17 -2 13 -5z
m132 -6 c0 -7 -4 -22 -9 -33 -7 -17 -9 -15 -9 13 -1 17 4 32 9 32 6 0 10 -6 9
-12z m-220 -14 c2 -2 -19 -4 -47 -4 -28 0 -53 4 -57 10 -5 8 94 3 104 -6z
m187 -16 c-13 -64 -81 -167 -137 -205 -20 -15 -20 -14 -11 3 6 11 29 36 51 57
41 40 91 127 91 159 0 10 3 18 6 18 4 0 4 -15 0 -32z m45 -35 c-6 -21 -24 -54
-42 -73 -27 -31 -28 -32 -11 -5 26 39 52 102 53 129 1 15 2 17 6 4 2 -9 0 -34
-6 -55z m-771 53 c0 -2 -19 -19 -42 -36 l-43 -32 40 36 c40 36 45 39 45 32z
m430 -16 l25 -8 -25 0 c-14 0 -36 4 -50 8 l-25 8 25 0 c14 0 36 -4 50 -8z
m270 0 c0 -18 -37 -85 -65 -119 -44 -51 -48 -35 -5 21 22 29 42 65 45 80 6 27
25 40 25 18z m-379 -15 c24 -10 28 -14 14 -14 -32 -1 -65 11 -59 20 7 11 6 12
45 -6z m224 5 c-3 -5 -21 -9 -38 -9 l-32 2 35 7 c19 4 36 8 38 9 2 0 0 -3 -3
-9z m-445 -5 c0 -2 -10 -9 -22 -15 -22 -11 -22 -10 -4 4 21 17 26 19 26 11z
m560 -1 c0 -22 -151 -214 -168 -214 -8 0 5 21 28 48 23 26 60 75 82 110 35 54
58 76 58 56z m-1001 -71 c-7 -32 -14 -50 -17 -39 -4 20 18 110 25 102 3 -2 -1
-31 -8 -63z m30 -11 l-20 -37 6 40 c3 22 9 49 12 60 6 19 6 18 14 -3 6 -17 3
-34 -12 -60z m552 67 c12 -6 51 -17 87 -24 52 -10 59 -13 31 -14 -32 -1 -159
35 -159 45 0 7 21 4 41 -7z m202 4 c-7 -2 -19 -2 -25 0 -7 3 -2 5 12 5 14 0
19 -2 13 -5z m-836 -35 c-3 -7 -5 -2 -5 12 0 14 2 19 5 13 2 -7 2 -19 0 -25z
m150 0 c-3 -7 -5 -2 -5 12 0 14 2 19 5 13 2 -7 2 -19 0 -25z m443 22 c8 -5 11
-10 5 -10 -5 0 -17 5 -25 10 -8 5 -10 10 -5 10 6 0 17 -5 25 -10z m187 4 c-3
-3 -12 -4 -19 -1 -8 3 -5 6 6 6 11 1 17 -2 13 -5z m223 2 c0 -3 -4 -8 -10 -11
-5 -3 -10 -1 -10 4 0 6 5 11 10 11 6 0 10 -2 10 -4z m-435 -24 c-3 -3 -11 0
-18 7 -9 10 -8 11 6 5 10 -3 15 -9 12 -12z m268 11 c-7 -2 -21 -2 -30 0 -10 3
-4 5 12 5 17 0 24 -2 18 -5z m127 2 c0 -26 -91 -145 -111 -145 -5 0 9 24 32
52 23 29 45 63 50 75 7 20 29 33 29 18z m-360 -41 l45 -14 -40 6 c-22 3 -51
12 -65 21 -15 9 -17 12 -5 7 11 -3 40 -13 65 -20z m300 6 c-6 -11 -13 -20 -16
-20 -2 0 0 9 6 20 6 11 13 20 16 20 2 0 0 -9 -6 -20z m-377 -2 c12 -6 42 -17
67 -24 33 -9 38 -12 19 -13 -32 -1 -119 28 -119 40 0 12 7 11 33 -3z m347 4
c0 -14 -54 -84 -86 -112 -16 -14 -10 -4 13 22 23 26 45 58 49 72 6 24 24 37
24 18z m-177 -9 c-7 -2 -19 -2 -25 0 -7 3 -2 5 12 5 14 0 19 -2 13 -5z m116
-37 c-14 -19 -38 -45 -54 -58 -27 -20 -26 -18 7 19 20 23 42 51 48 63 6 12 14
19 17 16 4 -3 -5 -21 -18 -40z m-718 -27 c-25 -41 -27 -33 -4 23 10 26 19 36
21 27 2 -9 -6 -32 -17 -50z m410 46 c25 -10 29 -14 13 -15 -11 0 -29 7 -40 15
-25 19 -15 19 27 0z m261 -32 c-17 -21 -44 -46 -61 -56 -25 -15 -21 -8 22 36
60 63 82 74 39 20z m-317 -1 c-3 -3 -11 0 -18 7 -9 10 -8 11 6 5 10 -3 15 -9
12 -12z m265 15 c0 -2 -15 -16 -32 -33 l-33 -29 29 33 c28 30 36 37 36 29z
m-45 -17 c-3 -5 -16 -15 -28 -21 -21 -10 -21 -9 2 10 25 23 36 27 26 11z m425
-14 c0 -2 -8 -10 -17 -17 -16 -13 -17 -12 -4 4 13 16 21 21 21 13z m-970 -41
c0 -8 -4 -15 -10 -15 -5 0 -7 7 -4 15 4 8 8 15 10 15 2 0 4 -7 4 -15z m770 11
c0 -2 -8 -10 -17 -17 -16 -13 -17 -12 -4 4 13 16 21 21 21 13z m50 -36 c0 -5
-5 -10 -11 -10 -5 0 -7 5 -4 10 3 6 8 10 11 10 2 0 4 -4 4 -10z m-1539 -197
c13 -16 12 -17 -3 -4 -10 7 -18 15 -18 17 0 8 8 3 21 -13z m-16 -43 c10 -11
16 -20 13 -20 -3 0 -13 9 -23 20 -10 11 -16 20 -13 20 3 0 13 -9 23 -20z m202
-62 c-2 -13 -4 -5 -4 17 -1 22 1 32 4 23 2 -10 2 -28 0 -40z m-167 -74 c0 -2
-2 -4 -5 -4 -7 0 -85 106 -85 115 0 5 20 -18 45 -49 25 -32 45 -60 45 -62z
m-21 -14 c67 -85 46 -78 -29 10 -38 45 -70 85 -70 89 0 22 15 16 36 -14 12
-18 41 -57 63 -85z m905 -155 c5 -103 4 -105 -4 -33 -5 43 -19 123 -31 178
-11 55 -18 108 -14 118 12 29 44 -142 49 -263z m5 208 c-1 -50 -3 -61 -9 -43
-12 36 -12 110 0 110 6 0 10 -29 9 -67z m-662 35 c-3 -8 -6 -5 -6 6 -1 11 2
17 5 13 3 -3 4 -12 1 -19z m737 -27 c-3 -14 -8 -33 -11 -41 -2 -8 -8 -87 -13
-175 -6 -120 -14 -178 -31 -233 -27 -88 -37 -89 -12 -1 14 51 18 103 18 249 1
263 0 252 30 238 20 -9 24 -16 19 -37z m-144 16 c0 -13 9 -66 20 -118 11 -52
19 -107 18 -124 -1 -27 -1 -27 -5 -5 -2 14 -15 73 -29 132 -27 118 -29 138
-14 138 6 0 10 -11 10 -23z m-937 -14 c12 -16 42 -50 67 -78 28 -31 33 -41 15
-25 -54 44 -125 114 -125 122 0 17 23 7 43 -19z m932 -128 c13 -60 26 -141 29
-180 l6 -70 -14 61 c-8 34 -28 110 -45 169 -35 120 -36 136 -18 154 10 10 13
9 15 -6 2 -10 14 -67 27 -128z m211 96 c-3 -15 -15 -84 -26 -156 -22 -136 -42
-220 -61 -245 -9 -12 -10 -11 -4 5 4 11 13 101 20 200 8 99 17 194 21 212 6
29 8 31 31 20 20 -9 23 -16 19 -36z m-1151 -13 c48 -49 48 -50 10 -21 -47 37
-82 73 -69 73 6 0 32 -23 59 -52z m362 30 c-3 -8 -6 -5 -6 6 -1 11 2 17 5 13
3 -3 4 -12 1 -19z m1007 -20 c-13 -72 -82 -248 -98 -248 -2 0 8 28 21 62 14
34 32 97 41 140 10 47 22 78 29 78 9 0 11 -10 7 -32z m36 18 c0 -24 -49 -165
-76 -219 -34 -67 -95 -156 -124 -182 -13 -11 -7 1 14 28 86 114 150 247 162
336 4 28 10 51 15 51 5 0 9 -6 9 -14z m-185 -40 c-8 -17 -25 -86 -39 -153 -23
-114 -45 -172 -80 -218 -19 -25 -19 -22 -1 40 9 27 24 108 35 180 28 178 33
193 69 187 29 -4 29 -5 16 -36z m81 -3 c-7 -49 -45 -177 -51 -171 -4 3 29 161
41 201 10 34 16 16 10 -30z m26 17 c-2 -16 -6 -30 -8 -30 -2 0 -4 14 -4 30 0
17 4 30 8 30 5 0 7 -13 4 -30z m98 -65 c-11 -38 -76 -155 -86 -155 -2 0 4 17
15 38 10 20 29 71 41 112 30 104 33 110 38 75 2 -16 -2 -48 -8 -70z m-155 63
c-31 -144 -49 -207 -74 -263 -16 -36 -32 -65 -36 -65 -3 0 -1 8 4 18 5 10 17
56 25 102 18 92 42 185 57 213 14 25 30 21 24 -5z m-998 -10 c-3 -8 -6 -5 -6
6 -1 11 2 17 5 13 3 -3 4 -12 1 -19z m639 -132 c13 -43 23 -80 21 -83 -7 -6
-68 135 -74 171 -3 19 -2 43 2 53 6 14 10 9 17 -22 5 -22 20 -76 34 -119z
m534 73 c-10 -35 -26 -73 -34 -84 -8 -11 -4 7 9 40 14 33 25 69 25 81 0 20 10
38 17 31 2 -2 -6 -33 -17 -68z m-1430 -24 c0 -9 -97 39 -115 56 -11 11 9 4 48
-17 37 -19 67 -37 67 -39z m213 22 c4 -31 3 -46 -3 -42 -6 3 -10 27 -10 52 0
57 5 53 13 -10z m24 31 c-3 -8 -6 -5 -6 6 -1 11 2 17 5 13 3 -3 4 -12 1 -19z
m657 -194 c16 -39 27 -88 31 -135 l5 -74 -19 65 c-10 36 -34 104 -54 153 -25
59 -37 102 -37 135 l0 47 24 -65 c14 -36 36 -92 50 -126z m-944 143 c13 -5 13
-6 -1 -6 -8 -1 -24 6 -35 15 -19 15 -19 15 1 6 11 -5 27 -12 35 -15z m430 -39
c-11 -38 -80 -151 -100 -163 -10 -6 -12 4 -8 43 4 45 11 56 59 104 30 29 55
53 56 53 1 -1 -2 -17 -7 -37z m1074 -10 c-34 -68 -160 -235 -228 -304 -65 -65
-116 -104 -116 -89 0 4 53 59 118 123 114 114 215 246 229 300 3 15 8 22 10
15 2 -6 -3 -27 -13 -45z m-641 -8 c4 -30 3 -38 -3 -25 -8 19 -14 83 -6 74 2
-2 6 -24 9 -49z m-795 13 c17 -7 32 -15 32 -17 0 -7 -105 26 -115 36 -12 11
36 1 83 -19z m826 -178 c26 -76 42 -143 33 -135 -17 16 -87 214 -92 261 l-6
54 21 -55 c12 -30 32 -86 44 -125z m-824 133 c10 -6 7 -7 -10 -2 -14 3 -32 11
-40 16 -10 6 -7 7 10 2 14 -3 32 -11 40 -16z m1321 -86 c-17 -22 -38 -45 -48
-53 -10 -8 2 10 26 39 51 60 68 71 22 14z m-481 -7 c0 -5 -5 -3 -10 5 -5 8
-10 20 -10 25 0 6 5 3 10 -5 5 -8 10 -19 10 -25z m35 -106 c21 -90 17 -108 -5
-24 -29 108 -32 123 -20 104 5 -9 16 -45 25 -80z m668 53 c-12 -9 -49 -39 -82
-65 -34 -27 -61 -46 -61 -43 0 9 143 126 154 126 6 0 1 -8 -11 -18z m-48 0
c-6 -5 -31 -26 -56 -48 l-46 -39 49 48 c27 26 52 47 56 47 3 0 2 -4 -3 -8z
m-115 -78 c-30 -30 -68 -65 -85 -76 -16 -11 4 14 46 56 42 42 80 76 85 76 5 0
-16 -25 -46 -56z m260 29 c0 -5 -37 -25 -82 -46 -94 -43 -93 -34 3 18 66 36
79 40 79 28z m-310 -18 c-7 -9 -40 -38 -74 -66 -61 -51 -61 -51 9 15 68 64 90
81 65 51z m-220 -18 c0 -2 -15 -16 -32 -33 l-33 -29 29 33 c28 30 36 37 36 29z
m518 -8 c-3 -9 -174 -92 -238 -116 -37 -14 38 32 127 77 102 52 117 57 111 39z
m0 -44 c-4 -12 -266 -118 -279 -113 -10 4 262 128 274 125 5 -2 7 -7 5 -12z
m-711 -32 c-3 -10 -5 -4 -5 12 0 17 2 24 5 18 2 -7 2 -21 0 -30z m-20 -5 c-3
-8 -6 -5 -6 6 -1 11 2 17 5 13 3 -3 4 -12 1 -19z m698 -14 c-80 -34 -167 -65
-172 -61 -5 6 199 87 217 86 8 0 -12 -11 -45 -25z m85 -64 c-8 -5 -19 -10 -25
-10 -5 0 -3 5 5 10 8 5 20 10 25 10 6 0 3 -5 -5 -10z m-73 -26 c-3 -3 -12 -4
-19 -1 -8 3 -5 6 6 6 11 1 17 -2 13 -5z m-567 -7 c0 -2 -15 -16 -32 -33 l-33
-29 29 33 c28 30 36 37 36 29z m387 -43 c-3 -3 -12 -4 -19 -1 -8 3 -5 6 6 6
11 1 17 -2 13 -5z m-28 -20 c2 -2 -34 -4 -82 -4 -47 0 -89 5 -92 10 -6 9 163
3 174 -6z m84 9 c-7 -2 -19 -2 -25 0 -7 3 -2 5 12 5 14 0 19 -2 13 -5z m-1136
-325 c-3 -8 -6 -5 -6 6 -1 11 2 17 5 13 3 -3 4 -12 1 -19z m20 -15 c-3 -10 -5
-4 -5 12 0 17 2 24 5 18 2 -7 2 -21 0 -30z m37 16 c-3 -6 -10 -54 -14 -107
l-7 -97 -2 92 c-1 93 4 123 21 123 5 0 6 -5 2 -11z m20 -81 c-20 -121 -23
-127 -19 -38 4 87 11 123 24 115 4 -2 2 -37 -5 -77z m-101 17 c4 -34 3 -42 -3
-25 -8 25 -13 87 -6 79 2 -2 6 -26 9 -54z m143 23 c-3 -13 -13 -57 -22 -98 -9
-41 -20 -82 -25 -90 -7 -11 -8 -8 -4 10 3 14 10 57 15 95 6 39 13 78 16 88 8
26 27 21 20 -5z m13 -54 c-7 -31 -15 -52 -17 -45 -5 14 18 114 25 107 3 -2 -1
-30 -8 -62z m58 44 c-3 -8 -6 -5 -6 6 -1 11 2 17 5 13 3 -3 4 -12 1 -19z
m-240 -20 c-3 -7 -5 -2 -5 12 0 14 2 19 5 13 2 -7 2 -19 0 -25z m60 10 c-3 -8
-6 -5 -6 6 -1 11 2 17 5 13 3 -3 4 -12 1 -19z m1141 1 c-80 -42 -148 -135
-148 -204 0 -19 -4 -35 -9 -35 -17 0 -18 25 -4 72 14 50 108 162 148 178 40
17 49 9 13 -11z m-931 -11 c-3 -8 -6 -5 -6 6 -1 11 2 17 5 13 3 -3 4 -12 1
-19z m582 -25 c-24 -27 -52 -59 -62 -73 l-18 -25 12 24 c12 24 97 121 107 121
2 0 -15 -21 -39 -47z m394 22 c-61 -31 -128 -112 -153 -186 -17 -51 -30 -55
-30 -10 0 30 32 95 64 130 34 38 119 91 145 91 20 0 14 -6 -26 -25z m-421 -7
c-11 -13 -33 -43 -47 -68 -15 -25 -24 -37 -21 -27 3 10 6 23 6 28 0 10 69 89
78 89 3 0 -4 -10 -16 -22z m88 1 c-43 -34 -66 -42 -32 -10 18 17 38 31 45 31
6 0 1 -9 -13 -21z m380 -6 c-60 -39 -166 -160 -190 -215 -9 -20 -10 -20 -4 7
18 91 135 225 198 225 19 0 19 -1 -4 -17z m-364 -19 c-30 -21 -45 -16 -16 6
14 10 27 16 30 13 3 -2 -4 -11 -14 -19z m184 23 c0 -2 -10 -12 -22 -23 l-23
-19 19 23 c18 21 26 27 26 19z m-1091 -127 c0 -8 -9 8 -19 35 -10 28 -19 59
-19 70 0 11 9 -5 19 -35 10 -30 19 -62 19 -70z m1311 106 c0 -8 -10 -18 -22
-22 -32 -10 -122 -98 -159 -156 -17 -27 -34 -46 -37 -44 -13 14 106 167 162
208 44 31 56 35 56 14z m89 -36 c-41 -48 -49 -56 -49 -45 0 7 81 95 87 95 2 0
-15 -22 -38 -50z m78 30 c-14 -11 -54 -51 -88 -88 -40 -42 -53 -52 -35 -27 42
59 118 135 134 135 9 0 4 -8 -11 -20z m-104 -14 c-10 -13 -19 -23 -21 -21 -7
6 19 45 29 45 5 0 2 -11 -8 -24z m172 14 c3 -5 0 -10 -7 -10 -7 0 -42 -24 -78
-52 l-65 -53 39 48 c50 61 97 89 111 67z m-1528 -42 c-3 -8 -6 -5 -6 6 -1 11
2 17 5 13 3 -3 4 -12 1 -19z m405 -26 c-52 -136 -209 -314 -426 -485 -71 -56
-159 -127 -195 -157 l-65 -54 28 49 c137 235 314 434 456 510 48 26 99 65 145
112 38 39 71 72 72 72 2 1 -5 -21 -15 -47z m898 39 c0 -5 -17 -19 -37 -32 -21
-12 -60 -43 -87 -68 l-49 -46 33 44 c31 40 115 110 133 111 4 0 7 -4 7 -9z
m249 5 c-2 -2 -20 -11 -39 -20 l-35 -17 24 21 c13 11 30 20 39 20 8 0 13 -2
11 -4z m-674 -30 c-10 -6 -39 -29 -64 -51 -27 -23 -38 -29 -27 -15 33 42 90
89 100 83 5 -4 1 -11 -9 -17z m127 -16 c-9 -21 -18 -35 -20 -30 -3 9 25 70 33
70 2 0 -4 -18 -13 -40z m-203 -8 c-19 -20 -42 -48 -52 -62 -17 -24 -17 -24 -6
-2 11 24 77 102 86 102 3 0 -10 -17 -28 -38z m746 28 c-4 -6 -48 -38 -98 -71
-84 -55 -88 -56 -48 -20 23 22 66 54 95 71 57 33 60 34 51 20z m15 -29 c-26
-38 -97 -87 -136 -97 -35 -8 -28 -1 47 49 30 20 66 48 79 62 31 33 38 24 10
-14z m-590 -1 c-6 -12 -14 -20 -17 -17 -2 3 1 14 8 26 17 26 24 19 9 -9z m-43
4 c2 -7 -21 -26 -51 -42 -30 -17 -72 -46 -92 -64 -39 -34 -38 -27 4 30 30 40
101 92 121 89 8 -1 16 -7 18 -13z m373 8 c0 -5 -22 -23 -49 -41 -27 -17 -71
-55 -97 -84 -52 -57 -50 -46 4 21 19 24 57 58 85 77 57 39 57 39 57 27z m271
-35 l-34 -32 29 37 c15 20 30 35 33 32 3 -2 -10 -19 -28 -37z m-1622 -17 c0
-9 -4 -8 -9 5 -5 11 -9 27 -9 35 0 9 4 8 9 -5 5 -11 9 -27 9 -35z m1671 16 c0
-16 -35 -43 -97 -75 -66 -33 -63 -25 10 25 37 26 67 50 67 55 0 5 5 9 10 9 6
0 10 -6 10 -14z m-339 -13 c-26 -45 -113 -114 -127 -100 -4 4 124 116 134 117
1 0 -2 -8 -7 -17z m-341 -3 c0 -5 -15 -16 -33 -24 -18 -7 -53 -25 -78 -40
l-44 -27 35 31 c33 30 96 69 113 70 4 0 7 -4 7 -10z m-953 -32 c-3 -8 -6 -5
-6 6 -1 11 2 17 5 13 3 -3 4 -12 1 -19z m1622 -4 c-25 -28 -113 -74 -139 -74
-8 0 17 16 56 35 39 19 77 41 84 50 7 8 15 15 18 15 3 0 -5 -12 -19 -26z
m-663 -1 c-4 -4 -28 -15 -53 -25 -49 -18 -48 -10 2 16 31 16 64 22 51 9z
m-806 -16 c0 -2 -12 -14 -27 -28 l-28 -24 24 28 c23 25 31 32 31 24z m1480
-12 c0 -13 -97 -65 -119 -64 -23 0 -22 2 9 13 19 7 51 23 70 35 38 23 40 24
40 16z m-290 -32 c0 -5 -10 -19 -21 -33 l-20 -25 16 33 c15 30 25 41 25 25z
m7 -45 c-14 -24 -40 -54 -58 -67 -33 -25 -33 -24 8 25 22 27 46 60 53 72 6 13
14 21 17 18 3 -3 -6 -24 -20 -48z m73 34 c0 -20 -58 -98 -92 -122 -61 -45 -81
-37 -27 10 26 22 56 60 68 84 15 32 25 44 36 40 8 -4 15 -9 15 -12z m-487 -54
c-19 -85 -24 -93 -19 -31 4 45 20 93 30 93 2 0 -3 -28 -11 -62z m85 10 c-23
-62 -33 -76 -22 -33 7 31 32 85 38 85 2 0 -5 -24 -16 -52z m283 35 c-5 -10
-21 -29 -36 -43 l-27 -25 19 35 c10 19 23 38 28 42 18 13 26 8 16 -9z m-253
-18 c-6 -14 -13 -23 -15 -21 -5 5 15 46 22 46 3 0 -1 -11 -7 -25z m132 21 c0
-2 -8 -10 -17 -17 -16 -13 -17 -12 -4 4 13 16 21 21 21 13z m-390 -9 c0 -2
-10 -12 -22 -23 l-23 -19 19 23 c18 21 26 27 26 19z m-18 -60 c-47 -63 -64
-79 -42 -37 11 21 79 100 86 100 2 0 -18 -29 -44 -63z m688 57 c0 -16 -41 -71
-67 -90 -54 -39 -58 -37 -17 8 23 25 45 55 49 67 6 18 35 31 35 15z m-561 -79
c-4 -38 -15 -86 -24 -105 -12 -25 -15 -28 -11 -10 3 14 8 50 11 80 6 49 24
115 30 108 1 -2 -1 -34 -6 -73z m342 58 c-5 -10 -22 -29 -37 -43 l-27 -25 24
35 c31 46 60 68 40 33z m-149 -5 c2 -6 -9 -25 -25 -42 -16 -17 -43 -53 -61
-81 -18 -27 -40 -56 -50 -64 -9 -8 -2 9 16 36 18 28 49 76 67 107 35 56 46 66
53 44z m377 -29 c-37 -52 -162 -138 -174 -120 -3 6 14 19 38 29 51 23 123 84
132 113 4 11 11 17 16 13 5 -3 0 -19 -12 -35z m116 11 c-3 -5 -18 -9 -33 -9
l-27 1 30 8 c17 4 31 8 33 9 2 0 0 -3 -3 -9z m-75 -10 c0 -34 -101 -119 -160
-135 -17 -4 -8 5 25 28 28 19 66 53 85 75 36 41 50 50 50 32z m-715 -38 l-28
-27 23 33 c12 18 25 31 28 27 3 -3 -7 -18 -23 -33z m51 -25 c-4 -23 -11 -49
-17 -57 -10 -15 -8 20 8 95 9 43 16 11 9 -38z m196 -47 c-47 -50 -87 -90 -90
-90 -2 0 9 17 25 38 16 20 37 49 46 64 36 58 79 99 92 88 10 -8 -8 -32 -73
-100z m-175 78 c-3 -8 -6 -5 -6 6 -1 11 2 17 5 13 3 -3 4 -12 1 -19z m373 -2
c0 -2 -8 -10 -17 -17 -16 -13 -17 -12 -4 4 13 16 21 21 21 13z m264 -43 c-46
-38 -127 -83 -149 -82 -14 0 -12 4 10 11 34 12 111 66 140 98 13 15 21 18 24
9 2 -7 -9 -23 -25 -36z m-411 -46 c-133 -125 -166 -130 -47 -7 66 68 91 87
100 79 10 -8 -2 -25 -53 -72z m38 -11 c-32 -30 -69 -59 -82 -65 -13 -7 7 18
46 54 38 36 75 65 82 65 7 0 -14 -24 -46 -54z m389 29 c-20 -24 -150 -85 -179
-84 -18 1 -11 5 23 14 28 8 75 31 105 53 57 39 74 45 51 17z m-720 11 c0 -2
-8 -10 -17 -17 -16 -13 -17 -12 -4 4 13 16 21 21 21 13z m410 1 c0 -2 -17 -19
-37 -38 l-38 -34 34 38 c33 34 41 42 41 34z m24 -38 c-10 -12 -32 -30 -49 -41
-18 -12 -12 -4 15 21 49 44 64 53 34 20z m-434 -3 c0 -2 -12 -12 -27 -21 l-28
-18 19 21 c17 20 36 29 36 18z m464 -37 c-10 -12 -32 -28 -49 -36 -36 -19 -32
-14 20 26 48 36 54 38 29 10z m-474 -28 c0 -5 -7 -12 -16 -15 -14 -5 -15 -4
-4 9 14 17 20 19 20 6z m130 5 c0 -2 -8 -10 -17 -17 -16 -13 -17 -12 -4 4 13
16 21 21 21 13z m453 -13 c-7 -2 -19 -2 -25 0 -7 3 -2 5 12 5 14 0 19 -2 13
-5z m42 -12 c-31 -19 -127 -40 -112 -25 8 8 107 40 132 43 6 0 -3 -8 -20 -18z
m-90 -51 c-16 -4 -39 -8 -50 -9 -16 -1 -17 1 -5 9 8 5 31 9 50 9 l35 -1 -30
-8z m-87 -37 c-10 -2 -26 -2 -35 0 -10 3 -2 5 17 5 19 0 27 -2 18 -5z m123
-110 c13 -16 12 -17 -3 -4 -17 13 -22 21 -14 21 2 0 10 -8 17 -17z m-258 -50
c-7 -2 -19 -2 -25 0 -7 3 -2 5 12 5 14 0 19 -2 13 -5z m162 -12 c-16 -10 -41
-22 -55 -25 -14 -4 -5 4 20 17 54 29 77 34 35 8z m84 5 c-2 -2 -15 -9 -29 -15
-24 -11 -24 -11 -6 3 16 13 49 24 35 12z m31 0 c0 -2 -8 -10 -17 -17 -16 -13
-17 -12 -4 4 13 16 21 21 21 13z m120 1 c0 -2 -10 -12 -22 -23 l-23 -19 19 23
c18 21 26 27 26 19z m-240 -47 c-8 -5 -19 -10 -25 -10 -5 0 -3 5 5 10 8 5 20
10 25 10 6 0 3 -5 -5 -10z m30 -30 c-8 -5 -22 -9 -30 -9 -10 0 -8 3 5 9 27 12
43 12 25 0z m-1716 -72 c-4 -7 -15 -22 -25 -33 -9 -11 -45 -60 -78 -109 -58
-85 -61 -88 -61 -57 0 82 47 157 121 194 41 20 53 21 43 5z m-74 -195 c-28
-54 -62 -111 -76 -128 l-26 -30 7 30 c6 28 130 225 141 225 3 0 -18 -44 -46
-97z"/>
</g>
</svg>
