<?xml version="1.0" standalone="no"?>
<!DOCTYPE svg PUBLIC "-//W3C//DTD SVG 20010904//EN"
 "http://www.w3.org/TR/2001/REC-SVG-20010904/DTD/svg10.dtd">
<svg version="1.0" xmlns="http://www.w3.org/2000/svg"
 width="97px" height="97px" viewBox="0 0 601.000000 600.000000"
 preserveAspectRatio="xMidYMid meet">
<metadata>
Created by potrace 1.16, written by Peter Selinger 2001-2019
</metadata>
<g transform="translate(0.000000,600.000000) scale(0.100000,-0.100000)"
fill="#000000" stroke="none">
<path d="M3065 5774 c-11 -9 -46 -29 -78 -45 -58 -30 -59 -30 -53 -67 23 -158
34 -1088 12 -1109 -11 -12 -376 -7 -546 7 -109 9 -145 9 -148 0 -2 -6 -26 -45
-53 -85 -27 -40 -49 -76 -49 -79 0 -3 84 -4 188 -1 103 3 278 7 388 10 l201 5
8 -422 7 -423 46 -42 c26 -23 50 -42 53 -43 4 0 14 19 23 43 11 31 16 75 16
157 l-1 115 -32 20 c-40 25 -87 115 -87 165 0 23 8 48 22 66 13 16 21 39 20
54 -4 37 26 107 56 130 24 19 25 24 19 95 l-5 74 36 7 c20 4 188 5 373 1 l336
-5 13 56 c7 32 19 70 27 86 l15 29 -138 -7 c-77 -3 -256 -9 -398 -13 l-259 -6
7 534 c3 294 9 573 13 622 3 49 2 87 -3 87 -5 0 -18 -8 -29 -16z"/>
<path d="M3208 4251 c-19 -15 -34 -18 -66 -14 -74 10 -127 -49 -120 -133 2
-35 -1 -45 -14 -50 -39 -12 -43 -93 -7 -165 31 -63 78 -93 79 -51 1 10 6 4 15
-15 7 -17 26 -38 42 -47 20 -11 23 -15 11 -16 -26 0 -22 -30 10 -64 15 -17 19
-24 10 -17 -14 11 -19 9 -31 -16 -36 -73 -79 -195 -73 -209 4 -9 -18 4 -48 30
-30 25 -57 43 -59 39 -12 -18 -29 -178 -24 -215 3 -23 15 -54 27 -70 11 -15
17 -28 12 -28 -5 0 -20 -36 -33 -80 -12 -44 -26 -80 -29 -80 -4 0 -13 19 -20
42 -7 24 -34 87 -61 140 -27 54 -49 108 -49 120 0 17 5 13 19 -19 11 -23 29
-47 42 -53 21 -12 22 -11 14 21 -4 19 -10 55 -14 81 -4 25 -13 53 -20 62 -20
24 -56 20 -70 -7 -15 -27 -88 -78 -111 -76 -11 1 -10 3 3 6 13 3 17 11 14 24
-4 16 -3 18 8 9 10 -8 19 -8 34 -1 61 33 69 113 17 188 -18 26 -37 60 -41 73
l-8 25 -13 -30 -13 -30 -1 45 c0 33 -3 41 -10 30 -8 -12 -10 -9 -10 11 0 45
-21 53 -93 38 -71 -16 -97 -37 -116 -95 -12 -38 -12 -42 17 -85 16 -24 37 -68
47 -97 24 -74 50 -102 104 -109 38 -5 41 -7 23 -14 -15 -6 -22 -17 -22 -36 0
-21 15 -41 62 -85 35 -32 64 -58 65 -58 12 0 -1 59 -18 87 -29 47 -19 51 25
10 40 -38 60 -78 121 -248 35 -95 42 -125 38 -163 -5 -39 -8 -44 -22 -36 -42
22 -201 49 -201 34 0 -12 60 -175 75 -204 18 -34 49 -45 109 -37 39 6 45 4 65
-24 25 -34 21 -51 -6 -26 -46 41 -120 25 -166 -36 -23 -31 -77 -130 -77 -143
0 -3 47 -4 105 -2 58 1 105 -1 105 -5 0 -5 -18 -29 -40 -55 -43 -48 -100 -141
-100 -162 0 -9 22 -11 86 -9 l86 4 28 -114 c16 -63 41 -150 56 -195 32 -99
163 -426 176 -443 15 -19 88 -17 88 2 0 8 -18 59 -41 113 -50 119 -119 306
-144 390 -17 57 -17 70 -5 125 21 100 28 157 29 234 1 99 6 107 41 72 33 -34
83 -38 133 -13 39 21 147 123 147 139 0 16 -154 55 -215 55 -56 0 -95 -32 -95
-78 0 -16 -7 -35 -15 -42 -12 -10 -15 -10 -15 3 0 8 -16 46 -35 83 -19 38 -35
74 -35 81 0 21 20 25 45 9 37 -25 98 -20 133 9 25 21 112 169 112 190 0 10
-197 -4 -238 -16 -39 -13 -52 -35 -52 -87 0 -25 -7 -45 -18 -55 -17 -16 -20
-15 -45 11 -15 16 -27 32 -27 36 0 5 8 -2 18 -14 19 -23 19 -22 30 91 7 62 19
151 28 196 16 80 18 84 75 138 62 59 70 63 89 40 9 -11 8 -19 -4 -37 -22 -31
-20 -86 4 -126 16 -26 173 -142 193 -142 2 0 7 51 11 114 10 165 -11 206 -106
206 -55 0 -75 16 -52 41 15 17 18 17 44 -3 39 -28 101 -20 142 19 43 40 122
153 113 161 -9 9 -219 16 -251 8 -26 -7 -54 -52 -54 -89 0 -25 -28 -57 -49
-57 -7 0 -4 11 9 28 11 15 23 44 26 63 5 30 1 41 -25 71 -17 20 -27 39 -22 44
5 5 28 59 51 119 24 61 44 111 45 113 2 2 17 -4 34 -12 59 -31 174 -13 159 25
-5 11 8 13 68 11 97 -5 150 19 192 86 49 78 51 142 3 129 -19 -5 -20 -4 -6 16
20 29 19 116 -1 147 -47 70 -136 144 -167 138 -6 -1 -34 12 -62 30 -85 55
-181 69 -227 33z m255 -96 c18 -1 36 -13 53 -36 43 -57 54 -91 43 -133 -11
-40 -27 -51 -84 -60 -35 -6 -37 -5 -21 6 63 43 76 60 76 98 0 43 -30 80 -92
111 -48 25 -61 24 -96 -6 -17 -14 -39 -25 -50 -25 -11 0 -26 -7 -33 -16 -11
-14 -11 -21 3 -45 10 -16 12 -29 7 -29 -6 0 -9 -10 -7 -22 2 -16 18 -30 51
-47 33 -16 44 -26 36 -32 -40 -24 107 -83 195 -77 60 3 63 -6 16 -40 l-29 -22
-3 23 c-2 16 -11 23 -33 25 -16 1 -60 9 -97 17 -37 8 -86 15 -110 15 -63 0
-114 17 -152 51 -39 33 -53 36 -59 12 -3 -10 -5 -4 -6 14 0 17 -4 39 -7 48 -4
10 14 -3 40 -28 55 -54 119 -87 169 -87 51 0 50 28 -2 70 -72 56 -104 137 -63
159 9 5 38 12 64 16 30 5 55 16 70 32 19 21 28 24 58 18 19 -4 47 -8 63 -10z
m-39 -107 c18 -29 -4 -53 -50 -55 l-39 -1 38 7 c20 4 40 10 42 13 10 9 -6 35
-28 47 -22 11 -22 11 2 8 13 -1 29 -10 35 -19z m35 -304 c2 -2 -19 -4 -47 -4
-56 0 -71 -12 -50 -38 7 -9 -2 -4 -20 11 -27 22 -45 27 -90 29 l-57 1 50 7
c47 6 205 2 214 -6z m-981 -129 c-3 -3 -9 2 -12 12 -6 14 -5 15 5 6 7 -7 10
-15 7 -18z m158 -67 c-1 -40 2 -86 6 -103 l7 -30 -14 30 c-8 17 -14 44 -15 62
0 31 -1 32 -57 38 -78 9 -79 9 -48 23 14 7 23 8 20 2 -3 -5 0 -10 8 -10 8 0
28 -3 45 -6 29 -6 31 -4 37 30 4 20 8 36 9 36 2 0 2 -33 2 -72z m437 -362 c3
-8 -6 -24 -20 -37 l-25 -24 6 32 c6 25 4 32 -11 36 -10 3 -5 5 13 6 19 1 34
-5 37 -13z m-84 -745 c23 -54 37 -111 28 -111 -3 0 -21 10 -39 23 -24 16 -33
30 -34 52 -1 17 -5 47 -9 69 -8 36 -7 38 12 28 11 -6 30 -34 42 -61z m-69 -15
c0 -2 -8 -10 -17 -17 -16 -13 -17 -12 -4 4 13 16 21 21 21 13z m105 -184 c-2
-15 -7 -49 -10 -75 -7 -53 -13 -54 -30 -3 -10 28 -9 36 7 56 10 12 18 31 18
42 0 10 4 16 10 13 5 -3 7 -18 5 -33z"/>
<path d="M3042 3050 c-29 -24 -35 -38 -47 -106 -16 -91 -19 -194 -6 -194 5 0
22 7 38 14 15 8 36 17 46 20 15 5 17 19 16 123 -1 65 -4 130 -8 145 l-6 26
-33 -28z"/>
<path d="M3010 2558 c1 -7 14 -38 30 -68 l28 -55 11 28 c20 51 14 74 -21 88
-18 7 -36 14 -40 17 -5 2 -8 -2 -8 -10z"/>
<path d="M2927 1498 c-4 -222 -10 -603 -14 -847 l-6 -444 44 27 c24 15 68 39
97 54 l54 27 -5 595 -4 595 -51 125 c-28 69 -61 158 -74 197 -13 40 -26 73
-29 73 -3 0 -9 -181 -12 -402z"/>
</g>
</svg>
