<?xml version="1.0" standalone="no"?>
<!DOCTYPE svg PUBLIC "-//W3C//DTD SVG 20010904//EN"
 "http://www.w3.org/TR/2001/REC-SVG-20010904/DTD/svg10.dtd">
<svg version="1.0" xmlns="http://www.w3.org/2000/svg"
 width="97px" height="97px" viewBox="0 0 601.000000 601.000000"
 preserveAspectRatio="xMidYMid meet">
<metadata>
Created by potrace 1.16, written by Peter Selinger 2001-2019
</metadata>
<g transform="translate(0.000000,601.000000) scale(0.100000,-0.100000)"
fill="#000000" stroke="none">
<path d="M4856 4991 c-27 -29 -63 -144 -86 -271 -11 -63 -31 -155 -44 -205
-121 -452 -494 -918 -950 -1187 -194 -115 -328 -233 -377 -334 -46 -96 -34
-227 26 -284 32 -30 32 -16 0 22 -78 92 -48 231 76 357 76 77 150 129 304 217
329 188 617 470 803 784 107 180 179 374 223 595 27 137 58 240 69 229 14 -15
30 -123 30 -202 0 -152 -80 -439 -183 -656 l-55 -116 28 -20 c15 -11 30 -20
33 -20 2 0 42 46 88 102 101 123 241 266 246 251 6 -18 -59 -205 -126 -360
-34 -78 -61 -147 -61 -152 0 -6 28 5 63 23 65 36 156 70 164 62 20 -20 -96
-206 -246 -395 -50 -63 -91 -117 -91 -121 0 -4 37 2 83 13 82 20 258 29 273
14 26 -25 -103 -173 -274 -315 l-104 -86 73 -34 c69 -31 119 -66 119 -83 0
-25 -209 -79 -367 -95 -40 -3 -73 -9 -73 -11 0 -3 15 -30 34 -61 46 -76 52
-111 27 -144 -62 -78 -333 -69 -723 26 -76 18 -138 29 -138 24 0 -22 71 -172
124 -262 253 -430 624 -714 1041 -797 135 -26 135 -49 0 -48 -82 0 -92 3 -228
58 -44 18 -81 30 -84 27 -3 -2 18 -44 47 -91 29 -47 50 -89 46 -92 -7 -8 -79
31 -146 79 l-55 39 -5 -70 c-6 -82 -15 -96 -54 -81 -38 14 -145 119 -214 209
l-57 74 -7 -93 c-9 -107 -31 -163 -67 -168 -69 -10 -238 244 -412 618 -67 146
-67 145 -73 139 -3 -3 19 -60 49 -129 30 -68 53 -126 50 -128 -6 -7 -103 18
-175 45 -140 52 -301 173 -373 281 -71 108 -164 400 -197 621 -14 94 -43 163
-86 201 -42 36 -69 44 -139 38 l-54 -5 21 29 c30 42 13 47 -27 8 l-34 -33 0
29 c0 16 -3 54 -7 85 -4 36 -2 70 6 94 16 50 75 114 125 136 54 25 150 25 215
0 28 -11 143 -85 255 -166 113 -81 208 -145 211 -142 7 6 -287 257 -367 313
-177 124 -402 87 -492 -81 -19 -34 -22 -57 -23 -150 0 -71 -7 -137 -19 -185
-10 -41 -19 -76 -20 -78 -2 -2 -31 15 -65 37 -104 67 -314 137 -517 172 l-72
12 27 21 c89 68 118 185 68 276 -64 117 -70 134 -74 223 -4 85 -5 87 -23 71
-31 -28 -78 -107 -100 -170 -17 -48 -20 -77 -17 -154 5 -107 24 -161 79 -224
l33 -39 -34 8 c-158 34 -350 114 -469 194 -81 55 -180 149 -211 200 -25 41
-48 56 -36 24 33 -87 155 -228 261 -300 79 -53 207 -117 295 -147 l70 -23 -64
-5 c-86 -7 -157 -46 -207 -115 -44 -59 -102 -97 -187 -123 l-57 -17 35 -15
c118 -50 260 -50 364 1 102 50 192 160 184 225 l-3 31 185 -37 c412 -82 587
-180 648 -363 19 -56 21 -58 21 -24 1 57 -27 134 -67 186 l-38 48 70 42 c91
55 137 68 173 51 35 -17 70 -78 83 -148 66 -329 132 -523 228 -667 95 -144
392 -303 566 -303 l41 0 73 -146 c155 -306 258 -419 344 -373 23 13 57 83 58
120 0 14 3 29 7 32 3 4 42 -32 86 -79 99 -106 158 -138 212 -118 20 8 45 55
45 85 0 20 1 21 18 6 24 -22 123 -67 148 -67 46 0 65 53 40 112 -7 15 -4 15
36 1 56 -20 212 -22 255 -4 22 9 36 24 43 47 21 63 -12 90 -145 119 -399 88
-740 354 -986 769 -33 55 -59 103 -59 106 0 4 46 -4 103 -17 180 -40 311 -56
447 -51 109 3 131 7 175 29 28 14 61 41 74 60 21 30 23 42 18 110 l-5 77 57 6
c65 8 181 37 231 58 58 25 90 65 90 111 0 36 -6 47 -50 89 l-50 48 120 117
c151 150 191 225 158 298 -17 37 -61 57 -145 64 l-73 6 65 90 c134 187 174
310 115 357 -19 15 -36 19 -75 16 l-51 -3 33 85 c70 177 92 309 57 344 -39 39
-110 11 -208 -82 -31 -30 -46 -40 -42 -27 21 58 59 200 77 289 35 170 16 419
-37 477 -22 24 -66 24 -88 0z"/>
<path d="M3976 4925 c-32 -35 -40 -87 -33 -228 10 -227 -18 -425 -89 -614 -81
-219 -282 -557 -482 -806 -29 -38 -51 -71 -47 -75 16 -16 276 297 398 480 230
344 311 596 307 953 -2 88 -2 169 -1 180 1 19 1 19 15 -1 54 -77 61 -254 21
-529 -14 -98 -23 -180 -21 -183 3 -3 32 52 65 121 60 126 133 250 163 275 29
23 42 -78 34 -256 l-7 -153 41 30 c67 49 88 23 76 -97 -5 -54 -4 -63 6 -47 6
11 14 55 16 97 5 89 -4 108 -52 108 l-32 0 1 175 c0 166 -1 175 -22 196 -33
33 -77 29 -118 -11 l-35 -34 0 90 c0 105 -20 198 -57 265 -32 60 -50 77 -91
85 -25 5 -35 1 -56 -21z"/>
<path d="M950 4126 c0 -4 10 -22 22 -38 30 -44 34 -111 9 -182 -41 -117 -22
-224 53 -296 44 -42 59 -36 96 36 54 105 25 237 -83 379 -47 62 -97 114 -97
101z"/>
<path d="M1326 3857 c8 -22 -11 -60 -61 -118 -103 -120 -120 -224 -49 -309 59
-70 91 -64 136 28 30 61 33 74 33 162 -1 70 -7 115 -24 173 -13 42 -28 77 -32
77 -5 0 -6 -6 -3 -13z"/>
<path d="M1517 3713 c-95 -131 -118 -265 -63 -371 18 -34 106 -118 142 -134
23 -11 28 -10 45 11 42 51 49 163 15 229 -8 16 -31 48 -50 71 -41 48 -50 86
-44 176 2 36 1 65 -3 65 -4 0 -23 -21 -42 -47z"/>
<path d="M740 3567 c0 -12 11 -44 24 -72 61 -131 132 -165 329 -157 67 2 73
16 31 77 -51 75 -99 101 -228 122 -50 8 -106 23 -123 33 l-33 19 0 -22z"/>
<path d="M2063 3557 c-67 -98 -89 -222 -58 -317 21 -63 122 -177 148 -167 9 3
26 25 39 49 19 35 23 59 23 128 0 77 -3 89 -30 133 -68 110 -85 144 -85 175 0
40 -9 40 -37 -1z"/>
<path d="M2756 3274 c-36 -35 -9 -94 43 -94 32 0 61 27 61 57 0 45 -71 71
-104 37z"/>
<path d="M1139 3220 c-21 -5 -55 -19 -78 -31 l-41 -21 -42 21 c-23 11 -43 19
-45 17 -1 -1 9 -26 23 -54 36 -73 91 -104 193 -110 51 -3 97 1 139 12 83 21
162 55 162 70 0 17 -48 60 -90 82 -40 20 -165 28 -221 14z"/>
<path d="M1874 2951 c-69 -40 -100 -84 -184 -261 -3 -8 -23 -26 -44 -39 -32
-22 -35 -26 -19 -35 10 -5 52 -12 95 -14 65 -4 84 -1 123 18 25 12 56 36 69
54 41 54 126 229 128 266 l3 35 -60 3 c-51 2 -68 -2 -111 -27z"/>
</g>
</svg>
