<?xml version="1.0" standalone="no"?>
<!DOCTYPE svg PUBLIC "-//W3C//DTD SVG 20010904//EN"
 "http://www.w3.org/TR/2001/REC-SVG-20010904/DTD/svg10.dtd">
<svg version="1.0" xmlns="http://www.w3.org/2000/svg"
 width="97px" height="97px" viewBox="0 0 601.000000 600.000000"
 preserveAspectRatio="xMidYMid meet">
<metadata>
Created by potrace 1.16, written by Peter Selinger 2001-2019
</metadata>
<g transform="translate(0.000000,600.000000) scale(0.100000,-0.100000)"
fill="#000000" stroke="none">
<path d="M4350 5200 c-102 -107 -130 -155 -130 -222 0 -49 14 -64 25 -27 4 11
37 40 74 63 37 24 86 66 110 95 23 28 49 51 57 51 7 0 20 -12 28 -27 8 -16 15
-22 16 -15 0 7 18 19 40 28 62 25 54 65 -24 118 -25 16 -52 26 -75 26 -32 -1
-45 -10 -121 -90z"/>
<path d="M4063 5102 c55 -57 80 -135 81 -258 1 -56 4 -100 8 -98 10 6 38 138
38 181 0 82 -25 126 -104 184 -55 41 -67 36 -23 -9z"/>
<path d="M4558 5123 c-23 -27 -29 -51 -22 -93 l6 -39 27 20 c23 17 31 18 61 8
19 -7 45 -19 58 -27 68 -44 68 -168 0 -216 -46 -32 -5 -28 67 8 84 42 124 85
132 143 6 47 -17 80 -91 130 -28 18 -66 45 -85 58 -43 31 -129 35 -153 8z"/>
<path d="M4450 5117 c0 -16 -48 -61 -118 -111 -72 -52 -116 -113 -137 -191
-36 -131 4 -296 72 -303 27 -3 39 6 104 78 137 150 172 237 149 367 -13 75
-47 173 -61 173 -5 0 -9 -6 -9 -13z"/>
<path d="M4589 4959 c-6 -12 -20 -58 -30 -103 -11 -44 -29 -93 -40 -108 l-20
-28 29 0 c43 0 131 48 153 84 41 67 10 176 -51 176 -20 0 -33 -7 -41 -21z"/>
<path d="M4047 4928 c4 -7 10 -69 14 -138 5 -101 11 -137 31 -185 46 -109 45
-111 -12 -146 -32 -20 -58 -45 -70 -70 -29 -56 -24 -67 13 -32 22 22 54 38
105 52 86 24 86 25 47 -96 -14 -43 -25 -82 -25 -86 0 -19 100 100 111 131 8
23 16 31 27 28 52 -15 97 -16 182 -2 52 8 109 12 125 10 26 -5 28 -4 11 7 -11
6 -80 16 -155 21 -159 11 -197 24 -251 86 -47 53 -75 123 -85 212 -8 73 -53
220 -67 220 -5 0 -6 -6 -1 -12z"/>
<path d="M2623 4775 c-112 -115 -110 -111 -136 -280 -17 -105 -13 -143 18
-218 12 -30 20 -37 33 -32 84 36 121 40 188 20 19 -6 22 -2 27 42 11 100 36
213 53 238 28 42 111 85 166 85 26 0 50 -4 53 -10 14 -23 25 -7 25 38 0 89
-76 172 -157 172 -15 0 -46 11 -68 25 -71 44 -87 37 -202 -80z"/>
<path d="M3265 4844 c-49 -20 -70 -24 -115 -19 -30 4 -67 2 -83 -4 -22 -9 -27
-17 -27 -45 0 -20 7 -50 16 -69 l16 -33 52 9 c71 13 120 2 159 -34 26 -25 27
-28 7 -16 -14 8 -61 17 -104 21 -91 7 -116 -5 -116 -57 0 -29 -1 -30 -14 -11
-12 15 -26 19 -73 18 -67 -1 -109 -20 -147 -64 -26 -31 -52 -107 -41 -118 3
-3 22 0 42 7 34 13 38 12 55 -8 9 -13 22 -20 28 -16 15 9 78 19 127 19 31 0
49 -6 69 -24 31 -29 54 -78 54 -115 0 -21 5 -25 28 -25 38 0 109 48 126 85 10
23 12 55 6 136 -4 58 -11 112 -15 119 -5 8 -4 11 2 7 6 -4 13 7 17 26 3 17 22
58 41 90 19 32 35 62 35 67 0 14 -61 80 -74 80 -6 0 -38 -12 -71 -26z m-165
-327 c31 8 77 -16 89 -45 26 -66 40 -185 24 -195 -5 -3 -7 16 -5 41 4 63 -22
112 -68 128 -44 16 -101 17 -137 3 -24 -9 -22 -5 15 26 23 20 42 44 42 53 1
16 1 16 10 0 6 -10 18 -14 30 -11z"/>
<path d="M4815 4804 c-48 -40 -137 -82 -222 -105 -129 -35 -147 -48 -253 -178
-40 -49 -42 -54 -19 -48 13 3 71 8 129 12 135 8 188 20 244 55 86 55 164 188
154 264 l-3 24 -30 -24z"/>
<path d="M3450 4787 c-20 -14 -48 -43 -63 -64 -28 -41 -55 -138 -45 -165 8
-20 130 -88 157 -88 48 0 91 -28 111 -72 40 -87 22 -147 -75 -247 -58 -60 -65
-72 -65 -108 0 -48 -30 -96 -101 -163 -27 -25 -49 -51 -49 -57 0 -18 144 14
211 48 35 17 89 51 119 74 30 24 84 57 120 75 78 39 97 54 120 100 26 52 32
103 20 168 -9 50 -7 67 10 122 24 77 24 84 0 137 -13 30 -34 52 -73 77 -33 21
-66 54 -85 83 -39 61 -61 74 -142 85 -36 4 -81 11 -100 14 -27 4 -43 -1 -70
-19z"/>
<path d="M3340 4490 c0 -11 18 -40 40 -64 81 -87 96 -178 52 -303 -17 -46 -26
-83 -21 -83 4 0 23 21 40 48 18 26 54 71 81 100 27 31 52 70 58 93 24 87 -23
169 -97 169 -26 0 -50 10 -77 30 -47 35 -76 39 -76 10z"/>
<path d="M2825 4401 c-42 -25 -65 -63 -65 -106 0 -39 20 -64 72 -91 18 -9 41
-23 51 -32 23 -21 22 -7 -4 27 -29 39 -35 105 -16 169 18 59 12 64 -38 33z"/>
<path d="M3355 4372 c-4 -26 -11 -54 -16 -63 -14 -27 -59 -51 -108 -58 l-46
-7 27 -18 c64 -42 152 -26 183 34 18 34 19 89 4 124 -20 43 -36 39 -44 -12z"/>
<path d="M2933 4389 c-52 -12 -79 -59 -68 -117 l7 -37 19 42 c21 50 68 83 118
83 27 0 43 -10 85 -52 47 -48 51 -50 54 -29 5 35 -5 65 -32 94 -22 24 -32 27
-83 26 -32 -1 -77 -5 -100 -10z"/>
<path d="M4106 4360 c-25 -23 -54 -64 -69 -98 -32 -71 -87 -284 -86 -332 1
-47 24 -156 31 -144 15 25 28 88 38 178 11 104 29 157 114 339 51 110 45 124
-28 57z"/>
<path d="M2961 4337 c-41 -20 -63 -59 -59 -103 l3 -39 30 45 c17 25 40 46 50
48 17 3 15 -1 -9 -27 -32 -34 -30 -49 4 -31 11 6 26 10 32 8 5 -2 -14 -17 -43
-32 -50 -28 -51 -30 -29 -38 15 -5 52 -4 97 3 70 11 74 11 128 -15 34 -17 71
-47 97 -77 22 -27 49 -49 59 -49 27 0 75 46 92 88 19 48 33 172 19 172 -5 0
-13 -11 -16 -24 -3 -13 -22 -38 -41 -55 -57 -50 -123 -41 -213 27 -25 19 -40
23 -65 19 -32 -5 -33 -4 -29 22 3 21 -3 33 -23 50 -32 24 -50 26 -84 8z"/>
<path d="M2597 4239 c-82 -20 -125 -58 -112 -99 8 -24 18 -25 35 -5 32 38 62
4 101 -112 51 -153 113 -203 252 -203 49 0 71 -7 147 -47 l89 -46 55 12 c59
13 135 70 161 122 22 41 19 45 -32 40 -63 -5 -146 15 -214 51 -66 35 -96 64
-136 133 -62 106 -232 182 -346 154z"/>
<path d="M2991 4144 c-24 -7 -46 -16 -49 -18 -9 -9 40 -76 85 -115 95 -85 259
-112 358 -60 80 42 65 78 -25 58 -50 -11 -67 -3 -116 57 -72 88 -148 111 -253
78z"/>
<path d="M4417 4008 c-17 -13 -47 -162 -34 -174 3 -3 32 10 64 29 80 49 198
86 294 94 76 6 80 7 56 20 -75 39 -340 60 -380 31z"/>
<path d="M4313 3990 c-35 -9 -81 -29 -103 -44 l-40 -26 0 -88 c0 -84 20 -159
47 -175 5 -3 29 19 53 50 25 30 56 65 71 77 21 18 25 28 21 60 -2 20 1 64 8
98 6 33 10 61 8 63 -2 1 -31 -5 -65 -15z"/>
<path d="M3728 3946 c-20 -7 -70 -34 -110 -59 -94 -58 -157 -83 -238 -92 -70
-8 -130 -28 -130 -44 0 -5 8 -7 19 -4 25 6 94 -30 114 -60 9 -14 19 -38 22
-53 l7 -29 -17 30 c-46 83 -83 99 -203 92 -90 -6 -96 -5 -152 23 -40 20 -91
35 -159 45 -125 19 -138 24 -199 78 -62 55 -81 62 -125 43 -48 -19 -72 -59
-72 -117 0 -61 24 -89 75 -89 40 0 49 -12 64 -83 10 -42 72 -105 117 -117 22
-6 71 -10 109 -8 55 1 74 -2 87 -15 16 -15 14 -16 -20 -10 -33 5 -38 3 -48
-23 -6 -16 -13 -46 -16 -66 -5 -34 -4 -37 23 -41 28 -4 28 -4 3 -6 -15 0 -52
10 -83 24 -31 14 -65 25 -75 25 -16 0 -81 -61 -81 -76 0 -3 18 -36 40 -73 22
-37 40 -80 40 -95 0 -25 2 -27 17 -15 15 13 15 12 6 -6 -16 -30 -26 -242 -12
-266 15 -29 98 -79 130 -79 23 0 27 5 32 42 6 45 28 81 70 112 25 19 33 19
114 9 76 -10 90 -9 100 4 12 15 26 15 81 -2 19 -6 22 -4 22 20 0 102 -151 194
-254 156 -22 -9 -26 -7 -34 19 -14 40 -46 55 -83 40 -16 -7 -43 -10 -60 -6
-18 3 -46 0 -67 -9 l-37 -15 30 25 c17 14 44 28 62 31 36 7 120 1 143 -9 12
-6 19 5 33 42 9 27 17 56 17 64 0 27 -30 47 -69 47 -33 0 -37 3 -39 29 -1 16
7 39 18 54 l21 26 42 -30 c45 -31 100 -45 140 -35 13 3 43 21 68 41 38 30 51
35 100 35 66 0 85 16 98 81 5 24 9 36 10 26 4 -65 106 -134 182 -124 26 3 55
17 78 36 81 69 119 85 194 82 60 -2 73 1 93 20 28 26 32 82 9 126 -8 15 -17
49 -20 75 -14 113 -128 190 -227 154z m-675 -949 c23 -22 32 -34 20 -28 -33
17 -123 13 -163 -7 -45 -22 -61 -55 -58 -119 2 -28 0 -49 -4 -46 -13 7 -9 94
7 153 17 66 43 90 96 90 30 0 39 4 39 18 1 15 2 14 11 -3 6 -11 29 -37 52 -58z"/>
<path d="M4680 3933 c-53 -9 -130 -34 -130 -43 0 -5 26 -14 58 -20 31 -6 64
-13 73 -16 9 -2 27 4 40 14 13 11 43 29 67 41 23 12 42 24 42 26 0 6 -113 4
-150 -2z"/>
<path d="M4445 3842 c-33 -22 -73 -53 -89 -70 l-28 -31 38 -16 c54 -23 111
-34 166 -35 45 0 48 2 79 48 18 26 41 57 52 69 11 13 19 24 16 26 -3 2 -87 26
-154 43 -13 3 -42 -9 -80 -34z"/>
<path d="M4117 3838 c-9 -20 -22 -69 -28 -109 -32 -208 -96 -269 -304 -290
-60 -6 -142 -21 -181 -34 -75 -25 -144 -61 -144 -75 0 -5 10 -21 23 -36 l24
-27 22 36 c50 81 182 103 344 58 107 -29 174 -65 298 -158 102 -77 108 -80
171 -85 46 -4 85 -15 127 -36 34 -17 61 -27 61 -22 0 16 -89 126 -126 156 -93
74 -203 124 -314 144 -36 6 -82 16 -103 21 l-39 10 45 30 c66 44 231 225 211
233 -22 9 -52 83 -62 156 l-9 65 -16 -37z"/>
<path d="M2061 3782 c-11 -8 -10 -15 7 -40 12 -16 30 -49 40 -73 17 -38 26
-46 71 -63 28 -10 79 -36 113 -58 l61 -40 -6 96 c-7 115 -19 145 -70 162 -49
17 -198 28 -216 16z"/>
<path d="M1924 3760 c-83 -21 -144 -46 -144 -57 1 -18 81 -41 165 -47 50 -3
103 -9 119 -12 26 -6 28 -5 21 17 -12 38 -66 119 -78 118 -7 0 -44 -8 -83 -19z"/>
<path d="M2363 3704 c4 -16 10 -72 13 -124 l7 -95 53 -60 54 -60 0 85 c0 131
-31 211 -101 261 l-32 22 6 -29z"/>
<path d="M4248 3651 c-34 -42 -85 -100 -112 -128 -52 -56 -51 -58 4 -43 19 5
77 13 127 19 51 5 114 19 140 31 44 19 153 114 153 132 0 4 -19 8 -42 8 -24 0
-80 13 -125 29 l-82 28 -63 -76z"/>
<path d="M1880 3636 c0 -4 11 -23 24 -44 13 -21 42 -74 64 -118 22 -43 51 -89
65 -102 l25 -23 62 58 c39 35 72 78 86 108 l24 50 -43 18 c-74 32 -307 72
-307 53z"/>
<path d="M4480 3535 c-30 -15 -99 -42 -153 -60 -54 -18 -101 -36 -104 -39 -4
-3 32 -6 78 -6 46 0 110 -4 142 -10 l59 -9 78 53 c43 30 84 56 91 59 31 11
-13 31 -74 34 -51 3 -72 -1 -117 -22z"/>
<path d="M2229 3503 c-12 -27 -51 -76 -87 -111 l-64 -62 36 -15 c50 -21 94
-19 183 10 43 14 100 25 126 25 l48 0 -20 28 c-40 57 -170 172 -194 172 -3 0
-15 -21 -28 -47z"/>
<path d="M4682 3509 c-32 -12 -142 -90 -142 -99 0 -4 17 -11 38 -15 20 -4 69
-19 109 -35 l72 -28 56 22 c30 11 55 26 55 31 0 21 -134 136 -157 134 -4 0
-19 -4 -31 -10z"/>
<path d="M4140 3406 c0 -2 33 -14 73 -26 97 -29 175 -74 280 -163 86 -73 151
-116 161 -106 3 3 -3 32 -13 64 -22 70 -30 159 -16 163 6 1 13 -28 16 -65 4
-38 17 -94 29 -125 21 -58 21 -58 63 -58 23 1 67 7 97 14 34 8 66 10 84 5 17
-5 32 -6 34 -4 9 9 -62 106 -100 139 -50 43 -156 99 -228 120 -91 27 -238 46
-362 46 -65 0 -118 -2 -118 -4z"/>
<path d="M3241 3374 c-24 -13 -57 -24 -73 -24 -80 0 -158 -92 -158 -186 0 -30
3 -35 18 -29 64 26 106 24 168 -8 47 -24 92 -81 99 -124 3 -21 12 -67 20 -103
8 -36 15 -78 15 -94 0 -23 3 -27 18 -21 44 19 119 17 167 -4 26 -11 49 -21 50
-21 1 0 13 27 25 60 19 50 22 72 16 128 -21 218 -37 259 -130 332 -31 23 -56
45 -56 49 0 3 -14 21 -31 39 -37 40 -83 42 -148 6z"/>
<path d="M4828 3344 c-21 -9 -38 -20 -38 -24 0 -5 20 -23 44 -40 24 -18 63
-57 86 -89 l43 -56 -6 57 c-6 63 -52 161 -77 165 -8 1 -32 -5 -52 -13z"/>
<path d="M2485 3320 c-11 -5 -42 -9 -70 -9 -62 -1 -103 -25 -144 -84 -17 -25
-57 -63 -88 -84 -45 -30 -62 -48 -77 -86 l-20 -47 22 -70 c21 -62 22 -75 11
-134 -9 -53 -8 -74 5 -118 19 -67 57 -104 155 -153 41 -20 97 -54 125 -75 69
-52 171 -99 242 -110 105 -17 105 -17 27 62 -82 84 -93 103 -93 155 0 35 -7
45 -65 100 -100 94 -124 165 -86 250 21 44 62 73 105 73 28 0 51 9 121 48 45
25 50 31 53 66 6 74 -52 177 -119 212 -31 15 -73 17 -104 4z"/>
<path d="M3925 3299 c35 -42 57 -87 94 -192 17 -48 37 -100 45 -115 l14 -27 8
30 c9 40 40 102 71 143 19 25 22 36 14 46 -19 23 -146 105 -196 126 -69 29
-82 26 -50 -11z"/>
<path d="M3573 3293 l-52 -27 44 -48 c45 -47 50 -62 46 -126 -2 -17 5 -55 14
-83 16 -46 15 -66 -2 -123 -5 -18 -4 -18 28 2 51 31 96 35 173 18 38 -9 71
-14 73 -12 10 10 23 85 23 137 0 44 -7 71 -34 125 -46 91 -84 129 -151 148
-73 22 -102 20 -162 -11z"/>
<path d="M1388 3143 c-33 -38 -98 -177 -98 -210 0 -28 -3 -33 -24 -33 -15 0
-33 -11 -45 -26 -26 -33 -45 -99 -34 -118 10 -17 122 -101 178 -133 41 -23
108 -30 134 -14 11 7 7 12 -15 24 -16 8 -40 30 -53 49 l-25 33 37 -32 c69 -60
114 -78 199 -78 69 0 80 3 120 30 47 34 68 67 61 95 -6 22 -104 88 -177 121
-66 29 -157 23 -244 -16 -81 -36 -91 -49 -53 -65 16 -6 38 -21 48 -33 l18 -21
-30 18 c-16 10 -45 30 -64 44 -34 25 -34 25 -13 42 19 16 20 18 4 34 -16 16
-15 17 10 5 27 -12 98 -5 98 10 0 5 -7 14 -15 21 -20 16 -19 36 5 88 32 72
112 90 175 41 33 -26 32 -14 -3 42 -44 69 -86 99 -136 99 -28 0 -48 -6 -58
-17z"/>
<path d="M1530 3145 c0 -4 18 -27 39 -50 38 -42 73 -102 101 -175 21 -56 54
-94 108 -123 l51 -28 17 32 c21 41 14 120 -14 176 -26 50 -95 119 -144 144
-39 20 -158 38 -158 24z"/>
<path d="M4167 3120 c-29 -34 -67 -129 -67 -166 0 -15 23 -55 59 -102 84 -111
87 -113 94 -52 7 62 39 136 74 172 l27 28 -24 27 c-63 72 -115 123 -126 123
-7 0 -24 -13 -37 -30z"/>
<path d="M4300 3094 c0 -3 26 -35 58 -73 74 -86 137 -174 212 -297 l60 -98 0
66 c0 77 -20 192 -47 263 -15 40 -29 57 -68 83 -28 18 -72 39 -99 47 -49 15
-116 20 -116 9z"/>
<path d="M2630 3000 c-27 -18 -58 -30 -78 -30 -18 0 -42 -5 -53 -10 -42 -23
-63 -113 -39 -175 5 -14 32 -49 58 -78 27 -29 63 -73 81 -99 31 -47 61 -66 46
-30 -4 9 -19 48 -32 87 -40 112 -20 206 61 284 39 38 49 81 19 81 -10 0 -38
-14 -63 -30z"/>
<path d="M1480 3009 c-35 -14 -60 -39 -60 -60 0 -29 39 -46 118 -52 43 -4 85
-13 99 -22 24 -16 25 -16 18 7 -14 47 -57 108 -85 123 -33 17 -54 18 -90 4z"/>
<path d="M4340 2958 c-35 -36 -60 -101 -67 -172 l-6 -64 41 -21 c23 -12 74
-25 114 -31 113 -16 125 -19 159 -51 18 -16 34 -28 36 -25 13 12 -189 327
-237 371 -17 15 -20 14 -40 -7z"/>
<path d="M2654 2908 c-22 -42 -14 -111 17 -144 41 -44 114 -49 179 -14 25 14
25 14 -18 22 -86 15 -125 52 -137 131 -7 45 -19 47 -41 5z"/>
<path d="M3200 2935 c0 -2 7 -30 15 -61 17 -65 9 -114 -25 -157 -25 -31 -26
-45 -2 -25 9 8 38 27 64 42 50 28 68 51 68 86 0 34 -28 79 -63 100 -30 19 -57
26 -57 15z"/>
<path d="M2978 2919 c-35 -13 -68 -67 -68 -110 l0 -33 48 46 c58 58 88 70 136
57 38 -11 82 -56 92 -96 5 -18 9 -21 15 -11 15 22 10 71 -9 103 -17 27 -28 32
-91 43 -82 14 -87 14 -123 1z"/>
<path d="M1970 2893 c-35 -13 -75 -63 -110 -138 -31 -67 -49 -91 -105 -140
-89 -78 -115 -131 -115 -236 0 -42 6 -91 13 -110 12 -33 12 -32 17 47 5 80 7
83 68 173 34 51 62 97 62 103 0 27 99 -119 113 -166 l15 -51 1 86 c1 61 -3 91
-14 105 -22 30 -18 34 19 19 33 -14 59 -18 202 -29 l61 -5 -33 35 c-30 33 -36
36 -76 31 -24 -3 -80 2 -126 11 l-82 16 72 22 c68 20 71 22 49 33 -12 7 -42
13 -65 14 l-42 2 45 60 c24 33 58 75 75 93 l30 32 -30 -1 c-16 0 -36 -3 -44
-6z"/>
<path d="M3716 2890 c-36 -11 -91 -63 -106 -101 -11 -24 -9 -34 9 -64 26 -45
27 -67 2 -89 -14 -13 -28 -16 -55 -11 -26 5 -43 3 -62 -9 l-25 -17 15 29 c8
15 22 34 31 42 13 11 19 10 39 -9 l24 -23 11 21 c36 67 -110 129 -240 102 -71
-15 -187 -85 -214 -130 -40 -67 -107 -131 -169 -161 -70 -34 -174 -54 -228
-46 -21 4 -38 2 -38 -2 0 -27 68 -106 114 -132 77 -45 137 -42 233 11 67 37
83 42 161 47 127 7 181 41 226 142 13 29 14 30 9 7 l-5 -27 30 17 c30 17 32
17 59 -3 55 -40 99 -164 79 -225 -9 -29 -17 -35 -53 -43 -40 -9 -44 -13 -69
-72 -32 -75 -61 -105 -110 -113 l-37 -6 42 -29 c30 -21 66 -34 124 -44 128
-22 158 -21 205 11 23 15 70 34 104 42 35 8 68 21 74 30 6 8 14 37 18 64 8 64
35 96 90 110 76 19 89 49 65 146 -10 41 -9 48 22 109 l34 66 -17 82 c-33 156
-84 213 -230 258 -91 27 -125 32 -162 20z"/>
<path d="M3015 2845 c-14 -13 -25 -33 -25 -45 0 -16 -6 -20 -33 -20 -20 0 -47
-10 -67 -25 -53 -39 -113 -58 -157 -50 -39 7 -103 64 -103 91 0 8 -4 14 -10
14 -24 0 1 -151 34 -200 14 -21 38 -42 56 -48 30 -11 34 -9 96 49 90 84 111
91 239 83 66 -4 105 -3 105 3 0 5 -23 20 -52 34 -30 14 -45 25 -35 27 9 2 25
-2 36 -8 29 -15 26 2 -4 30 -13 12 -22 27 -19 32 8 12 52 -29 71 -67 16 -29
16 -29 24 -7 14 37 -13 97 -53 118 -40 21 -76 17 -103 -11z"/>
<path d="M2900 2660 c-19 -10 -59 -44 -88 -75 l-54 -56 -71 3 c-58 2 -72 0
-75 -13 -2 -10 15 -24 50 -42 132 -67 352 -7 436 117 17 26 32 51 32 55 0 10
-101 31 -150 31 -25 -1 -61 -9 -80 -20z"/>
<path d="M2185 2461 c-66 -30 -115 -102 -115 -167 0 -15 -9 -42 -21 -61 -27
-43 -19 -93 19 -124 24 -18 35 -20 89 -15 72 7 93 -1 185 -70 32 -23 72 -45
89 -49 70 -16 180 44 198 108 l9 32 1 -28 c2 -67 48 -107 105 -93 29 7 73 -8
101 -34 11 -10 34 -26 50 -34 23 -12 26 -16 10 -16 -11 0 -42 14 -70 30 -39
23 -62 30 -106 30 -41 0 -63 5 -82 20 -33 26 -55 25 -85 -2 -20 -19 -35 -23
-92 -23 -61 0 -73 3 -114 33 -26 17 -50 32 -55 32 -14 0 -19 -61 -10 -118 11
-69 39 -114 93 -148 25 -16 52 -45 67 -72 36 -67 48 -71 106 -34 29 19 63 32
81 32 17 0 75 -16 128 -35 163 -59 206 -51 379 73 85 61 100 82 149 211 23 60
24 65 8 77 -15 12 -14 13 11 14 66 0 126 58 151 145 17 57 22 61 91 67 24 2
32 10 43 40 20 52 0 114 -47 145 -50 34 -82 30 -137 -18 -75 -64 -86 -69 -212
-89 -81 -13 -140 -29 -184 -50 -64 -30 -66 -30 -142 -19 -66 10 -82 9 -121 -6
-45 -17 -105 -76 -105 -104 0 -8 -3 -12 -6 -8 -3 3 -1 22 6 41 15 45 65 84
121 95 l44 8 -35 16 c-19 8 -70 20 -112 26 -91 13 -153 36 -244 92 -118 72
-169 82 -239 50z m1006 -447 c-24 -7 -66 -31 -95 -53 -50 -38 -131 -68 -158
-58 -8 3 -5 6 7 6 47 2 100 25 139 60 55 50 74 61 116 60 l35 -1 -44 -14z"/>
<path d="M4134 2397 c-3 -8 0 -26 6 -41 5 -15 10 -38 10 -52 0 -20 9 -29 46
-45 l46 -19 49 37 c27 21 48 41 46 47 -2 5 -32 26 -67 47 -66 40 -126 51 -136
26z"/>
<path d="M4312 2269 c-23 -17 -42 -35 -42 -39 0 -5 19 -22 43 -38 23 -17 70
-58 105 -93 l62 -63 0 32 c0 63 -77 216 -115 229 -6 2 -30 -11 -53 -28z"/>
<path d="M4115 2250 c-4 -6 -31 -25 -61 -41 -30 -17 -54 -37 -54 -45 0 -29
130 -147 145 -132 3 2 0 21 -6 42 -11 41 -8 139 5 169 6 12 4 17 -7 17 -9 0
-19 -5 -22 -10z"/>
<path d="M4160 2214 c-13 -32 -11 -85 3 -149 12 -51 26 -61 83 -64 20 -1 22 5
26 77 3 42 8 84 12 93 5 11 -6 22 -42 42 -61 33 -70 33 -82 1z"/>
<path d="M4295 2115 c-4 -30 -5 -66 -1 -79 6 -23 9 -24 86 -23 44 1 80 5 80
10 0 11 -139 147 -150 147 -5 0 -12 -25 -15 -55z"/>
<path d="M2185 1988 c-22 -11 -51 -30 -64 -42 -32 -28 -101 -115 -101 -127 0
-11 184 -10 220 0 15 5 23 13 21 22 -3 8 -5 49 -5 92 0 87 -4 90 -71 55z"/>
<path d="M3320 1975 c-10 -12 -10 -25 -1 -59 6 -25 11 -57 11 -73 -1 -42 -32
-103 -76 -146 -37 -37 -174 -110 -317 -171 -37 -16 -66 -34 -64 -40 6 -19 109
-45 179 -45 l66 -1 110 108 c105 103 110 109 118 161 l9 54 60 -241 60 -242
36 0 c20 0 71 -9 114 -20 43 -11 80 -20 82 -20 2 0 -31 39 -72 87 -88 100
-141 184 -191 304 -20 46 -47 99 -61 117 l-25 34 31 -16 c16 -9 47 -21 68 -26
l38 -10 -42 4 c-24 2 -43 0 -43 -4 0 -5 22 -25 50 -45 64 -47 91 -80 137 -167
l37 -71 11 64 c5 35 20 80 33 100 12 20 22 39 22 42 0 11 -84 50 -135 63 -27
7 -40 13 -28 13 12 1 55 14 95 29 40 16 82 32 92 36 39 14 0 21 -145 27 -140
5 -151 7 -175 30 -14 14 -32 48 -41 81 -17 61 -23 67 -43 43z"/>
<path d="M2236 1759 l-40 -37 13 -44 c13 -45 68 -138 81 -138 14 0 89 59 99
79 22 41 12 64 -51 123 -35 32 -63 57 -63 57 0 -1 -18 -19 -39 -40z"/>
<path d="M1983 1741 c-22 -56 -25 -238 -4 -286 l13 -30 22 61 c34 91 72 151
147 229 l68 70 -114 1 -114 0 -18 -45z"/>
<path d="M3710 1774 c-99 -32 -119 -47 -82 -58 10 -3 53 -28 96 -55 75 -48 80
-49 102 -34 13 8 47 18 75 22 l52 6 -28 33 c-48 57 -108 92 -157 91 -24 0 -50
-3 -58 -5z"/>
<path d="M2129 1648 c-58 -81 -133 -258 -115 -275 3 -3 17 8 31 25 14 16 67
51 118 77 50 26 94 49 96 51 1 1 -9 18 -23 36 -14 19 -35 55 -46 81 -12 26
-23 47 -25 47 -3 0 -19 -19 -36 -42z"/>
<path d="M3702 1615 c-27 -34 -43 -113 -35 -171 7 -51 49 -101 115 -135 39
-20 154 -38 146 -23 -42 88 -54 160 -36 226 7 25 4 29 -60 64 -37 20 -77 44
-88 51 -20 13 -24 11 -42 -12z"/>
<path d="M3871 1627 c-19 -7 -36 -17 -38 -22 -2 -6 25 -25 59 -42 92 -45 177
-113 228 -182 30 -40 58 -66 85 -78 22 -9 43 -19 47 -21 13 -6 -23 102 -57
174 -19 39 -53 90 -76 113 -63 63 -166 87 -248 58z"/>
<path d="M3238 1531 l-77 -76 24 -70 c15 -42 25 -93 25 -128 0 -70 9 -67 50
14 41 79 61 175 58 263 l-3 73 -77 -76z"/>
<path d="M3915 1520 c-14 -23 -7 -145 10 -187 9 -24 20 -43 24 -43 22 -1 181
46 181 54 0 14 -142 149 -177 169 -21 12 -34 14 -38 7z"/>
<path d="M3388 1504 c-3 -5 -9 -27 -13 -49 -4 -22 -35 -94 -70 -161 -56 -107
-64 -130 -70 -197 -7 -75 -2 -127 13 -127 4 0 18 20 30 44 33 61 115 151 152
166 31 13 31 14 25 64 -9 69 -45 238 -55 255 -4 7 -10 10 -12 5z"/>
<path d="M2787 1431 c-39 -43 -61 -81 -82 -142 -13 -37 -13 -39 7 -50 12 -7
60 -14 108 -17 l85 -5 88 96 c48 52 87 97 87 99 0 3 -28 8 -63 11 -35 3 -87
15 -116 26 -28 12 -58 21 -65 21 -8 0 -30 -18 -49 -39z"/>
<path d="M3059 1358 l-74 -81 0 -124 c0 -67 3 -123 6 -123 3 0 14 7 25 15 30
23 44 18 44 -17 l0 -31 32 44 c17 24 47 62 66 83 l35 39 -6 86 c-6 88 -31 191
-46 191 -5 0 -42 -37 -82 -82z"/>
<path d="M3480 1249 c0 -8 5 -62 12 -121 l11 -106 40 -18 c22 -10 76 -51 119
-91 93 -85 114 -95 140 -63 14 17 18 40 18 105 0 141 -39 214 -143 264 -72 35
-197 54 -197 30z"/>
<path d="M2919 1214 c-38 -41 -162 -131 -259 -189 l-89 -52 46 -7 c88 -12 190
-6 256 14 72 22 81 30 91 80 7 39 -3 180 -14 180 -3 0 -17 -12 -31 -26z"/>
<path d="M2657 1161 c-15 -38 -41 -89 -57 -112 -16 -24 -27 -45 -25 -48 7 -6
145 78 225 138 l75 56 -65 7 c-36 3 -78 11 -93 17 -16 6 -29 11 -30 11 -1 0
-15 -31 -30 -69z"/>
<path d="M3407 1144 c-21 -14 -61 -60 -89 -102 l-50 -77 5 -75 c5 -70 40 -190
55 -190 4 0 16 21 26 47 11 27 46 74 78 108 l58 59 -11 128 c-8 81 -16 128
-23 128 -6 0 -29 -12 -49 -26z"/>
<path d="M3510 963 c0 -111 63 -533 79 -533 3 0 12 18 19 40 7 23 35 77 63
122 28 44 60 101 70 125 l19 45 -27 50 c-32 59 -99 122 -171 161 l-52 28 0
-38z"/>
<path d="M3451 854 c-38 -32 -76 -94 -91 -152 -9 -34 -8 -46 4 -63 19 -28 188
-200 192 -196 2 1 -6 46 -17 100 -10 53 -25 148 -33 212 -7 63 -15 118 -18
120 -3 3 -20 -6 -37 -21z"/>
</g>
</svg>
